<?xml version="1.0" encoding="UTF-8"?>
<svg width="256" height="256" version="1.1" viewBox="0 0 190 190" xmlns="http://www.w3.org/2000/svg" xmlns:cc="http://creativecommons.org/ns#" xmlns:dc="http://purl.org/dc/elements/1.1/" xmlns:rdf="http://www.w3.org/1999/02/22-rdf-syntax-ns#">
 <metadata><![CDATA[
    
%% mathml-square-logo.svg
%% Copyright 2015 Mondial Association for Tools Handling MathML, Ltd.
%
% This work may be distributed and/or modified under the
% conditions of the LaTeX Project Public License, either version 1.3c
% of this license or (at your option) any later version.
% The latest version of this license is in
%   http://www.latex-project.org/lppl.txt
%
% This work has the LPPL maintenance status `maintained'.
%
% The Current Maintainer of this work is Frederic Wang.
%
% This work consists of all files listed in manifest.txt.
%
    
    ]]>
  <rdf:RDF>
   <cc:Work rdf:about="">
    <dc:format>image/svg+xml</dc:format>
    <dc:type rdf:resource="http://purl.org/dc/dcmitype/StillImage"/>
    <dc:title>MathML Association Logo</dc:title>
    <cc:license rdf:resource="http://www.latex-project.org/lppl.txt"/>
   </cc:Work>
  </rdf:RDF>
 </metadata>
 <title>MathML Association Square Logo</title>
 <desc>This is an image of the mathematical formula
  "the W-th root of open paren W raised to the power W close paren" written
  in green on a black background that has the shape of a square with rounded
  corner. This image suggests mathematics and the World Wide Web.</desc>
 <path d="m15 0h160c8.31 0 15 6.69 15 15v160c0 8.31-6.69 15-15 15h-160c-8.31 0-15-6.69-15-15v-160c0-8.31 6.69-15 15-15z" style=""/>
 <path d="m85 25h100l-5 15h-80l-35 140-35-60-20 10-5-10 40-25 15 30" fill="#53c271"/>
 <g fill="#53c271">
  <g aria-label="ð‘¤">
   <path d="m51.125 65.936c0-2.0794-1.0208-2.6465-1.6635-2.6465-0.94519 0-1.8904 0.983-1.8904 1.8148 0 0.4915 0.22684 0.71834 0.56711 1.0208 0.41588 0.41588 1.3611 1.3989 1.3611 3.2136 0 1.2855-1.0964 4.9906-2.0794 6.9188-0.983 2.0038-2.3063 3.3271-4.1588 3.3271-1.777 0-2.7978-1.1342-2.7978-3.2893 0-1.0586 0.26465-2.2306 0.41588-2.7599l1.5879-6.3517c0.18904-0.83176 0.56711-2.2306 0.56711-2.4575 0-0.68054-0.5293-1.0208-1.0964-1.0208-0.45369 0-1.1342 0.30246-1.3989 1.0586-0.11342 0.26465-1.8904 7.4859-2.155 8.4689-0.26465 1.1342-0.34027 1.8148-0.34027 2.4953 0 0.41588 0 0.4915 0.03781 0.68054-0.86957 2.0038-2.0038 3.1758-3.4783 3.1758-3.0246 0-3.0246-2.7978-3.0246-3.4405 0-1.2098 0.18904-2.6843 1.966-7.3347 0.41588-1.1342 0.64273-1.6635 0.64273-2.4197 0-1.7013-1.2476-3.1002-3.1002-3.1002-3.5917 0-4.9906 5.4821-4.9906 5.8224 0 0.37808 0.45369 0.37808 0.45369 0.37808 0.37808 0 0.41588-0.07561 0.60492-0.68054 1.0208-3.5161 2.4953-4.6881 3.8186-4.6881 0.34027 0 0.94519 0.03781 0.94519 1.2476 0 0.94519-0.41588 2.0038-0.68054 2.6465-1.6635 4.4613-2.1172 6.2004-2.1172 7.6371 0 3.4405 2.5331 4.7637 5.3687 4.7637 0.64273 0 2.4197 0 3.932-2.6465 0.983 2.4197 3.5917 2.6465 4.7259 2.6465 2.8356 0 4.4991-2.3819 5.4821-4.6503 1.2855-2.949 2.4953-8.0152 2.4953-9.83z" fill="#53c271"/>
  </g>
  <g aria-label="ð‘¤">
   <path d="m136.82 122.1c0-4.125-2.025-5.25-3.3-5.25-1.875 0-3.75 1.95-3.75 3.6 0 0.975 0.45 1.425 1.125 2.025 0.825 0.825 2.7 2.775 2.7 6.375 0 2.55-2.175 9.9-4.125 13.725-1.95 3.975-4.575 6.6-8.25 6.6-3.525 0-5.55-2.25-5.55-6.525 0-2.1 0.525-4.425 0.825-5.475l3.15-12.6c0.375-1.65 1.125-4.425 1.125-4.875 0-1.35-1.05-2.025-2.175-2.025-0.9 0-2.25 0.6-2.775 2.1-0.225 0.525-3.75 14.85-4.275 16.8-0.525 2.25-0.675 3.6-0.675 4.95 0 0.825 0 0.975 0.075 1.35-1.725 3.975-3.975 6.3-6.9 6.3-6 0-6-5.55-6-6.825 0-2.4 0.375-5.325 3.9-14.55 0.825-2.25 1.275-3.3 1.275-4.8 0-3.375-2.475-6.15-6.15-6.15-7.125 0-9.9 10.875-9.9 11.55 0 0.75 0.9 0.75 0.9 0.75 0.75 0 0.825-0.15 1.2-1.35 2.025-6.975 4.95-9.3 7.575-9.3 0.675 0 1.875 0.075 1.875 2.475 0 1.875-0.825 3.975-1.35 5.25-3.3 8.85-4.2 12.3-4.2 15.15 0 6.825 5.025 9.45 10.65 9.45 1.275 0 4.8 0 7.8-5.25 1.95 4.8 7.125 5.25 9.375 5.25 5.625 0 8.925-4.725 10.875-9.225 2.55-5.85 4.95-15.9 4.95-19.5z" fill="#53c271"/>
  </g>
  <g aria-label="ð‘¤">
   <path d="m176.8 90.191c0-2.9288-1.4378-3.7275-2.343-3.7275-1.3312 0-2.6625 1.3845-2.6625 2.556 0 0.69225 0.3195 1.0118 0.79875 1.4378 0.58575 0.58575 1.917 1.9702 1.917 4.5262 0 1.8105-1.5442 7.029-2.9288 9.7448-1.3845 2.8222-3.2482 4.686-5.8575 4.686-2.5028 0-3.9405-1.5975-3.9405-4.6328 0-1.491 0.37275-3.1418 0.58575-3.8872l2.2365-8.946c0.26625-1.1715 0.79875-3.1418 0.79875-3.4612 0-0.9585-0.7455-1.4378-1.5442-1.4378-0.639 0-1.5975 0.426-1.9702 1.491-0.15975 0.37275-2.6625 10.544-3.0352 11.928-0.37275 1.5975-0.47925 2.556-0.47925 3.5145 0 0.58575 0 0.69225 0.0532 0.9585-1.2248 2.8222-2.8222 4.473-4.899 4.473-4.26 0-4.26-3.9405-4.26-4.8458 0-1.704 0.26625-3.7808 2.769-10.33 0.58575-1.5975 0.90525-2.343 0.90525-3.408 0-2.3962-1.7572-4.3665-4.3665-4.3665-5.0588 0-7.029 7.7212-7.029 8.2005 0 0.5325 0.639 0.5325 0.639 0.5325 0.5325 0 0.58575-0.1065 0.852-0.9585 1.4378-4.9522 3.5145-6.603 5.3782-6.603 0.47925 0 1.3312 0.05325 1.3312 1.7572 0 1.3312-0.58575 2.8222-0.9585 3.7275-2.343 6.2835-2.982 8.733-2.982 10.756 0 4.8458 3.5678 6.7095 7.5615 6.7095 0.90525 0 3.408 0 5.538-3.7275 1.3845 3.408 5.0588 3.7275 6.6562 3.7275 3.9938 0 6.3368-3.3548 7.7212-6.5498 1.8105-4.1535 3.5145-11.289 3.5145-13.845z" fill="#53c271"/>
  </g>
 </g>
</svg>
