<svg xmlns="http://www.w3.org/2000/svg" xmlns:xlink="http://www.w3.org/1999/xlink" contentStyleType="text/css" data-diagram-type="CLASS" height="357px" preserveAspectRatio="none" style="width:712px;height:357px;" version="1.1" viewBox="0 0 712 357" width="712px" zoomAndPan="magnify"><title>Generalizaci&#243;n de clases</title><defs/><g><text fill="#000000" font-family="Segoe UI" font-size="14" font-weight="bold" lengthAdjust="spacing" textLength="158.6826" x="270.0259" y="25.1074">Generalizaci&#243;n de clases</text><!--class Cuenta--><g id="elem_Cuenta"><rect codeLine="3" fill="#F1F1F1" height="97.1777" id="Cuenta" rx="2.5" ry="2.5" style="stroke:#181818;stroke-width:0.5;" width="249.2207" x="238" y="46.6211"/><ellipse cx="335.2686" cy="62.6211" fill="#ADD1B2" rx="11" ry="11" style="stroke:#181818;stroke-width:1;"/><path d="M338.0342,58.4961 Q338.1904,58.2773 338.3779,58.168 Q338.5654,58.0586 338.7842,58.0586 Q339.1592,58.0586 339.3936,58.3242 Q339.6279,58.5742 339.6279,59.1836 L339.6279,60.6367 Q339.6279,61.2461 339.3936,61.5117 Q339.1592,61.7773 338.7842,61.7773 Q338.4404,61.7773 338.2373,61.5742 Q338.0342,61.3867 337.9248,60.8711 Q337.8779,60.5117 337.6904,60.3242 Q337.3623,59.9492 336.7529,59.7305 Q336.1436,59.5117 335.5186,59.5117 Q334.7529,59.5117 334.1123,59.8398 Q333.4873,60.168 332.9873,60.918 Q332.5029,61.668 332.5029,62.6992 L332.5029,63.793 Q332.5029,65.0273 333.3936,65.8555 Q334.2842,66.668 335.8779,66.668 Q336.8154,66.668 337.4717,66.418 Q337.8623,66.2617 338.2842,65.8242 Q338.5498,65.5586 338.6904,65.4805 Q338.8467,65.4023 339.0498,65.4023 Q339.3779,65.4023 339.6279,65.668 Q339.8936,65.918 339.8936,66.2617 Q339.8936,66.6055 339.5498,67.0117 Q339.0498,67.5898 338.2529,67.918 Q337.1748,68.3711 335.8779,68.3711 Q334.3623,68.3711 333.1592,67.7461 Q332.1748,67.2461 331.4873,66.1836 Q330.7998,65.1055 330.7998,63.8242 L330.7998,62.668 Q330.7998,61.3398 331.4092,60.1992 Q332.0342,59.043 333.1279,58.4336 Q334.2217,57.8086 335.4561,57.8086 Q336.1904,57.8086 336.8311,57.9805 Q337.4873,58.1367 338.0342,58.4961 Z " fill="#000000"/><text fill="#000000" font-family="Consolas" font-size="14" font-weight="bold" lengthAdjust="spacing" textLength="46.1836" x="355.7686" y="67.2148">Cuenta</text><line style="stroke:#181818;stroke-width:0.5;" x1="239" x2="486.2207" y1="78.6211" y2="78.6211"/><ellipse cx="249" cy="92.3174" fill="transparent" rx="3" ry="3" style="stroke:#038048;stroke-width:1;"/><text fill="#000000" font-family="Consolas" font-size="14" lengthAdjust="spacing" textLength="92.3672" x="258" y="95.4111">saldo: float</text><line style="stroke:#181818;stroke-width:0.5;" x1="239" x2="486.2207" y1="103.0137" y2="103.0137"/><ellipse cx="249" cy="116.71" fill="#84BE84" rx="3" ry="3" style="stroke:#038048;stroke-width:1;"/><text fill="#000000" font-family="Consolas" font-size="14" lengthAdjust="spacing" textLength="223.2207" x="258" y="119.8037">depositar(monto: float): void</text><ellipse cx="249" cy="133.1025" fill="#84BE84" rx="3" ry="3" style="stroke:#038048;stroke-width:1;"/><text fill="#000000" font-family="Consolas" font-size="14" lengthAdjust="spacing" textLength="207.8262" x="258" y="136.1963">retirar(monto: float): void</text></g><polygon fill="transparent" points="361.8386,143.7988,368.5202,163.9075,354.5219,163.6851" style="stroke:#181818;stroke-width:1;"/><line style="stroke:#181818;stroke-width:1;" x1="361.521" x2="361.5" y1="163.7963" y2="165.1211"/><line style="stroke:#181818;stroke-width:1;" x1="487.2207" x2="507.38" y1="95.1335" y2="95.1211"/><!--class CuentaAhorro--><g id="elem_CuentaAhorro"><rect codeLine="9" fill="#F1F1F1" height="80.7852" id="CuentaAhorro" rx="2.5" ry="2.5" style="stroke:#181818;stroke-width:0.5;" width="210.7344" x="7" y="223.6211"/><ellipse cx="61.9336" cy="239.6211" fill="#ADD1B2" rx="11" ry="11" style="stroke:#181818;stroke-width:1;"/><path d="M64.6992,235.4961 Q64.8555,235.2773 65.043,235.168 Q65.2305,235.0586 65.4492,235.0586 Q65.8242,235.0586 66.0586,235.3242 Q66.293,235.5742 66.293,236.1836 L66.293,237.6367 Q66.293,238.2461 66.0586,238.5117 Q65.8242,238.7773 65.4492,238.7773 Q65.1055,238.7773 64.9023,238.5742 Q64.6992,238.3867 64.5898,237.8711 Q64.543,237.5117 64.3555,237.3242 Q64.0273,236.9492 63.418,236.7305 Q62.8086,236.5117 62.1836,236.5117 Q61.418,236.5117 60.7773,236.8398 Q60.1523,237.168 59.6523,237.918 Q59.168,238.668 59.168,239.6992 L59.168,240.793 Q59.168,242.0273 60.0586,242.8555 Q60.9492,243.668 62.543,243.668 Q63.4805,243.668 64.1367,243.418 Q64.5273,243.2617 64.9492,242.8242 Q65.2148,242.5586 65.3555,242.4805 Q65.5117,242.4023 65.7148,242.4023 Q66.043,242.4023 66.293,242.668 Q66.5586,242.918 66.5586,243.2617 Q66.5586,243.6055 66.2148,244.0117 Q65.7148,244.5898 64.918,244.918 Q63.8398,245.3711 62.543,245.3711 Q61.0273,245.3711 59.8242,244.7461 Q58.8398,244.2461 58.1523,243.1836 Q57.4648,242.1055 57.4648,240.8242 L57.4648,239.668 Q57.4648,238.3398 58.0742,237.1992 Q58.6992,236.043 59.793,235.4336 Q60.8867,234.8086 62.1211,234.8086 Q62.8555,234.8086 63.4961,234.9805 Q64.1523,235.1367 64.6992,235.4961 Z " fill="#000000"/><text fill="#000000" font-family="Consolas" font-size="14" font-weight="bold" lengthAdjust="spacing" textLength="92.3672" x="82.4336" y="244.2148">CuentaAhorro</text><line style="stroke:#181818;stroke-width:0.5;" x1="8" x2="216.7344" y1="255.6211" y2="255.6211"/><ellipse cx="18" cy="269.3174" fill="transparent" rx="3" ry="3" style="stroke:#038048;stroke-width:1;"/><text fill="#000000" font-family="Consolas" font-size="14" lengthAdjust="spacing" textLength="138.5508" x="27" y="272.4111">tasaInteres: float</text><line style="stroke:#181818;stroke-width:0.5;" x1="8" x2="216.7344" y1="280.0137" y2="280.0137"/><ellipse cx="18" cy="293.71" fill="#84BE84" rx="3" ry="3" style="stroke:#038048;stroke-width:1;"/><text fill="#000000" font-family="Consolas" font-size="14" lengthAdjust="spacing" textLength="184.7344" x="27" y="296.8037">calcularInteres(): float</text></g><!--class CuentaCheques--><g id="elem_CuentaCheques"><rect codeLine="14" fill="#F1F1F1" height="80.7852" id="CuentaCheques" rx="2.5" ry="2.5" style="stroke:#181818;stroke-width:0.5;" width="203.0371" x="257" y="223.6211"/><ellipse cx="304.2363" cy="239.6211" fill="#ADD1B2" rx="11" ry="11" style="stroke:#181818;stroke-width:1;"/><path d="M307.002,235.4961 Q307.1582,235.2773 307.3457,235.168 Q307.5332,235.0586 307.752,235.0586 Q308.127,235.0586 308.3613,235.3242 Q308.5957,235.5742 308.5957,236.1836 L308.5957,237.6367 Q308.5957,238.2461 308.3613,238.5117 Q308.127,238.7773 307.752,238.7773 Q307.4082,238.7773 307.2051,238.5742 Q307.002,238.3867 306.8926,237.8711 Q306.8457,237.5117 306.6582,237.3242 Q306.3301,236.9492 305.7207,236.7305 Q305.1113,236.5117 304.4863,236.5117 Q303.7207,236.5117 303.0801,236.8398 Q302.4551,237.168 301.9551,237.918 Q301.4707,238.668 301.4707,239.6992 L301.4707,240.793 Q301.4707,242.0273 302.3613,242.8555 Q303.252,243.668 304.8457,243.668 Q305.7832,243.668 306.4395,243.418 Q306.8301,243.2617 307.252,242.8242 Q307.5176,242.5586 307.6582,242.4805 Q307.8145,242.4023 308.0176,242.4023 Q308.3457,242.4023 308.5957,242.668 Q308.8613,242.918 308.8613,243.2617 Q308.8613,243.6055 308.5176,244.0117 Q308.0176,244.5898 307.2207,244.918 Q306.1426,245.3711 304.8457,245.3711 Q303.3301,245.3711 302.127,244.7461 Q301.1426,244.2461 300.4551,243.1836 Q299.7676,242.1055 299.7676,240.8242 L299.7676,239.668 Q299.7676,238.3398 300.377,237.1992 Q301.002,236.043 302.0957,235.4336 Q303.1895,234.8086 304.4238,234.8086 Q305.1582,234.8086 305.7988,234.9805 Q306.4551,235.1367 307.002,235.4961 Z " fill="#000000"/><text fill="#000000" font-family="Consolas" font-size="14" font-weight="bold" lengthAdjust="spacing" textLength="100.0645" x="324.7363" y="244.2148">CuentaCheques</text><line style="stroke:#181818;stroke-width:0.5;" x1="258" x2="459.0371" y1="255.6211" y2="255.6211"/><ellipse cx="268" cy="269.3174" fill="transparent" rx="3" ry="3" style="stroke:#038048;stroke-width:1;"/><text fill="#000000" font-family="Consolas" font-size="14" lengthAdjust="spacing" textLength="123.1563" x="277" y="272.4111">sobregiro: float</text><line style="stroke:#181818;stroke-width:0.5;" x1="258" x2="459.0371" y1="280.0137" y2="280.0137"/><ellipse cx="268" cy="293.71" fill="#84BE84" rx="3" ry="3" style="stroke:#038048;stroke-width:1;"/><text fill="#000000" font-family="Consolas" font-size="14" lengthAdjust="spacing" textLength="177.0371" x="277" y="296.8037">cobrarSobregiro(): void</text></g><!--class CuentaCredito--><g id="elem_CuentaCredito"><rect codeLine="19" fill="#F1F1F1" height="80.7852" id="CuentaCredito" rx="2.5" ry="2.5" style="stroke:#181818;stroke-width:0.5;" width="210.7344" x="495" y="223.6211"/><ellipse cx="546.085" cy="239.6211" fill="#ADD1B2" rx="11" ry="11" style="stroke:#181818;stroke-width:1;"/><path d="M548.8506,235.4961 Q549.0068,235.2773 549.1943,235.168 Q549.3818,235.0586 549.6006,235.0586 Q549.9756,235.0586 550.21,235.3242 Q550.4443,235.5742 550.4443,236.1836 L550.4443,237.6367 Q550.4443,238.2461 550.21,238.5117 Q549.9756,238.7773 549.6006,238.7773 Q549.2568,238.7773 549.0537,238.5742 Q548.8506,238.3867 548.7412,237.8711 Q548.6943,237.5117 548.5068,237.3242 Q548.1787,236.9492 547.5693,236.7305 Q546.96,236.5117 546.335,236.5117 Q545.5693,236.5117 544.9287,236.8398 Q544.3037,237.168 543.8037,237.918 Q543.3193,238.668 543.3193,239.6992 L543.3193,240.793 Q543.3193,242.0273 544.21,242.8555 Q545.1006,243.668 546.6943,243.668 Q547.6318,243.668 548.2881,243.418 Q548.6787,243.2617 549.1006,242.8242 Q549.3662,242.5586 549.5068,242.4805 Q549.6631,242.4023 549.8662,242.4023 Q550.1943,242.4023 550.4443,242.668 Q550.71,242.918 550.71,243.2617 Q550.71,243.6055 550.3662,244.0117 Q549.8662,244.5898 549.0693,244.918 Q547.9912,245.3711 546.6943,245.3711 Q545.1787,245.3711 543.9756,244.7461 Q542.9912,244.2461 542.3037,243.1836 Q541.6162,242.1055 541.6162,240.8242 L541.6162,239.668 Q541.6162,238.3398 542.2256,237.1992 Q542.8506,236.043 543.9443,235.4336 Q545.0381,234.8086 546.2725,234.8086 Q547.0068,234.8086 547.6475,234.9805 Q548.3037,235.1367 548.8506,235.4961 Z " fill="#000000"/><text fill="#000000" font-family="Consolas" font-size="14" font-weight="bold" lengthAdjust="spacing" textLength="100.0645" x="566.585" y="244.2148">CuentaCredito</text><line style="stroke:#181818;stroke-width:0.5;" x1="496" x2="704.7344" y1="255.6211" y2="255.6211"/><ellipse cx="506" cy="269.3174" fill="transparent" rx="3" ry="3" style="stroke:#038048;stroke-width:1;"/><text fill="#000000" font-family="Consolas" font-size="14" lengthAdjust="spacing" textLength="138.5508" x="515" y="272.4111">tasaInteres: float</text><line style="stroke:#181818;stroke-width:0.5;" x1="496" x2="704.7344" y1="280.0137" y2="280.0137"/><ellipse cx="506" cy="293.71" fill="#84BE84" rx="3" ry="3" style="stroke:#038048;stroke-width:1;"/><text fill="#000000" font-family="Consolas" font-size="14" lengthAdjust="spacing" textLength="184.7344" x="515" y="296.8037">calcularInteres(): float</text></g><g id="elem_GMN9"><path d="M542.5,82.6211 L542.5,91.1211 L507.38,95.1211 L542.5,99.1211 L542.5,107.8428 A0,0 0 0 0 542.5,107.8428 L656.417,107.8428 A0,0 0 0 0 656.417,107.8428 L656.417,92.6211 L646.417,82.6211 L542.5,82.6211 A0,0 0 0 0 542.5,82.6211 " fill="#FEFFDD" style="stroke:#181818;stroke-width:0.5;"/><path d="M646.417,82.6211 L646.417,92.6211 L656.417,92.6211 L646.417,82.6211 " fill="#FEFFDD" style="stroke:#181818;stroke-width:0.5;"/><text fill="#000000" font-family="Consolas" font-size="13" lengthAdjust="spacing" textLength="92.917" x="548.5" y="99.4976">Clase general</text></g><g id="elem_GMN12"><path d="M26,82.6211 L26,107.8428 A0,0 0 0 0 26,107.8428 L101.06,107.8428 L110.59,223.3111 L109.06,107.8428 L182.8018,107.8428 A0,0 0 0 0 182.8018,107.8428 L182.8018,92.6211 L172.8018,82.6211 L26,82.6211 A0,0 0 0 0 26,82.6211 " fill="#FEFFDD" style="stroke:#181818;stroke-width:0.5;"/><path d="M172.8018,82.6211 L172.8018,92.6211 L182.8018,92.6211 L172.8018,82.6211 " fill="#FEFFDD" style="stroke:#181818;stroke-width:0.5;"/><text fill="#000000" font-family="Consolas" font-size="13" lengthAdjust="spacing" textLength="135.8018" x="32" y="99.4976">Clase especializada</text></g><!--reverse link Cuenta to CuentaAhorro--><g id="link_Cuenta_CuentaAhorro"><path codeLine="24" d="M361.5,165.1211 C361.5,165.1211 282.17,196.3411 213.06,223.5411 " fill="transparent" id="Cuenta-backto-CuentaAhorro" style="stroke:#181818;stroke-width:1;"/></g><!--reverse link Cuenta to CuentaCheques--><g id="link_Cuenta_CuentaCheques"><path codeLine="25" d="M361.5,165.1211 C361.5,165.1211 360.54,196.3411 359.71,223.5411 " fill="transparent" id="Cuenta-backto-CuentaCheques" style="stroke:#181818;stroke-width:1;"/></g><!--reverse link Cuenta to CuentaCredito--><g id="link_Cuenta_CuentaCredito"><path codeLine="26" d="M361.5,165.1211 C361.5,165.1211 437.65,196.3411 503.98,223.5411 " fill="transparent" id="Cuenta-backto-CuentaCredito" style="stroke:#181818;stroke-width:1;"/></g><text fill="#000000" font-family="Segoe UI" font-size="14" lengthAdjust="spacing" textLength="89.4004" x="47.9023" y="326.5137">Una cuenta de</text><text fill="#000000" font-family="Segoe UI" font-size="14" font-weight="bold" lengthAdjust="spacing" textLength="44.2217" x="141.1377" y="326.5137">ahorro</text><text fill="#000000" font-family="Segoe UI" font-size="14" lengthAdjust="spacing" textLength="22.4355" x="185.3594" y="326.5137">, de</text><text fill="#000000" font-family="Segoe UI" font-size="14" font-weight="bold" lengthAdjust="spacing" textLength="53.5938" x="211.6299" y="326.5137">cheques</text><text fill="#000000" font-family="Segoe UI" font-size="14" lengthAdjust="spacing" textLength="26.1748" x="269.0586" y="326.5137">y de</text><text fill="#000000" font-family="Segoe UI" font-size="14" font-weight="bold" lengthAdjust="spacing" textLength="46.5186" x="299.0684" y="326.5137">cr&#233;dito</text><text fill="#000000" font-family="Segoe UI" font-size="14" lengthAdjust="spacing" textLength="301.4102" x="349.4219" y="326.5137">son tipos o especializaciones de cuenta bancaria,</text><text fill="#000000" font-family="Segoe UI" font-size="14" lengthAdjust="spacing" textLength="368.3818" x="140.1431" y="345.1348">por lo que se pueden generalizar en una clase base llamada</text><text fill="#000000" font-family="Segoe UI" font-size="14" font-weight="bold" lengthAdjust="spacing" textLength="46.2314" x="512.3599" y="345.1348">Cuenta</text><!--SRC=[fLBBJiD03BplLvYUMj72lQegeHuGPyIDYxDnqvMsw-1ra7Xz46S-eJ-6qoIKLkN47YBjZDSpO-SY91-Rag2EcBJPnYlFQHqgvtp4d67LK5A4DmTsBY5ZB7aEwyYeFLHIpJaeodZBIGToCeTd3cLV8wH1_gZuE9QwsR08_mWgPhnBIaBvMDPZz4r4wSdnPA1F-gqszDHGFYJWGgWASfB26unoFv3ZFzojXCgW_xJNptJnFfiTXJv3zExFCPqJvn8hWOHgey3hOLzpM9bhWeeI2SQkIBa-bFHp7Wefr-G3nl2A9JgdGIF1RVVQC1zsNybM3Uqmp8_pM6lW1AE7XE0xKQCNnHBtZHVNnNBQ8xuBqKBmCc2o-spzxy5iZJJORmJysuWt0TjSgze959WyIi3fOwfP839ONp3tTKCbfI6jFHMmQzDQswShsa-CkBLmhNetWbPxvBu1]--></g></svg>