<svg xmlns="http://www.w3.org/2000/svg" xmlns:xlink="http://www.w3.org/1999/xlink" contentStyleType="text/css" data-diagram-type="CLASS" height="316px" preserveAspectRatio="none" style="width:578px;height:316px;" version="1.1" viewBox="0 0 578 316" width="578px" zoomAndPan="magnify"><title>Cardinalidades entre Entidades</title><defs/><g><text fill="#000000" font-family="Segoe UI" font-size="14" font-weight="bold" lengthAdjust="spacing" textLength="203.3623" x="180.6675" y="25.1074">Cardinalidades entre Entidades</text><!--class A--><g id="elem_A"><rect fill="#F1F1F1" height="48" id="A" rx="2.5" ry="2.5" style="stroke:#181818;stroke-width:0.5;" width="39.6973" x="7" y="46.6211"/><ellipse cx="22" cy="62.6211" fill="#ADD1B2" rx="11" ry="11" style="stroke:#181818;stroke-width:1;"/><path d="M24.7656,58.4961 Q24.9219,58.2773 25.1094,58.168 Q25.2969,58.0586 25.5156,58.0586 Q25.8906,58.0586 26.125,58.3242 Q26.3594,58.5742 26.3594,59.1836 L26.3594,60.6367 Q26.3594,61.2461 26.125,61.5117 Q25.8906,61.7773 25.5156,61.7773 Q25.1719,61.7773 24.9688,61.5742 Q24.7656,61.3867 24.6563,60.8711 Q24.6094,60.5117 24.4219,60.3242 Q24.0938,59.9492 23.4844,59.7305 Q22.875,59.5117 22.25,59.5117 Q21.4844,59.5117 20.8438,59.8398 Q20.2188,60.168 19.7188,60.918 Q19.2344,61.668 19.2344,62.6992 L19.2344,63.793 Q19.2344,65.0273 20.125,65.8555 Q21.0156,66.668 22.6094,66.668 Q23.5469,66.668 24.2031,66.418 Q24.5938,66.2617 25.0156,65.8242 Q25.2813,65.5586 25.4219,65.4805 Q25.5781,65.4023 25.7813,65.4023 Q26.1094,65.4023 26.3594,65.668 Q26.625,65.918 26.625,66.2617 Q26.625,66.6055 26.2813,67.0117 Q25.7813,67.5898 24.9844,67.918 Q23.9063,68.3711 22.6094,68.3711 Q21.0938,68.3711 19.8906,67.7461 Q18.9063,67.2461 18.2188,66.1836 Q17.5313,65.1055 17.5313,63.8242 L17.5313,62.668 Q17.5313,61.3398 18.1406,60.1992 Q18.7656,59.043 19.8594,58.4336 Q20.9531,57.8086 22.1875,57.8086 Q22.9219,57.8086 23.5625,57.9805 Q24.2188,58.1367 24.7656,58.4961 Z " fill="#000000"/><text fill="#000000" font-family="Consolas" font-size="14" font-weight="bold" lengthAdjust="spacing" textLength="7.6973" x="36" y="67.2148">A</text><line style="stroke:#181818;stroke-width:0.5;" x1="8" x2="45.6973" y1="78.6211" y2="78.6211"/><line style="stroke:#181818;stroke-width:0.5;" x1="8" x2="45.6973" y1="86.6211" y2="86.6211"/></g><!--class B--><g id="elem_B"><rect fill="#F1F1F1" height="48" id="B" rx="2.5" ry="2.5" style="stroke:#181818;stroke-width:0.5;" width="39.6973" x="7" y="215.6211"/><ellipse cx="22" cy="231.6211" fill="#ADD1B2" rx="11" ry="11" style="stroke:#181818;stroke-width:1;"/><path d="M24.7656,227.4961 Q24.9219,227.2773 25.1094,227.168 Q25.2969,227.0586 25.5156,227.0586 Q25.8906,227.0586 26.125,227.3242 Q26.3594,227.5742 26.3594,228.1836 L26.3594,229.6367 Q26.3594,230.2461 26.125,230.5117 Q25.8906,230.7773 25.5156,230.7773 Q25.1719,230.7773 24.9688,230.5742 Q24.7656,230.3867 24.6563,229.8711 Q24.6094,229.5117 24.4219,229.3242 Q24.0938,228.9492 23.4844,228.7305 Q22.875,228.5117 22.25,228.5117 Q21.4844,228.5117 20.8438,228.8398 Q20.2188,229.168 19.7188,229.918 Q19.2344,230.668 19.2344,231.6992 L19.2344,232.793 Q19.2344,234.0273 20.125,234.8555 Q21.0156,235.668 22.6094,235.668 Q23.5469,235.668 24.2031,235.418 Q24.5938,235.2617 25.0156,234.8242 Q25.2813,234.5586 25.4219,234.4805 Q25.5781,234.4023 25.7813,234.4023 Q26.1094,234.4023 26.3594,234.668 Q26.625,234.918 26.625,235.2617 Q26.625,235.6055 26.2813,236.0117 Q25.7813,236.5898 24.9844,236.918 Q23.9063,237.3711 22.6094,237.3711 Q21.0938,237.3711 19.8906,236.7461 Q18.9063,236.2461 18.2188,235.1836 Q17.5313,234.1055 17.5313,232.8242 L17.5313,231.668 Q17.5313,230.3398 18.1406,229.1992 Q18.7656,228.043 19.8594,227.4336 Q20.9531,226.8086 22.1875,226.8086 Q22.9219,226.8086 23.5625,226.9805 Q24.2188,227.1367 24.7656,227.4961 Z " fill="#000000"/><text fill="#000000" font-family="Consolas" font-size="14" font-weight="bold" lengthAdjust="spacing" textLength="7.6973" x="36" y="236.2148">B</text><line style="stroke:#181818;stroke-width:0.5;" x1="8" x2="45.6973" y1="247.6211" y2="247.6211"/><line style="stroke:#181818;stroke-width:0.5;" x1="8" x2="45.6973" y1="255.6211" y2="255.6211"/></g><!--class C--><g id="elem_C"><rect fill="#F1F1F1" height="48" id="C" rx="2.5" ry="2.5" style="stroke:#181818;stroke-width:0.5;" width="39.6973" x="82" y="46.6211"/><ellipse cx="97" cy="62.6211" fill="#ADD1B2" rx="11" ry="11" style="stroke:#181818;stroke-width:1;"/><path d="M99.7656,58.4961 Q99.9219,58.2773 100.1094,58.168 Q100.2969,58.0586 100.5156,58.0586 Q100.8906,58.0586 101.125,58.3242 Q101.3594,58.5742 101.3594,59.1836 L101.3594,60.6367 Q101.3594,61.2461 101.125,61.5117 Q100.8906,61.7773 100.5156,61.7773 Q100.1719,61.7773 99.9688,61.5742 Q99.7656,61.3867 99.6563,60.8711 Q99.6094,60.5117 99.4219,60.3242 Q99.0938,59.9492 98.4844,59.7305 Q97.875,59.5117 97.25,59.5117 Q96.4844,59.5117 95.8438,59.8398 Q95.2188,60.168 94.7188,60.918 Q94.2344,61.668 94.2344,62.6992 L94.2344,63.793 Q94.2344,65.0273 95.125,65.8555 Q96.0156,66.668 97.6094,66.668 Q98.5469,66.668 99.2031,66.418 Q99.5938,66.2617 100.0156,65.8242 Q100.2813,65.5586 100.4219,65.4805 Q100.5781,65.4023 100.7813,65.4023 Q101.1094,65.4023 101.3594,65.668 Q101.625,65.918 101.625,66.2617 Q101.625,66.6055 101.2813,67.0117 Q100.7813,67.5898 99.9844,67.918 Q98.9063,68.3711 97.6094,68.3711 Q96.0938,68.3711 94.8906,67.7461 Q93.9063,67.2461 93.2188,66.1836 Q92.5313,65.1055 92.5313,63.8242 L92.5313,62.668 Q92.5313,61.3398 93.1406,60.1992 Q93.7656,59.043 94.8594,58.4336 Q95.9531,57.8086 97.1875,57.8086 Q97.9219,57.8086 98.5625,57.9805 Q99.2188,58.1367 99.7656,58.4961 Z " fill="#000000"/><text fill="#000000" font-family="Consolas" font-size="14" font-weight="bold" lengthAdjust="spacing" textLength="7.6973" x="111" y="67.2148">C</text><line style="stroke:#181818;stroke-width:0.5;" x1="83" x2="120.6973" y1="78.6211" y2="78.6211"/><line style="stroke:#181818;stroke-width:0.5;" x1="83" x2="120.6973" y1="86.6211" y2="86.6211"/></g><!--class D--><g id="elem_D"><rect fill="#F1F1F1" height="48" id="D" rx="2.5" ry="2.5" style="stroke:#181818;stroke-width:0.5;" width="39.6973" x="82" y="215.6211"/><ellipse cx="97" cy="231.6211" fill="#ADD1B2" rx="11" ry="11" style="stroke:#181818;stroke-width:1;"/><path d="M99.7656,227.4961 Q99.9219,227.2773 100.1094,227.168 Q100.2969,227.0586 100.5156,227.0586 Q100.8906,227.0586 101.125,227.3242 Q101.3594,227.5742 101.3594,228.1836 L101.3594,229.6367 Q101.3594,230.2461 101.125,230.5117 Q100.8906,230.7773 100.5156,230.7773 Q100.1719,230.7773 99.9688,230.5742 Q99.7656,230.3867 99.6563,229.8711 Q99.6094,229.5117 99.4219,229.3242 Q99.0938,228.9492 98.4844,228.7305 Q97.875,228.5117 97.25,228.5117 Q96.4844,228.5117 95.8438,228.8398 Q95.2188,229.168 94.7188,229.918 Q94.2344,230.668 94.2344,231.6992 L94.2344,232.793 Q94.2344,234.0273 95.125,234.8555 Q96.0156,235.668 97.6094,235.668 Q98.5469,235.668 99.2031,235.418 Q99.5938,235.2617 100.0156,234.8242 Q100.2813,234.5586 100.4219,234.4805 Q100.5781,234.4023 100.7813,234.4023 Q101.1094,234.4023 101.3594,234.668 Q101.625,234.918 101.625,235.2617 Q101.625,235.6055 101.2813,236.0117 Q100.7813,236.5898 99.9844,236.918 Q98.9063,237.3711 97.6094,237.3711 Q96.0938,237.3711 94.8906,236.7461 Q93.9063,236.2461 93.2188,235.1836 Q92.5313,234.1055 92.5313,232.8242 L92.5313,231.668 Q92.5313,230.3398 93.1406,229.1992 Q93.7656,228.043 94.8594,227.4336 Q95.9531,226.8086 97.1875,226.8086 Q97.9219,226.8086 98.5625,226.9805 Q99.2188,227.1367 99.7656,227.4961 Z " fill="#000000"/><text fill="#000000" font-family="Consolas" font-size="14" font-weight="bold" lengthAdjust="spacing" textLength="7.6973" x="111" y="236.2148">D</text><line style="stroke:#181818;stroke-width:0.5;" x1="83" x2="120.6973" y1="247.6211" y2="247.6211"/><line style="stroke:#181818;stroke-width:0.5;" x1="83" x2="120.6973" y1="255.6211" y2="255.6211"/></g><!--class E--><g id="elem_E"><rect fill="#F1F1F1" height="48" id="E" rx="2.5" ry="2.5" style="stroke:#181818;stroke-width:0.5;" width="39.6973" x="157" y="46.6211"/><ellipse cx="172" cy="62.6211" fill="#ADD1B2" rx="11" ry="11" style="stroke:#181818;stroke-width:1;"/><path d="M174.7656,58.4961 Q174.9219,58.2773 175.1094,58.168 Q175.2969,58.0586 175.5156,58.0586 Q175.8906,58.0586 176.125,58.3242 Q176.3594,58.5742 176.3594,59.1836 L176.3594,60.6367 Q176.3594,61.2461 176.125,61.5117 Q175.8906,61.7773 175.5156,61.7773 Q175.1719,61.7773 174.9688,61.5742 Q174.7656,61.3867 174.6563,60.8711 Q174.6094,60.5117 174.4219,60.3242 Q174.0938,59.9492 173.4844,59.7305 Q172.875,59.5117 172.25,59.5117 Q171.4844,59.5117 170.8438,59.8398 Q170.2188,60.168 169.7188,60.918 Q169.2344,61.668 169.2344,62.6992 L169.2344,63.793 Q169.2344,65.0273 170.125,65.8555 Q171.0156,66.668 172.6094,66.668 Q173.5469,66.668 174.2031,66.418 Q174.5938,66.2617 175.0156,65.8242 Q175.2813,65.5586 175.4219,65.4805 Q175.5781,65.4023 175.7813,65.4023 Q176.1094,65.4023 176.3594,65.668 Q176.625,65.918 176.625,66.2617 Q176.625,66.6055 176.2813,67.0117 Q175.7813,67.5898 174.9844,67.918 Q173.9063,68.3711 172.6094,68.3711 Q171.0938,68.3711 169.8906,67.7461 Q168.9063,67.2461 168.2188,66.1836 Q167.5313,65.1055 167.5313,63.8242 L167.5313,62.668 Q167.5313,61.3398 168.1406,60.1992 Q168.7656,59.043 169.8594,58.4336 Q170.9531,57.8086 172.1875,57.8086 Q172.9219,57.8086 173.5625,57.9805 Q174.2188,58.1367 174.7656,58.4961 Z " fill="#000000"/><text fill="#000000" font-family="Consolas" font-size="14" font-weight="bold" lengthAdjust="spacing" textLength="7.6973" x="186" y="67.2148">E</text><line style="stroke:#181818;stroke-width:0.5;" x1="158" x2="195.6973" y1="78.6211" y2="78.6211"/><line style="stroke:#181818;stroke-width:0.5;" x1="158" x2="195.6973" y1="86.6211" y2="86.6211"/></g><!--class F--><g id="elem_F"><rect fill="#F1F1F1" height="48" id="F" rx="2.5" ry="2.5" style="stroke:#181818;stroke-width:0.5;" width="39.6973" x="157" y="215.6211"/><ellipse cx="172" cy="231.6211" fill="#ADD1B2" rx="11" ry="11" style="stroke:#181818;stroke-width:1;"/><path d="M174.7656,227.4961 Q174.9219,227.2773 175.1094,227.168 Q175.2969,227.0586 175.5156,227.0586 Q175.8906,227.0586 176.125,227.3242 Q176.3594,227.5742 176.3594,228.1836 L176.3594,229.6367 Q176.3594,230.2461 176.125,230.5117 Q175.8906,230.7773 175.5156,230.7773 Q175.1719,230.7773 174.9688,230.5742 Q174.7656,230.3867 174.6563,229.8711 Q174.6094,229.5117 174.4219,229.3242 Q174.0938,228.9492 173.4844,228.7305 Q172.875,228.5117 172.25,228.5117 Q171.4844,228.5117 170.8438,228.8398 Q170.2188,229.168 169.7188,229.918 Q169.2344,230.668 169.2344,231.6992 L169.2344,232.793 Q169.2344,234.0273 170.125,234.8555 Q171.0156,235.668 172.6094,235.668 Q173.5469,235.668 174.2031,235.418 Q174.5938,235.2617 175.0156,234.8242 Q175.2813,234.5586 175.4219,234.4805 Q175.5781,234.4023 175.7813,234.4023 Q176.1094,234.4023 176.3594,234.668 Q176.625,234.918 176.625,235.2617 Q176.625,235.6055 176.2813,236.0117 Q175.7813,236.5898 174.9844,236.918 Q173.9063,237.3711 172.6094,237.3711 Q171.0938,237.3711 169.8906,236.7461 Q168.9063,236.2461 168.2188,235.1836 Q167.5313,234.1055 167.5313,232.8242 L167.5313,231.668 Q167.5313,230.3398 168.1406,229.1992 Q168.7656,228.043 169.8594,227.4336 Q170.9531,226.8086 172.1875,226.8086 Q172.9219,226.8086 173.5625,226.9805 Q174.2188,227.1367 174.7656,227.4961 Z " fill="#000000"/><text fill="#000000" font-family="Consolas" font-size="14" font-weight="bold" lengthAdjust="spacing" textLength="7.6973" x="186" y="236.2148">F</text><line style="stroke:#181818;stroke-width:0.5;" x1="158" x2="195.6973" y1="247.6211" y2="247.6211"/><line style="stroke:#181818;stroke-width:0.5;" x1="158" x2="195.6973" y1="255.6211" y2="255.6211"/></g><!--class G--><g id="elem_G"><rect fill="#F1F1F1" height="48" id="G" rx="2.5" ry="2.5" style="stroke:#181818;stroke-width:0.5;" width="39.6973" x="232" y="46.6211"/><ellipse cx="247" cy="62.6211" fill="#ADD1B2" rx="11" ry="11" style="stroke:#181818;stroke-width:1;"/><path d="M249.7656,58.4961 Q249.9219,58.2773 250.1094,58.168 Q250.2969,58.0586 250.5156,58.0586 Q250.8906,58.0586 251.125,58.3242 Q251.3594,58.5742 251.3594,59.1836 L251.3594,60.6367 Q251.3594,61.2461 251.125,61.5117 Q250.8906,61.7773 250.5156,61.7773 Q250.1719,61.7773 249.9688,61.5742 Q249.7656,61.3867 249.6563,60.8711 Q249.6094,60.5117 249.4219,60.3242 Q249.0938,59.9492 248.4844,59.7305 Q247.875,59.5117 247.25,59.5117 Q246.4844,59.5117 245.8438,59.8398 Q245.2188,60.168 244.7188,60.918 Q244.2344,61.668 244.2344,62.6992 L244.2344,63.793 Q244.2344,65.0273 245.125,65.8555 Q246.0156,66.668 247.6094,66.668 Q248.5469,66.668 249.2031,66.418 Q249.5938,66.2617 250.0156,65.8242 Q250.2813,65.5586 250.4219,65.4805 Q250.5781,65.4023 250.7813,65.4023 Q251.1094,65.4023 251.3594,65.668 Q251.625,65.918 251.625,66.2617 Q251.625,66.6055 251.2813,67.0117 Q250.7813,67.5898 249.9844,67.918 Q248.9063,68.3711 247.6094,68.3711 Q246.0938,68.3711 244.8906,67.7461 Q243.9063,67.2461 243.2188,66.1836 Q242.5313,65.1055 242.5313,63.8242 L242.5313,62.668 Q242.5313,61.3398 243.1406,60.1992 Q243.7656,59.043 244.8594,58.4336 Q245.9531,57.8086 247.1875,57.8086 Q247.9219,57.8086 248.5625,57.9805 Q249.2188,58.1367 249.7656,58.4961 Z " fill="#000000"/><text fill="#000000" font-family="Consolas" font-size="14" font-weight="bold" lengthAdjust="spacing" textLength="7.6973" x="261" y="67.2148">G</text><line style="stroke:#181818;stroke-width:0.5;" x1="233" x2="270.6973" y1="78.6211" y2="78.6211"/><line style="stroke:#181818;stroke-width:0.5;" x1="233" x2="270.6973" y1="86.6211" y2="86.6211"/></g><!--class H--><g id="elem_H"><rect fill="#F1F1F1" height="48" id="H" rx="2.5" ry="2.5" style="stroke:#181818;stroke-width:0.5;" width="39.6973" x="232" y="215.6211"/><ellipse cx="247" cy="231.6211" fill="#ADD1B2" rx="11" ry="11" style="stroke:#181818;stroke-width:1;"/><path d="M249.7656,227.4961 Q249.9219,227.2773 250.1094,227.168 Q250.2969,227.0586 250.5156,227.0586 Q250.8906,227.0586 251.125,227.3242 Q251.3594,227.5742 251.3594,228.1836 L251.3594,229.6367 Q251.3594,230.2461 251.125,230.5117 Q250.8906,230.7773 250.5156,230.7773 Q250.1719,230.7773 249.9688,230.5742 Q249.7656,230.3867 249.6563,229.8711 Q249.6094,229.5117 249.4219,229.3242 Q249.0938,228.9492 248.4844,228.7305 Q247.875,228.5117 247.25,228.5117 Q246.4844,228.5117 245.8438,228.8398 Q245.2188,229.168 244.7188,229.918 Q244.2344,230.668 244.2344,231.6992 L244.2344,232.793 Q244.2344,234.0273 245.125,234.8555 Q246.0156,235.668 247.6094,235.668 Q248.5469,235.668 249.2031,235.418 Q249.5938,235.2617 250.0156,234.8242 Q250.2813,234.5586 250.4219,234.4805 Q250.5781,234.4023 250.7813,234.4023 Q251.1094,234.4023 251.3594,234.668 Q251.625,234.918 251.625,235.2617 Q251.625,235.6055 251.2813,236.0117 Q250.7813,236.5898 249.9844,236.918 Q248.9063,237.3711 247.6094,237.3711 Q246.0938,237.3711 244.8906,236.7461 Q243.9063,236.2461 243.2188,235.1836 Q242.5313,234.1055 242.5313,232.8242 L242.5313,231.668 Q242.5313,230.3398 243.1406,229.1992 Q243.7656,228.043 244.8594,227.4336 Q245.9531,226.8086 247.1875,226.8086 Q247.9219,226.8086 248.5625,226.9805 Q249.2188,227.1367 249.7656,227.4961 Z " fill="#000000"/><text fill="#000000" font-family="Consolas" font-size="14" font-weight="bold" lengthAdjust="spacing" textLength="7.6973" x="261" y="236.2148">H</text><line style="stroke:#181818;stroke-width:0.5;" x1="233" x2="270.6973" y1="247.6211" y2="247.6211"/><line style="stroke:#181818;stroke-width:0.5;" x1="233" x2="270.6973" y1="255.6211" y2="255.6211"/></g><!--class I--><g id="elem_I"><rect fill="#F1F1F1" height="48" id="I" rx="2.5" ry="2.5" style="stroke:#181818;stroke-width:0.5;" width="39.6973" x="307" y="46.6211"/><ellipse cx="322" cy="62.6211" fill="#ADD1B2" rx="11" ry="11" style="stroke:#181818;stroke-width:1;"/><path d="M324.7656,58.4961 Q324.9219,58.2773 325.1094,58.168 Q325.2969,58.0586 325.5156,58.0586 Q325.8906,58.0586 326.125,58.3242 Q326.3594,58.5742 326.3594,59.1836 L326.3594,60.6367 Q326.3594,61.2461 326.125,61.5117 Q325.8906,61.7773 325.5156,61.7773 Q325.1719,61.7773 324.9688,61.5742 Q324.7656,61.3867 324.6563,60.8711 Q324.6094,60.5117 324.4219,60.3242 Q324.0938,59.9492 323.4844,59.7305 Q322.875,59.5117 322.25,59.5117 Q321.4844,59.5117 320.8438,59.8398 Q320.2188,60.168 319.7188,60.918 Q319.2344,61.668 319.2344,62.6992 L319.2344,63.793 Q319.2344,65.0273 320.125,65.8555 Q321.0156,66.668 322.6094,66.668 Q323.5469,66.668 324.2031,66.418 Q324.5938,66.2617 325.0156,65.8242 Q325.2813,65.5586 325.4219,65.4805 Q325.5781,65.4023 325.7813,65.4023 Q326.1094,65.4023 326.3594,65.668 Q326.625,65.918 326.625,66.2617 Q326.625,66.6055 326.2813,67.0117 Q325.7813,67.5898 324.9844,67.918 Q323.9063,68.3711 322.6094,68.3711 Q321.0938,68.3711 319.8906,67.7461 Q318.9063,67.2461 318.2188,66.1836 Q317.5313,65.1055 317.5313,63.8242 L317.5313,62.668 Q317.5313,61.3398 318.1406,60.1992 Q318.7656,59.043 319.8594,58.4336 Q320.9531,57.8086 322.1875,57.8086 Q322.9219,57.8086 323.5625,57.9805 Q324.2188,58.1367 324.7656,58.4961 Z " fill="#000000"/><text fill="#000000" font-family="Consolas" font-size="14" font-weight="bold" lengthAdjust="spacing" textLength="7.6973" x="336" y="67.2148">I</text><line style="stroke:#181818;stroke-width:0.5;" x1="308" x2="345.6973" y1="78.6211" y2="78.6211"/><line style="stroke:#181818;stroke-width:0.5;" x1="308" x2="345.6973" y1="86.6211" y2="86.6211"/></g><!--class J--><g id="elem_J"><rect fill="#F1F1F1" height="48" id="J" rx="2.5" ry="2.5" style="stroke:#181818;stroke-width:0.5;" width="39.6973" x="307" y="215.6211"/><ellipse cx="322" cy="231.6211" fill="#ADD1B2" rx="11" ry="11" style="stroke:#181818;stroke-width:1;"/><path d="M324.7656,227.4961 Q324.9219,227.2773 325.1094,227.168 Q325.2969,227.0586 325.5156,227.0586 Q325.8906,227.0586 326.125,227.3242 Q326.3594,227.5742 326.3594,228.1836 L326.3594,229.6367 Q326.3594,230.2461 326.125,230.5117 Q325.8906,230.7773 325.5156,230.7773 Q325.1719,230.7773 324.9688,230.5742 Q324.7656,230.3867 324.6563,229.8711 Q324.6094,229.5117 324.4219,229.3242 Q324.0938,228.9492 323.4844,228.7305 Q322.875,228.5117 322.25,228.5117 Q321.4844,228.5117 320.8438,228.8398 Q320.2188,229.168 319.7188,229.918 Q319.2344,230.668 319.2344,231.6992 L319.2344,232.793 Q319.2344,234.0273 320.125,234.8555 Q321.0156,235.668 322.6094,235.668 Q323.5469,235.668 324.2031,235.418 Q324.5938,235.2617 325.0156,234.8242 Q325.2813,234.5586 325.4219,234.4805 Q325.5781,234.4023 325.7813,234.4023 Q326.1094,234.4023 326.3594,234.668 Q326.625,234.918 326.625,235.2617 Q326.625,235.6055 326.2813,236.0117 Q325.7813,236.5898 324.9844,236.918 Q323.9063,237.3711 322.6094,237.3711 Q321.0938,237.3711 319.8906,236.7461 Q318.9063,236.2461 318.2188,235.1836 Q317.5313,234.1055 317.5313,232.8242 L317.5313,231.668 Q317.5313,230.3398 318.1406,229.1992 Q318.7656,228.043 319.8594,227.4336 Q320.9531,226.8086 322.1875,226.8086 Q322.9219,226.8086 323.5625,226.9805 Q324.2188,227.1367 324.7656,227.4961 Z " fill="#000000"/><text fill="#000000" font-family="Consolas" font-size="14" font-weight="bold" lengthAdjust="spacing" textLength="7.6973" x="336" y="236.2148">J</text><line style="stroke:#181818;stroke-width:0.5;" x1="308" x2="345.6973" y1="247.6211" y2="247.6211"/><line style="stroke:#181818;stroke-width:0.5;" x1="308" x2="345.6973" y1="255.6211" y2="255.6211"/></g><!--class K--><g id="elem_K"><rect fill="#F1F1F1" height="48" id="K" rx="2.5" ry="2.5" style="stroke:#181818;stroke-width:0.5;" width="39.6973" x="382" y="46.6211"/><ellipse cx="397" cy="62.6211" fill="#ADD1B2" rx="11" ry="11" style="stroke:#181818;stroke-width:1;"/><path d="M399.7656,58.4961 Q399.9219,58.2773 400.1094,58.168 Q400.2969,58.0586 400.5156,58.0586 Q400.8906,58.0586 401.125,58.3242 Q401.3594,58.5742 401.3594,59.1836 L401.3594,60.6367 Q401.3594,61.2461 401.125,61.5117 Q400.8906,61.7773 400.5156,61.7773 Q400.1719,61.7773 399.9688,61.5742 Q399.7656,61.3867 399.6563,60.8711 Q399.6094,60.5117 399.4219,60.3242 Q399.0938,59.9492 398.4844,59.7305 Q397.875,59.5117 397.25,59.5117 Q396.4844,59.5117 395.8438,59.8398 Q395.2188,60.168 394.7188,60.918 Q394.2344,61.668 394.2344,62.6992 L394.2344,63.793 Q394.2344,65.0273 395.125,65.8555 Q396.0156,66.668 397.6094,66.668 Q398.5469,66.668 399.2031,66.418 Q399.5938,66.2617 400.0156,65.8242 Q400.2813,65.5586 400.4219,65.4805 Q400.5781,65.4023 400.7813,65.4023 Q401.1094,65.4023 401.3594,65.668 Q401.625,65.918 401.625,66.2617 Q401.625,66.6055 401.2813,67.0117 Q400.7813,67.5898 399.9844,67.918 Q398.9063,68.3711 397.6094,68.3711 Q396.0938,68.3711 394.8906,67.7461 Q393.9063,67.2461 393.2188,66.1836 Q392.5313,65.1055 392.5313,63.8242 L392.5313,62.668 Q392.5313,61.3398 393.1406,60.1992 Q393.7656,59.043 394.8594,58.4336 Q395.9531,57.8086 397.1875,57.8086 Q397.9219,57.8086 398.5625,57.9805 Q399.2188,58.1367 399.7656,58.4961 Z " fill="#000000"/><text fill="#000000" font-family="Consolas" font-size="14" font-weight="bold" lengthAdjust="spacing" textLength="7.6973" x="411" y="67.2148">K</text><line style="stroke:#181818;stroke-width:0.5;" x1="383" x2="420.6973" y1="78.6211" y2="78.6211"/><line style="stroke:#181818;stroke-width:0.5;" x1="383" x2="420.6973" y1="86.6211" y2="86.6211"/></g><!--class L--><g id="elem_L"><rect fill="#F1F1F1" height="48" id="L" rx="2.5" ry="2.5" style="stroke:#181818;stroke-width:0.5;" width="39.6973" x="382" y="215.6211"/><ellipse cx="397" cy="231.6211" fill="#ADD1B2" rx="11" ry="11" style="stroke:#181818;stroke-width:1;"/><path d="M399.7656,227.4961 Q399.9219,227.2773 400.1094,227.168 Q400.2969,227.0586 400.5156,227.0586 Q400.8906,227.0586 401.125,227.3242 Q401.3594,227.5742 401.3594,228.1836 L401.3594,229.6367 Q401.3594,230.2461 401.125,230.5117 Q400.8906,230.7773 400.5156,230.7773 Q400.1719,230.7773 399.9688,230.5742 Q399.7656,230.3867 399.6563,229.8711 Q399.6094,229.5117 399.4219,229.3242 Q399.0938,228.9492 398.4844,228.7305 Q397.875,228.5117 397.25,228.5117 Q396.4844,228.5117 395.8438,228.8398 Q395.2188,229.168 394.7188,229.918 Q394.2344,230.668 394.2344,231.6992 L394.2344,232.793 Q394.2344,234.0273 395.125,234.8555 Q396.0156,235.668 397.6094,235.668 Q398.5469,235.668 399.2031,235.418 Q399.5938,235.2617 400.0156,234.8242 Q400.2813,234.5586 400.4219,234.4805 Q400.5781,234.4023 400.7813,234.4023 Q401.1094,234.4023 401.3594,234.668 Q401.625,234.918 401.625,235.2617 Q401.625,235.6055 401.2813,236.0117 Q400.7813,236.5898 399.9844,236.918 Q398.9063,237.3711 397.6094,237.3711 Q396.0938,237.3711 394.8906,236.7461 Q393.9063,236.2461 393.2188,235.1836 Q392.5313,234.1055 392.5313,232.8242 L392.5313,231.668 Q392.5313,230.3398 393.1406,229.1992 Q393.7656,228.043 394.8594,227.4336 Q395.9531,226.8086 397.1875,226.8086 Q397.9219,226.8086 398.5625,226.9805 Q399.2188,227.1367 399.7656,227.4961 Z " fill="#000000"/><text fill="#000000" font-family="Consolas" font-size="14" font-weight="bold" lengthAdjust="spacing" textLength="7.6973" x="411" y="236.2148">L</text><line style="stroke:#181818;stroke-width:0.5;" x1="383" x2="420.6973" y1="247.6211" y2="247.6211"/><line style="stroke:#181818;stroke-width:0.5;" x1="383" x2="420.6973" y1="255.6211" y2="255.6211"/></g><!--class M--><g id="elem_M"><rect fill="#F1F1F1" height="48" id="M" rx="2.5" ry="2.5" style="stroke:#181818;stroke-width:0.5;" width="39.6973" x="457" y="46.6211"/><ellipse cx="472" cy="62.6211" fill="#ADD1B2" rx="11" ry="11" style="stroke:#181818;stroke-width:1;"/><path d="M474.7656,58.4961 Q474.9219,58.2773 475.1094,58.168 Q475.2969,58.0586 475.5156,58.0586 Q475.8906,58.0586 476.125,58.3242 Q476.3594,58.5742 476.3594,59.1836 L476.3594,60.6367 Q476.3594,61.2461 476.125,61.5117 Q475.8906,61.7773 475.5156,61.7773 Q475.1719,61.7773 474.9688,61.5742 Q474.7656,61.3867 474.6563,60.8711 Q474.6094,60.5117 474.4219,60.3242 Q474.0938,59.9492 473.4844,59.7305 Q472.875,59.5117 472.25,59.5117 Q471.4844,59.5117 470.8438,59.8398 Q470.2188,60.168 469.7188,60.918 Q469.2344,61.668 469.2344,62.6992 L469.2344,63.793 Q469.2344,65.0273 470.125,65.8555 Q471.0156,66.668 472.6094,66.668 Q473.5469,66.668 474.2031,66.418 Q474.5938,66.2617 475.0156,65.8242 Q475.2813,65.5586 475.4219,65.4805 Q475.5781,65.4023 475.7813,65.4023 Q476.1094,65.4023 476.3594,65.668 Q476.625,65.918 476.625,66.2617 Q476.625,66.6055 476.2813,67.0117 Q475.7813,67.5898 474.9844,67.918 Q473.9063,68.3711 472.6094,68.3711 Q471.0938,68.3711 469.8906,67.7461 Q468.9063,67.2461 468.2188,66.1836 Q467.5313,65.1055 467.5313,63.8242 L467.5313,62.668 Q467.5313,61.3398 468.1406,60.1992 Q468.7656,59.043 469.8594,58.4336 Q470.9531,57.8086 472.1875,57.8086 Q472.9219,57.8086 473.5625,57.9805 Q474.2188,58.1367 474.7656,58.4961 Z " fill="#000000"/><text fill="#000000" font-family="Consolas" font-size="14" font-weight="bold" lengthAdjust="spacing" textLength="7.6973" x="486" y="67.2148">M</text><line style="stroke:#181818;stroke-width:0.5;" x1="458" x2="495.6973" y1="78.6211" y2="78.6211"/><line style="stroke:#181818;stroke-width:0.5;" x1="458" x2="495.6973" y1="86.6211" y2="86.6211"/></g><!--class N--><g id="elem_N"><rect fill="#F1F1F1" height="48" id="N" rx="2.5" ry="2.5" style="stroke:#181818;stroke-width:0.5;" width="39.6973" x="457" y="215.6211"/><ellipse cx="472" cy="231.6211" fill="#ADD1B2" rx="11" ry="11" style="stroke:#181818;stroke-width:1;"/><path d="M474.7656,227.4961 Q474.9219,227.2773 475.1094,227.168 Q475.2969,227.0586 475.5156,227.0586 Q475.8906,227.0586 476.125,227.3242 Q476.3594,227.5742 476.3594,228.1836 L476.3594,229.6367 Q476.3594,230.2461 476.125,230.5117 Q475.8906,230.7773 475.5156,230.7773 Q475.1719,230.7773 474.9688,230.5742 Q474.7656,230.3867 474.6563,229.8711 Q474.6094,229.5117 474.4219,229.3242 Q474.0938,228.9492 473.4844,228.7305 Q472.875,228.5117 472.25,228.5117 Q471.4844,228.5117 470.8438,228.8398 Q470.2188,229.168 469.7188,229.918 Q469.2344,230.668 469.2344,231.6992 L469.2344,232.793 Q469.2344,234.0273 470.125,234.8555 Q471.0156,235.668 472.6094,235.668 Q473.5469,235.668 474.2031,235.418 Q474.5938,235.2617 475.0156,234.8242 Q475.2813,234.5586 475.4219,234.4805 Q475.5781,234.4023 475.7813,234.4023 Q476.1094,234.4023 476.3594,234.668 Q476.625,234.918 476.625,235.2617 Q476.625,235.6055 476.2813,236.0117 Q475.7813,236.5898 474.9844,236.918 Q473.9063,237.3711 472.6094,237.3711 Q471.0938,237.3711 469.8906,236.7461 Q468.9063,236.2461 468.2188,235.1836 Q467.5313,234.1055 467.5313,232.8242 L467.5313,231.668 Q467.5313,230.3398 468.1406,229.1992 Q468.7656,228.043 469.8594,227.4336 Q470.9531,226.8086 472.1875,226.8086 Q472.9219,226.8086 473.5625,226.9805 Q474.2188,227.1367 474.7656,227.4961 Z " fill="#000000"/><text fill="#000000" font-family="Consolas" font-size="14" font-weight="bold" lengthAdjust="spacing" textLength="7.6973" x="486" y="236.2148">N</text><line style="stroke:#181818;stroke-width:0.5;" x1="458" x2="495.6973" y1="247.6211" y2="247.6211"/><line style="stroke:#181818;stroke-width:0.5;" x1="458" x2="495.6973" y1="255.6211" y2="255.6211"/></g><!--class O--><g id="elem_O"><rect fill="#F1F1F1" height="48" id="O" rx="2.5" ry="2.5" style="stroke:#181818;stroke-width:0.5;" width="39.6973" x="532" y="46.6211"/><ellipse cx="547" cy="62.6211" fill="#ADD1B2" rx="11" ry="11" style="stroke:#181818;stroke-width:1;"/><path d="M549.7656,58.4961 Q549.9219,58.2773 550.1094,58.168 Q550.2969,58.0586 550.5156,58.0586 Q550.8906,58.0586 551.125,58.3242 Q551.3594,58.5742 551.3594,59.1836 L551.3594,60.6367 Q551.3594,61.2461 551.125,61.5117 Q550.8906,61.7773 550.5156,61.7773 Q550.1719,61.7773 549.9688,61.5742 Q549.7656,61.3867 549.6563,60.8711 Q549.6094,60.5117 549.4219,60.3242 Q549.0938,59.9492 548.4844,59.7305 Q547.875,59.5117 547.25,59.5117 Q546.4844,59.5117 545.8438,59.8398 Q545.2188,60.168 544.7188,60.918 Q544.2344,61.668 544.2344,62.6992 L544.2344,63.793 Q544.2344,65.0273 545.125,65.8555 Q546.0156,66.668 547.6094,66.668 Q548.5469,66.668 549.2031,66.418 Q549.5938,66.2617 550.0156,65.8242 Q550.2813,65.5586 550.4219,65.4805 Q550.5781,65.4023 550.7813,65.4023 Q551.1094,65.4023 551.3594,65.668 Q551.625,65.918 551.625,66.2617 Q551.625,66.6055 551.2813,67.0117 Q550.7813,67.5898 549.9844,67.918 Q548.9063,68.3711 547.6094,68.3711 Q546.0938,68.3711 544.8906,67.7461 Q543.9063,67.2461 543.2188,66.1836 Q542.5313,65.1055 542.5313,63.8242 L542.5313,62.668 Q542.5313,61.3398 543.1406,60.1992 Q543.7656,59.043 544.8594,58.4336 Q545.9531,57.8086 547.1875,57.8086 Q547.9219,57.8086 548.5625,57.9805 Q549.2188,58.1367 549.7656,58.4961 Z " fill="#000000"/><text fill="#000000" font-family="Consolas" font-size="14" font-weight="bold" lengthAdjust="spacing" textLength="7.6973" x="561" y="67.2148">O</text><line style="stroke:#181818;stroke-width:0.5;" x1="533" x2="570.6973" y1="78.6211" y2="78.6211"/><line style="stroke:#181818;stroke-width:0.5;" x1="533" x2="570.6973" y1="86.6211" y2="86.6211"/></g><!--class P--><g id="elem_P"><rect fill="#F1F1F1" height="48" id="P" rx="2.5" ry="2.5" style="stroke:#181818;stroke-width:0.5;" width="39.6973" x="532" y="215.6211"/><ellipse cx="547" cy="231.6211" fill="#ADD1B2" rx="11" ry="11" style="stroke:#181818;stroke-width:1;"/><path d="M549.7656,227.4961 Q549.9219,227.2773 550.1094,227.168 Q550.2969,227.0586 550.5156,227.0586 Q550.8906,227.0586 551.125,227.3242 Q551.3594,227.5742 551.3594,228.1836 L551.3594,229.6367 Q551.3594,230.2461 551.125,230.5117 Q550.8906,230.7773 550.5156,230.7773 Q550.1719,230.7773 549.9688,230.5742 Q549.7656,230.3867 549.6563,229.8711 Q549.6094,229.5117 549.4219,229.3242 Q549.0938,228.9492 548.4844,228.7305 Q547.875,228.5117 547.25,228.5117 Q546.4844,228.5117 545.8438,228.8398 Q545.2188,229.168 544.7188,229.918 Q544.2344,230.668 544.2344,231.6992 L544.2344,232.793 Q544.2344,234.0273 545.125,234.8555 Q546.0156,235.668 547.6094,235.668 Q548.5469,235.668 549.2031,235.418 Q549.5938,235.2617 550.0156,234.8242 Q550.2813,234.5586 550.4219,234.4805 Q550.5781,234.4023 550.7813,234.4023 Q551.1094,234.4023 551.3594,234.668 Q551.625,234.918 551.625,235.2617 Q551.625,235.6055 551.2813,236.0117 Q550.7813,236.5898 549.9844,236.918 Q548.9063,237.3711 547.6094,237.3711 Q546.0938,237.3711 544.8906,236.7461 Q543.9063,236.2461 543.2188,235.1836 Q542.5313,234.1055 542.5313,232.8242 L542.5313,231.668 Q542.5313,230.3398 543.1406,229.1992 Q543.7656,228.043 544.8594,227.4336 Q545.9531,226.8086 547.1875,226.8086 Q547.9219,226.8086 548.5625,226.9805 Q549.2188,227.1367 549.7656,227.4961 Z " fill="#000000"/><text fill="#000000" font-family="Consolas" font-size="14" font-weight="bold" lengthAdjust="spacing" textLength="7.6973" x="561" y="236.2148">P</text><line style="stroke:#181818;stroke-width:0.5;" x1="533" x2="570.6973" y1="247.6211" y2="247.6211"/><line style="stroke:#181818;stroke-width:0.5;" x1="533" x2="570.6973" y1="255.6211" y2="255.6211"/></g><!--link A to B--><g id="link_A_B"><path codeLine="3" d="M27,94.8411 C27,126.7511 27,183.7911 27,215.6011 " fill="transparent" id="A-B" style="stroke:#181818;stroke-width:1;"/><text fill="#000000" font-family="Consolas" font-size="13" lengthAdjust="spacing" textLength="7.1475" x="19.2017" y="114.4763">1</text><text fill="#000000" font-family="Consolas" font-size="13" lengthAdjust="spacing" textLength="7.1475" x="19.1608" y="204.429">1</text></g><!--link C to D--><g id="link_C_D"><path codeLine="4" d="M102,94.8411 C102,126.7511 102,183.7911 102,215.6011 " fill="transparent" id="C-D" style="stroke:#181818;stroke-width:1;"/><text fill="#000000" font-family="Consolas" font-size="13" lengthAdjust="spacing" textLength="7.1475" x="94.2017" y="114.4763">1</text><text fill="#000000" font-family="Consolas" font-size="13" lengthAdjust="spacing" textLength="28.5898" x="70.5269" y="204.429">0..1</text></g><!--link E to F--><g id="link_E_F"><path codeLine="5" d="M177,94.8411 C177,126.7511 177,183.7911 177,215.6011 " fill="transparent" id="E-F" style="stroke:#181818;stroke-width:1;"/><text fill="#000000" font-family="Consolas" font-size="13" lengthAdjust="spacing" textLength="7.1475" x="169.2017" y="114.4763">1</text><text fill="#000000" font-family="Consolas" font-size="13" lengthAdjust="spacing" textLength="7.1475" x="169.1608" y="204.429">*</text></g><!--link G to H--><g id="link_G_H"><path codeLine="6" d="M252,94.8411 C252,126.7511 252,183.7911 252,215.6011 " fill="transparent" id="G-H" style="stroke:#181818;stroke-width:1;"/><text fill="#000000" font-family="Consolas" font-size="13" lengthAdjust="spacing" textLength="7.1475" x="244.2017" y="114.4763">1</text><text fill="#000000" font-family="Consolas" font-size="13" lengthAdjust="spacing" textLength="28.5898" x="220.5269" y="204.429">0..n</text></g><!--link I to J--><g id="link_I_J"><path codeLine="7" d="M327,94.8411 C327,126.7511 327,183.7911 327,215.6011 " fill="transparent" id="I-J" style="stroke:#181818;stroke-width:1;"/><text fill="#000000" font-family="Consolas" font-size="13" lengthAdjust="spacing" textLength="7.1475" x="319.2017" y="114.4763">1</text><text fill="#000000" font-family="Consolas" font-size="13" lengthAdjust="spacing" textLength="28.5898" x="295.5269" y="204.429">1..n</text></g><!--link K to L--><g id="link_K_L"><path codeLine="8" d="M402,94.8411 C402,126.7511 402,183.7911 402,215.6011 " fill="transparent" id="K-L" style="stroke:#181818;stroke-width:1;"/><text fill="#000000" font-family="Consolas" font-size="13" lengthAdjust="spacing" textLength="7.1475" x="394.2017" y="114.4763">1</text><text fill="#000000" font-family="Consolas" font-size="13" lengthAdjust="spacing" textLength="28.5898" x="370.5269" y="204.429">1..*</text></g><!--link M to N--><g id="link_M_N"><path codeLine="9" d="M477,94.8411 C477,126.7511 477,183.7911 477,215.6011 " fill="transparent" id="M-N" style="stroke:#181818;stroke-width:1;"/><text fill="#000000" font-family="Consolas" font-size="13" lengthAdjust="spacing" textLength="7.1475" x="469.2017" y="114.4763">1</text><text fill="#000000" font-family="Consolas" font-size="13" lengthAdjust="spacing" textLength="28.5898" x="445.5269" y="204.429">m..n</text></g><!--link O to P--><g id="link_O_P"><path codeLine="10" d="M552,94.8411 C552,126.7511 552,183.7911 552,215.6011 " fill="transparent" id="O-P" style="stroke:#181818;stroke-width:1;"/><text fill="#000000" font-family="Consolas" font-size="13" lengthAdjust="spacing" textLength="7.1475" x="544.2017" y="114.4763">1</text><text fill="#000000" font-family="Consolas" font-size="13" lengthAdjust="spacing" textLength="7.1475" x="544.1608" y="204.429">n</text></g><text fill="#000000" font-family="Segoe UI" font-size="14" lengthAdjust="spacing" textLength="364.4238" x="100.1367" y="285.7285">Las cardinalidades pueden representar el grado de relaci&#243;n</text><text fill="#000000" font-family="Segoe UI" font-size="14" lengthAdjust="spacing" textLength="132.6719" x="216.0127" y="304.3496">entre clases y objetos</text><!--SRC=[LP1B3i8m34JtFeN94gaL787__tC0DYOnLL3gL4cwu5mSWOiHbKNfofwdcLdCo8fshM5i74bgQrTgBmzR0SnGJHKMHT7TEInwFIdB_2vXrQEnmZLi1XPHk8NTNqk7zd0Oe1mymgb7TUSwmwL7MLy1aasESK71M25d3HcEo982uqhIJmDeQfBrWkf84VNGtBHiM31m4pZc90LaXrKWup4l4DYHjf-ttEHNgnt577kXlpyv-QZW2m00]--></g></svg>