<svg xmlns="http://www.w3.org/2000/svg" xmlns:xlink="http://www.w3.org/1999/xlink" contentStyleType="text/css" data-diagram-type="CLASS" height="282px" preserveAspectRatio="none" style="width:474px;height:282px;" version="1.1" viewBox="0 0 474 282" width="474px" zoomAndPan="magnify"><title>Composici&#243;n entre Clases</title><defs/><g><text fill="#000000" font-family="Segoe UI" font-size="14" font-weight="bold" lengthAdjust="spacing" textLength="167.7197" x="146.4683" y="25.1074">Composici&#243;n entre Clases</text><!--class Agenda--><g id="elem_Agenda"><rect codeLine="3" fill="#F1F1F1" height="80.7852" id="Agenda" rx="2.5" ry="2.5" style="stroke:#181818;stroke-width:0.5;" width="218.4316" x="7" y="139.6211"/><ellipse cx="88.874" cy="155.6211" fill="#ADD1B2" rx="11" ry="11" style="stroke:#181818;stroke-width:1;"/><path d="M91.6396,151.4961 Q91.7959,151.2773 91.9834,151.168 Q92.1709,151.0586 92.3896,151.0586 Q92.7646,151.0586 92.999,151.3242 Q93.2334,151.5742 93.2334,152.1836 L93.2334,153.6367 Q93.2334,154.2461 92.999,154.5117 Q92.7646,154.7773 92.3896,154.7773 Q92.0459,154.7773 91.8428,154.5742 Q91.6396,154.3867 91.5303,153.8711 Q91.4834,153.5117 91.2959,153.3242 Q90.9678,152.9492 90.3584,152.7305 Q89.749,152.5117 89.124,152.5117 Q88.3584,152.5117 87.7178,152.8398 Q87.0928,153.168 86.5928,153.918 Q86.1084,154.668 86.1084,155.6992 L86.1084,156.793 Q86.1084,158.0273 86.999,158.8555 Q87.8896,159.668 89.4834,159.668 Q90.4209,159.668 91.0771,159.418 Q91.4678,159.2617 91.8896,158.8242 Q92.1553,158.5586 92.2959,158.4805 Q92.4521,158.4023 92.6553,158.4023 Q92.9834,158.4023 93.2334,158.668 Q93.499,158.918 93.499,159.2617 Q93.499,159.6055 93.1553,160.0117 Q92.6553,160.5898 91.8584,160.918 Q90.7803,161.3711 89.4834,161.3711 Q87.9678,161.3711 86.7646,160.7461 Q85.7803,160.2461 85.0928,159.1836 Q84.4053,158.1055 84.4053,156.8242 L84.4053,155.668 Q84.4053,154.3398 85.0146,153.1992 Q85.6396,152.043 86.7334,151.4336 Q87.8271,150.8086 89.0615,150.8086 Q89.7959,150.8086 90.4365,150.9805 Q91.0928,151.1367 91.6396,151.4961 Z " fill="#000000"/><text fill="#000000" font-family="Consolas" font-size="14" font-weight="bold" lengthAdjust="spacing" textLength="46.1836" x="109.374" y="160.2148">Agenda</text><line style="stroke:#181818;stroke-width:0.5;" x1="8" x2="224.4316" y1="171.6211" y2="171.6211"/><ellipse cx="18" cy="185.3174" fill="transparent" rx="3" ry="3" style="stroke:#038048;stroke-width:1;"/><text fill="#000000" font-family="Consolas" font-size="14" lengthAdjust="spacing" textLength="107.7617" x="27" y="188.4111">nombre: String</text><ellipse cx="18" cy="201.71" fill="transparent" rx="3" ry="3" style="stroke:#038048;stroke-width:1;"/><text fill="#000000" font-family="Consolas" font-size="14" lengthAdjust="spacing" textLength="192.4316" x="27" y="204.8037">contactos: List&lt;Contacto&gt;</text><line style="stroke:#181818;stroke-width:0.5;" x1="8" x2="224.4316" y1="212.4063" y2="212.4063"/></g><!--class Contacto--><g id="elem_Contacto"><rect codeLine="8" fill="#F1F1F1" height="97.1777" id="Contacto" rx="2.5" ry="2.5" style="stroke:#181818;stroke-width:0.5;" width="149.1563" x="318.5" y="131.6211"/><ellipse cx="358.5102" cy="147.6211" fill="#ADD1B2" rx="11" ry="11" style="stroke:#181818;stroke-width:1;"/><path d="M361.2758,143.4961 Q361.432,143.2773 361.6195,143.168 Q361.807,143.0586 362.0258,143.0586 Q362.4008,143.0586 362.6352,143.3242 Q362.8695,143.5742 362.8695,144.1836 L362.8695,145.6367 Q362.8695,146.2461 362.6352,146.5117 Q362.4008,146.7773 362.0258,146.7773 Q361.682,146.7773 361.4789,146.5742 Q361.2758,146.3867 361.1664,145.8711 Q361.1195,145.5117 360.932,145.3242 Q360.6039,144.9492 359.9945,144.7305 Q359.3852,144.5117 358.7602,144.5117 Q357.9945,144.5117 357.3539,144.8398 Q356.7289,145.168 356.2289,145.918 Q355.7445,146.668 355.7445,147.6992 L355.7445,148.793 Q355.7445,150.0273 356.6352,150.8555 Q357.5258,151.668 359.1195,151.668 Q360.057,151.668 360.7133,151.418 Q361.1039,151.2617 361.5258,150.8242 Q361.7914,150.5586 361.932,150.4805 Q362.0883,150.4023 362.2914,150.4023 Q362.6195,150.4023 362.8695,150.668 Q363.1352,150.918 363.1352,151.2617 Q363.1352,151.6055 362.7914,152.0117 Q362.2914,152.5898 361.4945,152.918 Q360.4164,153.3711 359.1195,153.3711 Q357.6039,153.3711 356.4008,152.7461 Q355.4164,152.2461 354.7289,151.1836 Q354.0414,150.1055 354.0414,148.8242 L354.0414,147.668 Q354.0414,146.3398 354.6508,145.1992 Q355.2758,144.043 356.3695,143.4336 Q357.4633,142.8086 358.6977,142.8086 Q359.432,142.8086 360.0727,142.9805 Q360.7289,143.1367 361.2758,143.4961 Z " fill="#000000"/><text fill="#000000" font-family="Consolas" font-size="14" font-weight="bold" lengthAdjust="spacing" textLength="61.5781" x="378.068" y="152.2148">Contacto</text><line style="stroke:#181818;stroke-width:0.5;" x1="319.5" x2="466.6563" y1="163.6211" y2="163.6211"/><ellipse cx="329.5" cy="177.3174" fill="transparent" rx="3" ry="3" style="stroke:#038048;stroke-width:1;"/><text fill="#000000" font-family="Consolas" font-size="14" lengthAdjust="spacing" textLength="107.7617" x="338.5" y="180.4111">nombre: String</text><ellipse cx="329.5" cy="193.71" fill="transparent" rx="3" ry="3" style="stroke:#038048;stroke-width:1;"/><text fill="#000000" font-family="Consolas" font-size="14" lengthAdjust="spacing" textLength="123.1563" x="338.5" y="196.8037">telefono: String</text><ellipse cx="329.5" cy="210.1025" fill="transparent" rx="3" ry="3" style="stroke:#038048;stroke-width:1;"/><text fill="#000000" font-family="Consolas" font-size="14" lengthAdjust="spacing" textLength="100.0645" x="338.5" y="213.1963">email: String</text><line style="stroke:#181818;stroke-width:0.5;" x1="319.5" x2="466.6563" y1="220.7988" y2="220.7988"/></g><g id="elem_GMN5"><path d="M52,45.6211 L52,70.8428 A0,0 0 0 0 52,70.8428 L112,70.8428 L116,139.4011 L120,70.8428 L180.2119,70.8428 A0,0 0 0 0 180.2119,70.8428 L180.2119,55.6211 L170.2119,45.6211 L52,45.6211 A0,0 0 0 0 52,45.6211 " fill="#FEFFDD" style="stroke:#181818;stroke-width:0.5;"/><path d="M170.2119,45.6211 L170.2119,55.6211 L180.2119,55.6211 L170.2119,45.6211 " fill="#FEFFDD" style="stroke:#181818;stroke-width:0.5;"/><text fill="#000000" font-family="Consolas" font-size="13" lengthAdjust="spacing" textLength="107.2119" x="58" y="62.4976">Clase Compuesta</text></g><g id="elem_GMN8"><path d="M325.5,45.6211 L325.5,70.8428 A0,0 0 0 0 325.5,70.8428 L389,70.8428 L393,131.4411 L397,70.8428 L460.8594,70.8428 A0,0 0 0 0 460.8594,70.8428 L460.8594,55.6211 L450.8594,45.6211 L325.5,45.6211 A0,0 0 0 0 325.5,45.6211 " fill="#FEFFDD" style="stroke:#181818;stroke-width:0.5;"/><path d="M450.8594,45.6211 L450.8594,55.6211 L460.8594,55.6211 L450.8594,45.6211 " fill="#FEFFDD" style="stroke:#181818;stroke-width:0.5;"/><text fill="#000000" font-family="Consolas" font-size="13" lengthAdjust="spacing" textLength="114.3594" x="331.5" y="62.4976">Clase Componente</text></g><!--reverse link Agenda to Contacto--><g id="link_Agenda_Contacto"><path codeLine="14" d="M237.08,180.1211 C268.27,180.1211 289.54,180.1211 318.18,180.1211 " fill="transparent" id="Agenda-backto-Contacto" style="stroke:#181818;stroke-width:1;"/><polygon fill="#181818" points="225.08,180.1211,231.08,184.1211,237.08,180.1211,231.08,176.1211,225.08,180.1211" style="stroke:#181818;stroke-width:1;"/><text fill="#000000" font-family="Consolas" font-size="13" lengthAdjust="spacing" textLength="57.1797" x="243.25" y="172.9976">contiene</text></g><text fill="#000000" font-family="Segoe UI" font-size="14" lengthAdjust="spacing" textLength="25.1768" x="118.7622" y="250.9063">Si la</text><text fill="#000000" font-family="Segoe UI" font-size="14" font-weight="bold" lengthAdjust="spacing" textLength="50.7568" x="147.7739" y="250.9063">Agenda</text><text fill="#000000" font-family="Segoe UI" font-size="14" lengthAdjust="spacing" textLength="139.5283" x="202.3657" y="250.9063">se borra o se destruye,</text><text fill="#000000" font-family="Segoe UI" font-size="14" lengthAdjust="spacing" textLength="17.5342" x="116.7935" y="269.5273">los</text><text fill="#000000" font-family="Segoe UI" font-size="14" font-weight="bold" lengthAdjust="spacing" textLength="65.6318" x="138.1626" y="269.5273">Contactos</text><text fill="#000000" font-family="Segoe UI" font-size="14" lengthAdjust="spacing" textLength="136.2334" x="207.6294" y="269.5273">tambi&#233;n se eliminar&#225;n</text><!--SRC=[TO-zJiKm34RtF8Mv8xzxLLL2TsMxAukRkfMbnAuITq28Xs5avX7wOYJS5Yu3c_Fbw7ps5OiFoq0m1nHROhZtAYDFplc0ESFZH38Wl3g06z7O9shWP8bbgabX3RrfRk29ixN7xTsvjrsmH_yfZ0ADAdgPKKGEFq5HRLjSt_tg6gZbJ4BEYHg1wGmwRWitS2pjLF0uBvGD_p2xv99I8R7YChQm9Pazhvy2vIFH6StbB9oDLU1mOWW8RT-TAzk7leCYwpKb1AtZK9hJyaAtpn8qLtHlpj-qOUnv_P3AKk38WcbzbuFx0W00]--></g></svg>