<svg xmlns="http://www.w3.org/2000/svg" xmlns:xlink="http://www.w3.org/1999/xlink" contentStyleType="text/css" data-diagram-type="CLASS" height="167px" preserveAspectRatio="none" style="width:200px;height:167px;" version="1.1" viewBox="0 0 200 167" width="200px" zoomAndPan="magnify"><defs/><g><!--class SerVivo--><g id="elem_SerVivo"><rect codeLine="3" fill="#F1F1F1" height="146.3555" id="SerVivo" rx="2.5" ry="2.5" style="stroke:#181818;stroke-width:0.5;" width="179.9453" x="7" y="7"/><ellipse cx="65.7822" cy="23" fill="#ADD1B2" rx="11" ry="11" style="stroke:#181818;stroke-width:1;"/><path d="M68.5479,18.875 Q68.7041,18.6563 68.8916,18.5469 Q69.0791,18.4375 69.2979,18.4375 Q69.6729,18.4375 69.9072,18.7031 Q70.1416,18.9531 70.1416,19.5625 L70.1416,21.0156 Q70.1416,21.625 69.9072,21.8906 Q69.6729,22.1563 69.2979,22.1563 Q68.9541,22.1563 68.751,21.9531 Q68.5479,21.7656 68.4385,21.25 Q68.3916,20.8906 68.2041,20.7031 Q67.876,20.3281 67.2666,20.1094 Q66.6572,19.8906 66.0322,19.8906 Q65.2666,19.8906 64.626,20.2188 Q64.001,20.5469 63.501,21.2969 Q63.0166,22.0469 63.0166,23.0781 L63.0166,24.1719 Q63.0166,25.4063 63.9072,26.2344 Q64.7979,27.0469 66.3916,27.0469 Q67.3291,27.0469 67.9854,26.7969 Q68.376,26.6406 68.7979,26.2031 Q69.0635,25.9375 69.2041,25.8594 Q69.3604,25.7813 69.5635,25.7813 Q69.8916,25.7813 70.1416,26.0469 Q70.4072,26.2969 70.4072,26.6406 Q70.4072,26.9844 70.0635,27.3906 Q69.5635,27.9688 68.7666,28.2969 Q67.6885,28.75 66.3916,28.75 Q64.876,28.75 63.6729,28.125 Q62.6885,27.625 62.001,26.5625 Q61.3135,25.4844 61.3135,24.2031 L61.3135,23.0469 Q61.3135,21.7188 61.9229,20.5781 Q62.5479,19.4219 63.6416,18.8125 Q64.7354,18.1875 65.9697,18.1875 Q66.7041,18.1875 67.3447,18.3594 Q68.001,18.5156 68.5479,18.875 Z " fill="#000000"/><text fill="#000000" font-family="Consolas" font-size="14" font-weight="bold" lengthAdjust="spacing" textLength="53.8809" x="86.2822" y="27.5938">SerVivo</text><line style="stroke:#181818;stroke-width:0.5;" x1="8" x2="185.9453" y1="39" y2="39"/><ellipse cx="18" cy="52.6963" fill="transparent" rx="3" ry="3" style="stroke:#038048;stroke-width:1;"/><text fill="#000000" font-family="Consolas" font-size="14" lengthAdjust="spacing" textLength="107.7617" x="27" y="55.79">nombre: String</text><ellipse cx="18" cy="69.0889" fill="transparent" rx="3" ry="3" style="stroke:#038048;stroke-width:1;"/><text fill="#000000" font-family="Consolas" font-size="14" lengthAdjust="spacing" textLength="69.2754" x="27" y="72.1826">edad: int</text><line style="stroke:#181818;stroke-width:0.5;" x1="8" x2="185.9453" y1="79.7852" y2="79.7852"/><ellipse cx="18" cy="93.4814" fill="#84BE84" rx="3" ry="3" style="stroke:#038048;stroke-width:1;"/><text fill="#000000" font-family="Consolas" font-size="14" lengthAdjust="spacing" textLength="146.248" x="27" y="96.5752">alimentarse(): void</text><ellipse cx="18" cy="109.874" fill="#84BE84" rx="3" ry="3" style="stroke:#038048;stroke-width:1;"/><text fill="#000000" font-family="Consolas" font-size="14" lengthAdjust="spacing" textLength="107.7617" x="27" y="112.9678">crecer(): void</text><ellipse cx="18" cy="126.2666" fill="#84BE84" rx="3" ry="3" style="stroke:#038048;stroke-width:1;"/><text fill="#000000" font-family="Consolas" font-size="14" lengthAdjust="spacing" textLength="153.9453" x="27" y="129.3604">reproducirse(): void</text><ellipse cx="18" cy="142.6592" fill="#84BE84" rx="3" ry="3" style="stroke:#038048;stroke-width:1;"/><text fill="#000000" font-family="Consolas" font-size="14" lengthAdjust="spacing" textLength="100.0645" x="27" y="145.7529">morir(): void</text></g><!--SRC=[NSen2iCm343HtQTGjuP23-1h1BAxaXe4iXHaEqlftOkdbex_yIzYg8CO3YtMHzKxkZrbJmcrj0OhnoQdmoi1tCph8pZ3saDidy9KA8DOdr5KAbilqVYwP3XTQ3868yUl11_XD53-pkeXt_6TFW00]--></g></svg>