<svg xmlns="http://www.w3.org/2000/svg" xmlns:xlink="http://www.w3.org/1999/xlink" contentStyleType="text/css" data-diagram-type="CLASS" height="298px" preserveAspectRatio="none" style="width:437px;height:298px;" version="1.1" viewBox="0 0 437 298" width="437px" zoomAndPan="magnify"><title>Asociaci&#243;n entre Clases</title><defs/><g><text fill="#000000" font-family="Segoe UI" font-size="14" font-weight="bold" lengthAdjust="spacing" textLength="153.0156" x="138.0298" y="25.1074">Asociaci&#243;n entre Clases</text><!--class Biblioteca--><g id="elem_Biblioteca"><rect codeLine="3" fill="#F1F1F1" height="113.5703" id="Biblioteca" rx="2.5" ry="2.5" style="stroke:#181818;stroke-width:0.5;" width="172.248" x="21.3608" y="131.6211"/><ellipse cx="64.8348" cy="147.6211" fill="#ADD1B2" rx="11" ry="11" style="stroke:#181818;stroke-width:1;"/><path d="M67.6004,143.4961 Q67.7566,143.2773 67.9441,143.168 Q68.1316,143.0586 68.3504,143.0586 Q68.7254,143.0586 68.9598,143.3242 Q69.1941,143.5742 69.1941,144.1836 L69.1941,145.6367 Q69.1941,146.2461 68.9598,146.5117 Q68.7254,146.7773 68.3504,146.7773 Q68.0066,146.7773 67.8035,146.5742 Q67.6004,146.3867 67.491,145.8711 Q67.4441,145.5117 67.2566,145.3242 Q66.9285,144.9492 66.3191,144.7305 Q65.7098,144.5117 65.0848,144.5117 Q64.3191,144.5117 63.6785,144.8398 Q63.0535,145.168 62.5535,145.918 Q62.0691,146.668 62.0691,147.6992 L62.0691,148.793 Q62.0691,150.0273 62.9598,150.8555 Q63.8504,151.668 65.4441,151.668 Q66.3816,151.668 67.0379,151.418 Q67.4285,151.2617 67.8504,150.8242 Q68.116,150.5586 68.2566,150.4805 Q68.4129,150.4023 68.616,150.4023 Q68.9441,150.4023 69.1941,150.668 Q69.4598,150.918 69.4598,151.2617 Q69.4598,151.6055 69.116,152.0117 Q68.616,152.5898 67.8191,152.918 Q66.741,153.3711 65.4441,153.3711 Q63.9285,153.3711 62.7254,152.7461 Q61.741,152.2461 61.0535,151.1836 Q60.366,150.1055 60.366,148.8242 L60.366,147.668 Q60.366,146.3398 60.9754,145.1992 Q61.6004,144.043 62.6941,143.4336 Q63.7879,142.8086 65.0223,142.8086 Q65.7566,142.8086 66.3973,142.9805 Q67.0535,143.1367 67.6004,143.4961 Z " fill="#000000"/><text fill="#000000" font-family="Consolas" font-size="14" font-weight="bold" lengthAdjust="spacing" textLength="76.9727" x="85.1623" y="152.2148">Biblioteca</text><line style="stroke:#181818;stroke-width:0.5;" x1="22.3608" x2="192.6089" y1="163.6211" y2="163.6211"/><ellipse cx="32.3608" cy="177.3174" fill="transparent" rx="3" ry="3" style="stroke:#038048;stroke-width:1;"/><text fill="#000000" font-family="Consolas" font-size="14" lengthAdjust="spacing" textLength="107.7617" x="41.3608" y="180.4111">nombre: String</text><ellipse cx="32.3608" cy="193.71" fill="transparent" rx="3" ry="3" style="stroke:#038048;stroke-width:1;"/><text fill="#000000" font-family="Consolas" font-size="14" lengthAdjust="spacing" textLength="130.8535" x="41.3608" y="196.8037">direccion: String</text><ellipse cx="32.3608" cy="210.1025" fill="transparent" rx="3" ry="3" style="stroke:#038048;stroke-width:1;"/><text fill="#000000" font-family="Consolas" font-size="14" lengthAdjust="spacing" textLength="123.1563" x="41.3608" y="213.1963">telefono: String</text><ellipse cx="32.3608" cy="226.4951" fill="transparent" rx="3" ry="3" style="stroke:#038048;stroke-width:1;"/><text fill="#000000" font-family="Consolas" font-size="14" lengthAdjust="spacing" textLength="146.248" x="41.3608" y="229.5889">libros: List&lt;Libro&gt;</text><line style="stroke:#181818;stroke-width:0.5;" x1="22.3608" x2="192.6089" y1="237.1914" y2="237.1914"/></g><!--class Libro--><g id="elem_Libro"><rect codeLine="10" fill="#F1F1F1" height="113.5703" id="Libro" rx="2.5" ry="2.5" style="stroke:#181818;stroke-width:0.5;" width="156.8535" x="264.8608" y="131.6211"/><ellipse cx="319.7944" cy="147.6211" fill="#ADD1B2" rx="11" ry="11" style="stroke:#181818;stroke-width:1;"/><path d="M322.5601,143.4961 Q322.7163,143.2773 322.9038,143.168 Q323.0913,143.0586 323.3101,143.0586 Q323.6851,143.0586 323.9194,143.3242 Q324.1538,143.5742 324.1538,144.1836 L324.1538,145.6367 Q324.1538,146.2461 323.9194,146.5117 Q323.6851,146.7773 323.3101,146.7773 Q322.9663,146.7773 322.7632,146.5742 Q322.5601,146.3867 322.4507,145.8711 Q322.4038,145.5117 322.2163,145.3242 Q321.8882,144.9492 321.2788,144.7305 Q320.6694,144.5117 320.0444,144.5117 Q319.2788,144.5117 318.6382,144.8398 Q318.0132,145.168 317.5132,145.918 Q317.0288,146.668 317.0288,147.6992 L317.0288,148.793 Q317.0288,150.0273 317.9194,150.8555 Q318.8101,151.668 320.4038,151.668 Q321.3413,151.668 321.9976,151.418 Q322.3882,151.2617 322.8101,150.8242 Q323.0757,150.5586 323.2163,150.4805 Q323.3726,150.4023 323.5757,150.4023 Q323.9038,150.4023 324.1538,150.668 Q324.4194,150.918 324.4194,151.2617 Q324.4194,151.6055 324.0757,152.0117 Q323.5757,152.5898 322.7788,152.918 Q321.7007,153.3711 320.4038,153.3711 Q318.8882,153.3711 317.6851,152.7461 Q316.7007,152.2461 316.0132,151.1836 Q315.3257,150.1055 315.3257,148.8242 L315.3257,147.668 Q315.3257,146.3398 315.9351,145.1992 Q316.5601,144.043 317.6538,143.4336 Q318.7476,142.8086 319.9819,142.8086 Q320.7163,142.8086 321.3569,142.9805 Q322.0132,143.1367 322.5601,143.4961 Z " fill="#000000"/><text fill="#000000" font-family="Consolas" font-size="14" font-weight="bold" lengthAdjust="spacing" textLength="38.4863" x="340.2944" y="152.2148">Libro</text><line style="stroke:#181818;stroke-width:0.5;" x1="265.8608" x2="420.7144" y1="163.6211" y2="163.6211"/><ellipse cx="275.8608" cy="177.3174" fill="transparent" rx="3" ry="3" style="stroke:#038048;stroke-width:1;"/><text fill="#000000" font-family="Consolas" font-size="14" lengthAdjust="spacing" textLength="107.7617" x="284.8608" y="180.4111">titulo: String</text><ellipse cx="275.8608" cy="193.71" fill="transparent" rx="3" ry="3" style="stroke:#038048;stroke-width:1;"/><text fill="#000000" font-family="Consolas" font-size="14" lengthAdjust="spacing" textLength="100.0645" x="284.8608" y="196.8037">autor: String</text><ellipse cx="275.8608" cy="210.1025" fill="transparent" rx="3" ry="3" style="stroke:#038048;stroke-width:1;"/><text fill="#000000" font-family="Consolas" font-size="14" lengthAdjust="spacing" textLength="130.8535" x="284.8608" y="213.1963">editorial: String</text><ellipse cx="275.8608" cy="226.4951" fill="transparent" rx="3" ry="3" style="stroke:#038048;stroke-width:1;"/><text fill="#000000" font-family="Consolas" font-size="14" lengthAdjust="spacing" textLength="92.3672" x="284.8608" y="229.5889">isbn: String</text><line style="stroke:#181818;stroke-width:0.5;" x1="265.8608" x2="420.7144" y1="237.1914" y2="237.1914"/></g><g id="elem_GMN5"><path d="M53.8608,45.6211 L53.8608,70.8428 A0,0 0 0 0 53.8608,70.8428 L103.3608,70.8428 L107.3608,131.3311 L111.3608,70.8428 L160.6304,70.8428 A0,0 0 0 0 160.6304,70.8428 L160.6304,55.6211 L150.6304,45.6211 L53.8608,45.6211 A0,0 0 0 0 53.8608,45.6211 " fill="#FEFFDD" style="stroke:#181818;stroke-width:0.5;"/><path d="M150.6304,45.6211 L150.6304,55.6211 L160.6304,55.6211 L150.6304,45.6211 " fill="#FEFFDD" style="stroke:#181818;stroke-width:0.5;"/><text fill="#000000" font-family="Consolas" font-size="13" lengthAdjust="spacing" textLength="85.7695" x="59.8608" y="62.4976">Clase Fuente</text></g><g id="elem_GMN8"><path d="M286.3608,45.6211 L286.3608,70.8428 A0,0 0 0 0 286.3608,70.8428 L339.3608,70.8428 L343.3608,131.3311 L347.3608,70.8428 L400.2778,70.8428 A0,0 0 0 0 400.2778,70.8428 L400.2778,55.6211 L390.2778,45.6211 L286.3608,45.6211 A0,0 0 0 0 286.3608,45.6211 " fill="#FEFFDD" style="stroke:#181818;stroke-width:0.5;"/><path d="M390.2778,45.6211 L390.2778,55.6211 L400.2778,55.6211 L390.2778,45.6211 " fill="#FEFFDD" style="stroke:#181818;stroke-width:0.5;"/><text fill="#000000" font-family="Consolas" font-size="13" lengthAdjust="spacing" textLength="92.917" x="292.3608" y="62.4976">Clase Destino</text></g><!--link Biblioteca to Libro--><g id="link_Biblioteca_Libro"><path codeLine="17" d="M193.5608,188.6211 C216.8708,188.6211 241.9608,188.6211 264.8208,188.6211 " fill="transparent" id="Biblioteca-Libro" style="stroke:#181818;stroke-width:1;"/><text fill="#000000" font-family="Consolas" font-size="13" lengthAdjust="spacing" textLength="35.7373" x="211.6108" y="181.4976">tiene</text></g><text fill="#000000" font-family="Segoe UI" font-size="14" lengthAdjust="spacing" textLength="31.1582" x="1" y="267.2988">Cada</text><text fill="#000000" font-family="Segoe UI" font-size="14" font-weight="bold" lengthAdjust="spacing" textLength="65.4268" x="35.9932" y="267.2988">Biblioteca</text><text fill="#000000" font-family="Segoe UI" font-size="14" lengthAdjust="spacing" textLength="242.1631" x="105.2549" y="267.2988">puede contener m&#250;ltiples libros, y cada</text><text fill="#000000" font-family="Segoe UI" font-size="14" font-weight="bold" lengthAdjust="spacing" textLength="33.9473" x="351.2529" y="267.2988">Libro</text><text fill="#000000" font-family="Segoe UI" font-size="14" lengthAdjust="spacing" textLength="39.04" x="389.0352" y="267.2988">puede</text><text fill="#000000" font-family="Segoe UI" font-size="14" lengthAdjust="spacing" textLength="274.7021" x="77.1865" y="285.9199">estar asociado para una biblioteca espec&#237;fica</text><!--SRC=[LP4zRiCm38LtdOBDsh_TC0Aq2Jfbwzg5akc0W48A4ZKKHO_KgLlNNAoAay3Eo4_aUu_K7Kk8TI184SNg8Ju5bP7tpeM8fS0h-yXg512-7C2zwC5dwk3TCil-H0RE50AhBA5Hf555boooprews76nVdSgrkxxwZFLPmjZg_5c4gjfNW8Qk176k8HS_9oX2I-YFrxqEp0c8UUQHoHuAHeO0nz_1KWi4snQ62ej52PhAy5gWmD2xzUpMF_irv0gjPkrKrcJot0u_aNZ5Ad0USi7-8Hm6PsivwaFeMAO0IVpGI5XHgY2uEV0L1A5uy_80LVEIODWca37nOTqvxJmLbjskccQBA_ls-R7ekuV]--></g></svg>