<svg xmlns="http://www.w3.org/2000/svg" xmlns:xlink="http://www.w3.org/1999/xlink" contentStyleType="text/css" data-diagram-type="CLASS" height="298px" preserveAspectRatio="none" style="width:476px;height:298px;" version="1.1" viewBox="0 0 476 298" width="476px" zoomAndPan="magnify"><title>Asociaci&#243;n Dirigida entre Clases</title><defs/><g><text fill="#000000" font-family="Segoe UI" font-size="14" font-weight="bold" lengthAdjust="spacing" textLength="209.5762" x="126.5332" y="25.1074">Asociaci&#243;n Dirigida entre Clases</text><!--class Maestro--><g id="elem_Maestro"><rect codeLine="3" fill="#F1F1F1" height="113.5703" id="Maestro" rx="2.5" ry="2.5" style="stroke:#181818;stroke-width:0.5;" width="187.6426" x="7" y="131.6211"/><ellipse cx="69.6309" cy="147.6211" fill="#ADD1B2" rx="11" ry="11" style="stroke:#181818;stroke-width:1;"/><path d="M72.3965,143.4961 Q72.5527,143.2773 72.7402,143.168 Q72.9277,143.0586 73.1465,143.0586 Q73.5215,143.0586 73.7559,143.3242 Q73.9902,143.5742 73.9902,144.1836 L73.9902,145.6367 Q73.9902,146.2461 73.7559,146.5117 Q73.5215,146.7773 73.1465,146.7773 Q72.8027,146.7773 72.5996,146.5742 Q72.3965,146.3867 72.2871,145.8711 Q72.2402,145.5117 72.0527,145.3242 Q71.7246,144.9492 71.1152,144.7305 Q70.5059,144.5117 69.8809,144.5117 Q69.1152,144.5117 68.4746,144.8398 Q67.8496,145.168 67.3496,145.918 Q66.8652,146.668 66.8652,147.6992 L66.8652,148.793 Q66.8652,150.0273 67.7559,150.8555 Q68.6465,151.668 70.2402,151.668 Q71.1777,151.668 71.834,151.418 Q72.2246,151.2617 72.6465,150.8242 Q72.9121,150.5586 73.0527,150.4805 Q73.209,150.4023 73.4121,150.4023 Q73.7402,150.4023 73.9902,150.668 Q74.2559,150.918 74.2559,151.2617 Q74.2559,151.6055 73.9121,152.0117 Q73.4121,152.5898 72.6152,152.918 Q71.5371,153.3711 70.2402,153.3711 Q68.7246,153.3711 67.5215,152.7461 Q66.5371,152.2461 65.8496,151.1836 Q65.1621,150.1055 65.1621,148.8242 L65.1621,147.668 Q65.1621,146.3398 65.7715,145.1992 Q66.3965,144.043 67.4902,143.4336 Q68.584,142.8086 69.8184,142.8086 Q70.5527,142.8086 71.1934,142.9805 Q71.8496,143.1367 72.3965,143.4961 Z " fill="#000000"/><text fill="#000000" font-family="Consolas" font-size="14" font-weight="bold" lengthAdjust="spacing" textLength="53.8809" x="90.1309" y="152.2148">Maestro</text><line style="stroke:#181818;stroke-width:0.5;" x1="8" x2="193.6426" y1="163.6211" y2="163.6211"/><ellipse cx="18" cy="177.3174" fill="transparent" rx="3" ry="3" style="stroke:#038048;stroke-width:1;"/><text fill="#000000" font-family="Consolas" font-size="14" lengthAdjust="spacing" textLength="107.7617" x="27" y="180.4111">nombre: String</text><ellipse cx="18" cy="193.71" fill="transparent" rx="3" ry="3" style="stroke:#038048;stroke-width:1;"/><text fill="#000000" font-family="Consolas" font-size="14" lengthAdjust="spacing" textLength="130.8535" x="27" y="196.8037">direccion: String</text><ellipse cx="18" cy="210.1025" fill="transparent" rx="3" ry="3" style="stroke:#038048;stroke-width:1;"/><text fill="#000000" font-family="Consolas" font-size="14" lengthAdjust="spacing" textLength="123.1563" x="27" y="213.1963">telefono: String</text><ellipse cx="18" cy="226.4951" fill="transparent" rx="3" ry="3" style="stroke:#038048;stroke-width:1;"/><text fill="#000000" font-family="Consolas" font-size="14" lengthAdjust="spacing" textLength="161.6426" x="27" y="229.5889">materias: List&lt;Curso&gt;</text><line style="stroke:#181818;stroke-width:0.5;" x1="8" x2="193.6426" y1="237.1914" y2="237.1914"/></g><!--class Curso--><g id="elem_Curso"><rect codeLine="10" fill="#F1F1F1" height="97.1777" id="Curso" rx="2.5" ry="2.5" style="stroke:#181818;stroke-width:0.5;" width="187.6426" x="282" y="140.1211"/><ellipse cx="352.3281" cy="156.1211" fill="#ADD1B2" rx="11" ry="11" style="stroke:#181818;stroke-width:1;"/><path d="M355.0938,151.9961 Q355.25,151.7773 355.4375,151.668 Q355.625,151.5586 355.8438,151.5586 Q356.2188,151.5586 356.4531,151.8242 Q356.6875,152.0742 356.6875,152.6836 L356.6875,154.1367 Q356.6875,154.7461 356.4531,155.0117 Q356.2188,155.2773 355.8438,155.2773 Q355.5,155.2773 355.2969,155.0742 Q355.0938,154.8867 354.9844,154.3711 Q354.9375,154.0117 354.75,153.8242 Q354.4219,153.4492 353.8125,153.2305 Q353.2031,153.0117 352.5781,153.0117 Q351.8125,153.0117 351.1719,153.3398 Q350.5469,153.668 350.0469,154.418 Q349.5625,155.168 349.5625,156.1992 L349.5625,157.293 Q349.5625,158.5273 350.4531,159.3555 Q351.3438,160.168 352.9375,160.168 Q353.875,160.168 354.5313,159.918 Q354.9219,159.7617 355.3438,159.3242 Q355.6094,159.0586 355.75,158.9805 Q355.9063,158.9023 356.1094,158.9023 Q356.4375,158.9023 356.6875,159.168 Q356.9531,159.418 356.9531,159.7617 Q356.9531,160.1055 356.6094,160.5117 Q356.1094,161.0898 355.3125,161.418 Q354.2344,161.8711 352.9375,161.8711 Q351.4219,161.8711 350.2188,161.2461 Q349.2344,160.7461 348.5469,159.6836 Q347.8594,158.6055 347.8594,157.3242 L347.8594,156.168 Q347.8594,154.8398 348.4688,153.6992 Q349.0938,152.543 350.1875,151.9336 Q351.2813,151.3086 352.5156,151.3086 Q353.25,151.3086 353.8906,151.4805 Q354.5469,151.6367 355.0938,151.9961 Z " fill="#000000"/><text fill="#000000" font-family="Consolas" font-size="14" font-weight="bold" lengthAdjust="spacing" textLength="38.4863" x="372.8281" y="160.7148">Curso</text><line style="stroke:#181818;stroke-width:0.5;" x1="283" x2="468.6426" y1="172.1211" y2="172.1211"/><ellipse cx="293" cy="185.8174" fill="transparent" rx="3" ry="3" style="stroke:#038048;stroke-width:1;"/><text fill="#000000" font-family="Consolas" font-size="14" lengthAdjust="spacing" textLength="107.7617" x="302" y="188.9111">nombre: String</text><ellipse cx="293" cy="202.21" fill="transparent" rx="3" ry="3" style="stroke:#038048;stroke-width:1;"/><text fill="#000000" font-family="Consolas" font-size="14" lengthAdjust="spacing" textLength="123.1563" x="302" y="205.3037">maestro: Maestro</text><ellipse cx="293" cy="218.6025" fill="transparent" rx="3" ry="3" style="stroke:#038048;stroke-width:1;"/><text fill="#000000" font-family="Consolas" font-size="14" lengthAdjust="spacing" textLength="161.6426" x="302" y="221.6963">alumnos: List&lt;Alumno&gt;</text><line style="stroke:#181818;stroke-width:0.5;" x1="283" x2="468.6426" y1="229.2988" y2="229.2988"/></g><g id="elem_GMN5"><path d="M37,45.6211 L37,70.8428 A0,0 0 0 0 37,70.8428 L97,70.8428 L101,131.3311 L105,70.8428 L165.2119,70.8428 A0,0 0 0 0 165.2119,70.8428 L165.2119,55.6211 L155.2119,45.6211 L37,45.6211 A0,0 0 0 0 37,45.6211 " fill="#FEFFDD" style="stroke:#181818;stroke-width:0.5;"/><path d="M155.2119,45.6211 L155.2119,55.6211 L165.2119,55.6211 L155.2119,45.6211 " fill="#FEFFDD" style="stroke:#181818;stroke-width:0.5;"/><text fill="#000000" font-family="Consolas" font-size="13" lengthAdjust="spacing" textLength="107.2119" x="43" y="62.4976">Clase Principal</text></g><g id="elem_GMN8"><path d="M304.5,45.6211 L304.5,70.8428 A0,0 0 0 0 304.5,70.8428 L372,70.8428 L376,140.0511 L380,70.8428 L447.0068,70.8428 A0,0 0 0 0 447.0068,70.8428 L447.0068,55.6211 L437.0068,45.6211 L304.5,45.6211 A0,0 0 0 0 304.5,45.6211 " fill="#FEFFDD" style="stroke:#181818;stroke-width:0.5;"/><path d="M437.0068,45.6211 L437.0068,55.6211 L447.0068,55.6211 L437.0068,45.6211 " fill="#FEFFDD" style="stroke:#181818;stroke-width:0.5;"/><text fill="#000000" font-family="Consolas" font-size="13" lengthAdjust="spacing" textLength="121.5068" x="310.5" y="62.4976">Clase Dependiente</text></g><!--link Maestro to Curso--><g id="link_Maestro_Curso"><path codeLine="16" d="M195.25,188.6211 C223.24,188.6211 247.89,188.6211 275.87,188.6211 " fill="transparent" id="Maestro-to-Curso" style="stroke:#181818;stroke-width:1;"/><polygon fill="#181818" points="281.87,188.6211,272.87,184.6211,276.87,188.6211,272.87,192.6211,281.87,188.6211" style="stroke:#181818;stroke-width:1;"/><text fill="#000000" font-family="Consolas" font-size="13" lengthAdjust="spacing" textLength="50.0322" x="213.5" y="181.4976">imparte</text></g><text fill="#000000" font-family="Segoe UI" font-size="14" lengthAdjust="spacing" textLength="17.541" x="96.5063" y="267.2988">Un</text><text fill="#000000" font-family="Segoe UI" font-size="14" font-weight="bold" lengthAdjust="spacing" textLength="54.2432" x="117.8823" y="267.2988">Maestro</text><text fill="#000000" font-family="Segoe UI" font-size="14" lengthAdjust="spacing" textLength="129.7666" x="175.9604" y="267.2988">est&#225; asociado con un</text><text fill="#000000" font-family="Segoe UI" font-size="14" font-weight="bold" lengthAdjust="spacing" textLength="37.4951" x="309.562" y="267.2988">Curso</text><text fill="#000000" font-family="Segoe UI" font-size="14" lengthAdjust="spacing" textLength="15.2441" x="350.8921" y="267.2988">en</text><text fill="#000000" font-family="Segoe UI" font-size="14" lengthAdjust="spacing" textLength="292.5576" x="85.0425" y="285.9199">particular dentro del sistema de gesti&#243;n escolar</text><!--SRC=[TP11QiGm34NtFeKwsz9s7q9Wc5csK2ZTTQFOIX3OKh2TLUbXUeOUOIvMnnd3TD6L9V7z_fVkMAnV7S7YKV8Q_ADLcNWsndfC2LwGKeuAdmRWNZICaJfuov5btYQE8rdBAhV3J9uc5RsT1SmK6LC7pvnoVrfZqi5yDPlQ_sSIzWnT2xFDqAz1jE6EjQky5lXXk48xuB1Wp6ICQ2R8ke1EZTN1gGGWU2rcbXVqVqILq2HdMaWSasoepDaJ79DQHikN7u4pHvxP8HH1fFrFAllXaijzuF0kq8_3rRP_6WSerUKRi3ASGZayh5LKRNU9VCWMdktgCOBRs5eU3wdiJG5B3NC1rGYKh1RPmVm2]--></g></svg>