<svg xmlns="http://www.w3.org/2000/svg" xmlns:xlink="http://www.w3.org/1999/xlink" contentStyleType="text/css" data-diagram-type="CLASS" height="282px" preserveAspectRatio="none" style="width:379px;height:282px;" version="1.1" viewBox="0 0 379 282" width="379px" zoomAndPan="magnify"><title>Dependencia entre Clases</title><defs/><g><text fill="#000000" font-family="Segoe UI" font-size="14" font-weight="bold" lengthAdjust="spacing" textLength="168.0684" x="98.6953" y="25.1074">Dependencia entre Clases</text><!--class Automovil--><g id="elem_Automovil"><rect codeLine="3" fill="#F1F1F1" height="97.1777" id="Automovil" rx="2.5" ry="2.5" style="stroke:#181818;stroke-width:0.5;" width="133.7617" x="10.5" y="131.6211"/><ellipse cx="40.1188" cy="147.6211" fill="#ADD1B2" rx="11" ry="11" style="stroke:#181818;stroke-width:1;"/><path d="M42.8845,143.4961 Q43.0407,143.2773 43.2282,143.168 Q43.4157,143.0586 43.6345,143.0586 Q44.0095,143.0586 44.2438,143.3242 Q44.4782,143.5742 44.4782,144.1836 L44.4782,145.6367 Q44.4782,146.2461 44.2438,146.5117 Q44.0095,146.7773 43.6345,146.7773 Q43.2907,146.7773 43.0876,146.5742 Q42.8845,146.3867 42.7751,145.8711 Q42.7282,145.5117 42.5407,145.3242 Q42.2126,144.9492 41.6032,144.7305 Q40.9938,144.5117 40.3688,144.5117 Q39.6032,144.5117 38.9626,144.8398 Q38.3376,145.168 37.8376,145.918 Q37.3532,146.668 37.3532,147.6992 L37.3532,148.793 Q37.3532,150.0273 38.2438,150.8555 Q39.1345,151.668 40.7282,151.668 Q41.6657,151.668 42.322,151.418 Q42.7126,151.2617 43.1345,150.8242 Q43.4001,150.5586 43.5407,150.4805 Q43.697,150.4023 43.9001,150.4023 Q44.2282,150.4023 44.4782,150.668 Q44.7438,150.918 44.7438,151.2617 Q44.7438,151.6055 44.4001,152.0117 Q43.9001,152.5898 43.1032,152.918 Q42.0251,153.3711 40.7282,153.3711 Q39.2126,153.3711 38.0095,152.7461 Q37.0251,152.2461 36.3376,151.1836 Q35.6501,150.1055 35.6501,148.8242 L35.6501,147.668 Q35.6501,146.3398 36.2595,145.1992 Q36.8845,144.043 37.9782,143.4336 Q39.072,142.8086 40.3063,142.8086 Q41.0407,142.8086 41.6813,142.9805 Q42.3376,143.1367 42.8845,143.4961 Z " fill="#000000"/><text fill="#000000" font-family="Consolas" font-size="14" font-weight="bold" lengthAdjust="spacing" textLength="69.2754" x="57.3675" y="152.2148">Automovil</text><line style="stroke:#181818;stroke-width:0.5;" x1="11.5" x2="143.2617" y1="163.6211" y2="163.6211"/><ellipse cx="21.5" cy="177.3174" fill="transparent" rx="3" ry="3" style="stroke:#038048;stroke-width:1;"/><text fill="#000000" font-family="Consolas" font-size="14" lengthAdjust="spacing" textLength="100.0645" x="30.5" y="180.4111">marca: String</text><ellipse cx="21.5" cy="193.71" fill="transparent" rx="3" ry="3" style="stroke:#038048;stroke-width:1;"/><text fill="#000000" font-family="Consolas" font-size="14" lengthAdjust="spacing" textLength="107.7617" x="30.5" y="196.8037">modelo: String</text><ellipse cx="21.5" cy="210.1025" fill="transparent" rx="3" ry="3" style="stroke:#038048;stroke-width:1;"/><text fill="#000000" font-family="Consolas" font-size="14" lengthAdjust="spacing" textLength="92.3672" x="30.5" y="213.1963">motor: Motor</text><line style="stroke:#181818;stroke-width:0.5;" x1="11.5" x2="143.2617" y1="220.7988" y2="220.7988"/></g><!--class Motor--><g id="elem_Motor"><rect codeLine="9" fill="#F1F1F1" height="80.7852" id="Motor" rx="2.5" ry="2.5" style="stroke:#181818;stroke-width:0.5;" width="141.459" x="231" y="139.6211"/><ellipse cx="278.2363" cy="155.6211" fill="#ADD1B2" rx="11" ry="11" style="stroke:#181818;stroke-width:1;"/><path d="M281.002,151.4961 Q281.1582,151.2773 281.3457,151.168 Q281.5332,151.0586 281.752,151.0586 Q282.127,151.0586 282.3613,151.3242 Q282.5957,151.5742 282.5957,152.1836 L282.5957,153.6367 Q282.5957,154.2461 282.3613,154.5117 Q282.127,154.7773 281.752,154.7773 Q281.4082,154.7773 281.2051,154.5742 Q281.002,154.3867 280.8926,153.8711 Q280.8457,153.5117 280.6582,153.3242 Q280.3301,152.9492 279.7207,152.7305 Q279.1113,152.5117 278.4863,152.5117 Q277.7207,152.5117 277.0801,152.8398 Q276.4551,153.168 275.9551,153.918 Q275.4707,154.668 275.4707,155.6992 L275.4707,156.793 Q275.4707,158.0273 276.3613,158.8555 Q277.252,159.668 278.8457,159.668 Q279.7832,159.668 280.4395,159.418 Q280.8301,159.2617 281.252,158.8242 Q281.5176,158.5586 281.6582,158.4805 Q281.8145,158.4023 282.0176,158.4023 Q282.3457,158.4023 282.5957,158.668 Q282.8613,158.918 282.8613,159.2617 Q282.8613,159.6055 282.5176,160.0117 Q282.0176,160.5898 281.2207,160.918 Q280.1426,161.3711 278.8457,161.3711 Q277.3301,161.3711 276.127,160.7461 Q275.1426,160.2461 274.4551,159.1836 Q273.7676,158.1055 273.7676,156.8242 L273.7676,155.668 Q273.7676,154.3398 274.377,153.1992 Q275.002,152.043 276.0957,151.4336 Q277.1895,150.8086 278.4238,150.8086 Q279.1582,150.8086 279.7988,150.9805 Q280.4551,151.1367 281.002,151.4961 Z " fill="#000000"/><text fill="#000000" font-family="Consolas" font-size="14" font-weight="bold" lengthAdjust="spacing" textLength="38.4863" x="298.7363" y="160.2148">Motor</text><line style="stroke:#181818;stroke-width:0.5;" x1="232" x2="371.459" y1="171.6211" y2="171.6211"/><ellipse cx="242" cy="185.3174" fill="transparent" rx="3" ry="3" style="stroke:#038048;stroke-width:1;"/><text fill="#000000" font-family="Consolas" font-size="14" lengthAdjust="spacing" textLength="115.459" x="251" y="188.4111">cilindraje: int</text><ellipse cx="242" cy="201.71" fill="transparent" rx="3" ry="3" style="stroke:#038048;stroke-width:1;"/><text fill="#000000" font-family="Consolas" font-size="14" lengthAdjust="spacing" textLength="100.0645" x="251" y="204.8037">potencia: int</text><line style="stroke:#181818;stroke-width:0.5;" x1="232" x2="371.459" y1="212.4063" y2="212.4063"/></g><g id="elem_GMN5"><path d="M6,45.6211 L6,70.8428 A0,0 0 0 0 6,70.8428 L73.5,70.8428 L77.5,131.4411 L81.5,70.8428 L148.5068,70.8428 A0,0 0 0 0 148.5068,70.8428 L148.5068,55.6211 L138.5068,45.6211 L6,45.6211 A0,0 0 0 0 6,45.6211 " fill="#FEFFDD" style="stroke:#181818;stroke-width:0.5;"/><path d="M138.5068,45.6211 L138.5068,55.6211 L148.5068,55.6211 L138.5068,45.6211 " fill="#FEFFDD" style="stroke:#181818;stroke-width:0.5;"/><text fill="#000000" font-family="Consolas" font-size="13" lengthAdjust="spacing" textLength="121.5068" x="12" y="62.4976">Clase Dependiente</text></g><g id="elem_GMN8"><path d="M237.5,45.6211 L237.5,70.8428 A0,0 0 0 0 237.5,70.8428 L297.5,70.8428 L301.5,139.4011 L305.5,70.8428 L365.7119,70.8428 A0,0 0 0 0 365.7119,70.8428 L365.7119,55.6211 L355.7119,45.6211 L237.5,45.6211 A0,0 0 0 0 237.5,45.6211 " fill="#FEFFDD" style="stroke:#181818;stroke-width:0.5;"/><path d="M355.7119,45.6211 L355.7119,55.6211 L365.7119,55.6211 L355.7119,45.6211 " fill="#FEFFDD" style="stroke:#181818;stroke-width:0.5;"/><text fill="#000000" font-family="Consolas" font-size="13" lengthAdjust="spacing" textLength="107.2119" x="243.5" y="62.4976">Clase Principal</text></g><!--link Automovil to Motor--><g id="link_Automovil_Motor"><path codeLine="14" d="M144.71,180.1211 C171.9,180.1211 197.31,180.1211 224.84,180.1211 " fill="transparent" id="Automovil-to-Motor" style="stroke:#181818;stroke-width:1;stroke-dasharray:7.0,7.0;"/><polygon fill="#181818" points="230.84,180.1211,221.84,176.1211,225.84,180.1211,221.84,184.1211,230.84,180.1211" style="stroke:#181818;stroke-width:1;"/><text fill="#000000" font-family="Consolas" font-size="13" lengthAdjust="spacing" textLength="50.0322" x="162.75" y="172.9976">depende</text></g><text fill="#000000" font-family="Segoe UI" font-size="14" lengthAdjust="spacing" textLength="10.4727" x="29.5293" y="250.9063">El</text><text fill="#000000" font-family="Segoe UI" font-size="14" font-weight="bold" lengthAdjust="spacing" textLength="69.2412" x="43.8369" y="250.9063">Autom&#243;vil</text><text fill="#000000" font-family="Segoe UI" font-size="14" lengthAdjust="spacing" textLength="77.3965" x="116.9131" y="250.9063">depende del</text><text fill="#000000" font-family="Segoe UI" font-size="14" font-weight="bold" lengthAdjust="spacing" textLength="41.5352" x="198.1445" y="250.9063">Motor</text><text fill="#000000" font-family="Segoe UI" font-size="14" lengthAdjust="spacing" textLength="92.415" x="243.5146" y="250.9063">para funcionar,</text><text fill="#000000" font-family="Segoe UI" font-size="14" lengthAdjust="spacing" textLength="298.3818" x="33.5386" y="269.5273">aunque ambos pueden existir de manera aislada</text><!--SRC=[LOv1JWCn34NtEONf5bJsesea12mh8R5buoQUoYZZf8c3a12duWXS33V3gEhAylV__k-6nSSM2794qJR7hKyoyT4v7x5MU6YQvlJ14RuSmEsCnUC0hrfOZbr8WMAwLZIL0VRduRxNFtrTVdYEBA7WEmt0ecSf9oNnZ8jWeKljTlpF3X0eamHoJimEcZAawG8umACr4Jnr5vCeNHdt2zTYUZ5QpncZSyeQrrI708iMMepL-34h9u7DSuJTOUnzlpzMkBi_Z2kJpNxj9VsGiI1CpHucmNBt9jZar0XmFgGAkP6L0NroLIwMXXc5B85S8mRSk3y0]--></g></svg>