<svg xmlns="http://www.w3.org/2000/svg" xmlns:xlink="http://www.w3.org/1999/xlink" contentStyleType="text/css" data-diagram-type="CLASS" height="298px" preserveAspectRatio="none" style="width:460px;height:298px;" version="1.1" viewBox="0 0 460 298" width="460px" zoomAndPan="magnify"><title>Agregaci&#243;n entre Clases</title><defs/><g><text fill="#000000" font-family="Segoe UI" font-size="14" font-weight="bold" lengthAdjust="spacing" textLength="158.0811" x="144.1362" y="25.1074">Agregaci&#243;n entre Clases</text><!--class Empresa--><g id="elem_Empresa"><rect codeLine="3" fill="#F1F1F1" height="113.5703" id="Empresa" rx="2.5" ry="2.5" style="stroke:#181818;stroke-width:0.5;" width="218.4316" x="7" y="131.6211"/><ellipse cx="85.0254" cy="147.6211" fill="#ADD1B2" rx="11" ry="11" style="stroke:#181818;stroke-width:1;"/><path d="M87.791,143.4961 Q87.9473,143.2773 88.1348,143.168 Q88.3223,143.0586 88.541,143.0586 Q88.916,143.0586 89.1504,143.3242 Q89.3848,143.5742 89.3848,144.1836 L89.3848,145.6367 Q89.3848,146.2461 89.1504,146.5117 Q88.916,146.7773 88.541,146.7773 Q88.1973,146.7773 87.9941,146.5742 Q87.791,146.3867 87.6816,145.8711 Q87.6348,145.5117 87.4473,145.3242 Q87.1191,144.9492 86.5098,144.7305 Q85.9004,144.5117 85.2754,144.5117 Q84.5098,144.5117 83.8691,144.8398 Q83.2441,145.168 82.7441,145.918 Q82.2598,146.668 82.2598,147.6992 L82.2598,148.793 Q82.2598,150.0273 83.1504,150.8555 Q84.041,151.668 85.6348,151.668 Q86.5723,151.668 87.2285,151.418 Q87.6191,151.2617 88.041,150.8242 Q88.3066,150.5586 88.4473,150.4805 Q88.6035,150.4023 88.8066,150.4023 Q89.1348,150.4023 89.3848,150.668 Q89.6504,150.918 89.6504,151.2617 Q89.6504,151.6055 89.3066,152.0117 Q88.8066,152.5898 88.0098,152.918 Q86.9316,153.3711 85.6348,153.3711 Q84.1191,153.3711 82.916,152.7461 Q81.9316,152.2461 81.2441,151.1836 Q80.5566,150.1055 80.5566,148.8242 L80.5566,147.668 Q80.5566,146.3398 81.166,145.1992 Q81.791,144.043 82.8848,143.4336 Q83.9785,142.8086 85.2129,142.8086 Q85.9473,142.8086 86.5879,142.9805 Q87.2441,143.1367 87.791,143.4961 Z " fill="#000000"/><text fill="#000000" font-family="Consolas" font-size="14" font-weight="bold" lengthAdjust="spacing" textLength="53.8809" x="105.5254" y="152.2148">Empresa</text><line style="stroke:#181818;stroke-width:0.5;" x1="8" x2="224.4316" y1="163.6211" y2="163.6211"/><ellipse cx="18" cy="177.3174" fill="transparent" rx="3" ry="3" style="stroke:#038048;stroke-width:1;"/><text fill="#000000" font-family="Consolas" font-size="14" lengthAdjust="spacing" textLength="107.7617" x="27" y="180.4111">nombre: String</text><ellipse cx="18" cy="193.71" fill="transparent" rx="3" ry="3" style="stroke:#038048;stroke-width:1;"/><text fill="#000000" font-family="Consolas" font-size="14" lengthAdjust="spacing" textLength="130.8535" x="27" y="196.8037">direccion: String</text><ellipse cx="18" cy="210.1025" fill="transparent" rx="3" ry="3" style="stroke:#038048;stroke-width:1;"/><text fill="#000000" font-family="Consolas" font-size="14" lengthAdjust="spacing" textLength="123.1563" x="27" y="213.1963">telefono: String</text><ellipse cx="18" cy="226.4951" fill="transparent" rx="3" ry="3" style="stroke:#038048;stroke-width:1;"/><text fill="#000000" font-family="Consolas" font-size="14" lengthAdjust="spacing" textLength="192.4316" x="27" y="229.5889">empleados: List&lt;Empleado&gt;</text><line style="stroke:#181818;stroke-width:0.5;" x1="8" x2="224.4316" y1="237.1914" y2="237.1914"/></g><!--class Empleado--><g id="elem_Empleado"><rect codeLine="10" fill="#F1F1F1" height="113.5703" id="Empleado" rx="2.5" ry="2.5" style="stroke:#181818;stroke-width:0.5;" width="156.8535" x="296.5" y="131.6211"/><ellipse cx="339.9739" cy="147.6211" fill="#ADD1B2" rx="11" ry="11" style="stroke:#181818;stroke-width:1;"/><path d="M342.7396,143.4961 Q342.8958,143.2773 343.0833,143.168 Q343.2708,143.0586 343.4896,143.0586 Q343.8646,143.0586 344.0989,143.3242 Q344.3333,143.5742 344.3333,144.1836 L344.3333,145.6367 Q344.3333,146.2461 344.0989,146.5117 Q343.8646,146.7773 343.4896,146.7773 Q343.1458,146.7773 342.9427,146.5742 Q342.7396,146.3867 342.6302,145.8711 Q342.5833,145.5117 342.3958,145.3242 Q342.0677,144.9492 341.4583,144.7305 Q340.8489,144.5117 340.2239,144.5117 Q339.4583,144.5117 338.8177,144.8398 Q338.1927,145.168 337.6927,145.918 Q337.2083,146.668 337.2083,147.6992 L337.2083,148.793 Q337.2083,150.0273 338.0989,150.8555 Q338.9896,151.668 340.5833,151.668 Q341.5208,151.668 342.1771,151.418 Q342.5677,151.2617 342.9896,150.8242 Q343.2552,150.5586 343.3958,150.4805 Q343.5521,150.4023 343.7552,150.4023 Q344.0833,150.4023 344.3333,150.668 Q344.5989,150.918 344.5989,151.2617 Q344.5989,151.6055 344.2552,152.0117 Q343.7552,152.5898 342.9583,152.918 Q341.8802,153.3711 340.5833,153.3711 Q339.0677,153.3711 337.8646,152.7461 Q336.8802,152.2461 336.1927,151.1836 Q335.5052,150.1055 335.5052,148.8242 L335.5052,147.668 Q335.5052,146.3398 336.1146,145.1992 Q336.7396,144.043 337.8333,143.4336 Q338.9271,142.8086 340.1614,142.8086 Q340.8958,142.8086 341.5364,142.9805 Q342.1927,143.1367 342.7396,143.4961 Z " fill="#000000"/><text fill="#000000" font-family="Consolas" font-size="14" font-weight="bold" lengthAdjust="spacing" textLength="61.5781" x="360.3015" y="152.2148">Empleado</text><line style="stroke:#181818;stroke-width:0.5;" x1="297.5" x2="452.3535" y1="163.6211" y2="163.6211"/><ellipse cx="307.5" cy="177.3174" fill="transparent" rx="3" ry="3" style="stroke:#038048;stroke-width:1;"/><text fill="#000000" font-family="Consolas" font-size="14" lengthAdjust="spacing" textLength="107.7617" x="316.5" y="180.4111">nombre: String</text><ellipse cx="307.5" cy="193.71" fill="transparent" rx="3" ry="3" style="stroke:#038048;stroke-width:1;"/><text fill="#000000" font-family="Consolas" font-size="14" lengthAdjust="spacing" textLength="130.8535" x="316.5" y="196.8037">direccion: String</text><ellipse cx="307.5" cy="210.1025" fill="transparent" rx="3" ry="3" style="stroke:#038048;stroke-width:1;"/><text fill="#000000" font-family="Consolas" font-size="14" lengthAdjust="spacing" textLength="123.1563" x="316.5" y="213.1963">telefono: String</text><ellipse cx="307.5" cy="226.4951" fill="transparent" rx="3" ry="3" style="stroke:#038048;stroke-width:1;"/><text fill="#000000" font-family="Consolas" font-size="14" lengthAdjust="spacing" textLength="123.1563" x="316.5" y="229.5889">empresa: Empresa</text><line style="stroke:#181818;stroke-width:0.5;" x1="297.5" x2="452.3535" y1="237.1914" y2="237.1914"/></g><g id="elem_GMN5"><path d="M52,45.6211 L52,70.8428 A0,0 0 0 0 52,70.8428 L112,70.8428 L116,131.3311 L120,70.8428 L180.2119,70.8428 A0,0 0 0 0 180.2119,70.8428 L180.2119,55.6211 L170.2119,45.6211 L52,45.6211 A0,0 0 0 0 52,45.6211 " fill="#FEFFDD" style="stroke:#181818;stroke-width:0.5;"/><path d="M170.2119,45.6211 L170.2119,55.6211 L180.2119,55.6211 L170.2119,45.6211 " fill="#FEFFDD" style="stroke:#181818;stroke-width:0.5;"/><text fill="#000000" font-family="Consolas" font-size="13" lengthAdjust="spacing" textLength="107.2119" x="58" y="62.4976">Clase Compuesta</text></g><g id="elem_GMN8"><path d="M307.5,45.6211 L307.5,70.8428 A0,0 0 0 0 307.5,70.8428 L371,70.8428 L375,131.3311 L379,70.8428 L442.8594,70.8428 A0,0 0 0 0 442.8594,70.8428 L442.8594,55.6211 L432.8594,45.6211 L307.5,45.6211 A0,0 0 0 0 307.5,45.6211 " fill="#FEFFDD" style="stroke:#181818;stroke-width:0.5;"/><path d="M432.8594,45.6211 L432.8594,55.6211 L442.8594,55.6211 L432.8594,45.6211 " fill="#FEFFDD" style="stroke:#181818;stroke-width:0.5;"/><text fill="#000000" font-family="Consolas" font-size="13" lengthAdjust="spacing" textLength="114.3594" x="313.5" y="62.4976">Clase Componente</text></g><!--reverse link Empresa to Empleado--><g id="link_Empresa_Empleado"><path codeLine="17" d="M237.09,188.6211 C261.01,188.6211 273.88,188.6211 296.32,188.6211 " fill="transparent" id="Empresa-backto-Empleado" style="stroke:#181818;stroke-width:1;"/><polygon fill="transparent" points="225.09,188.6211,231.09,192.6211,237.09,188.6211,231.09,184.6211,225.09,188.6211" style="stroke:#181818;stroke-width:1;"/><text fill="#000000" font-family="Consolas" font-size="13" lengthAdjust="spacing" textLength="35.7373" x="243.25" y="181.4976">tiene</text></g><text fill="#000000" font-family="Segoe UI" font-size="14" lengthAdjust="spacing" textLength="25.1768" x="117.9614" y="267.2988">Si la</text><text fill="#000000" font-family="Segoe UI" font-size="14" font-weight="bold" lengthAdjust="spacing" textLength="55.7949" x="146.9731" y="267.2988">Empresa</text><text fill="#000000" font-family="Segoe UI" font-size="14" lengthAdjust="spacing" textLength="121.7891" x="206.603" y="267.2988">dejar&#225; de existir, los</text><text fill="#000000" font-family="Segoe UI" font-size="14" lengthAdjust="spacing" textLength="3.835" x="81.4131" y="285.9199">&#160;</text><text fill="#000000" font-family="Segoe UI" font-size="14" font-weight="bold" lengthAdjust="spacing" textLength="71.4287" x="85.248" y="285.9199">Empleados</text><text fill="#000000" font-family="Segoe UI" font-size="14" lengthAdjust="spacing" textLength="204.4287" x="160.5117" y="285.9199">a&#250;n podr&#237;an existir por s&#237; mismos</text><!--SRC=[hP0zQiGm48LxdMAoRVvwOmnXsIxTjcbaUMmcI3D26aCWv30vm5RfqlfYaRqsCQbJ2NsycVVUt10xFtO8qLlMCVW79zpJO8ppDcSuXPWmMtWt0BSieKrOmLaJyJ2JZX8wHy9xgEYn5vOzmn0zsavo1S-KjJwj_yPyxAmMz1zUS-Pg2pzRR3ta_jUd0YLaD8P54LGYIB_DL70ieH2E4kA8MUrVqR9Yhn96rh9CIJt2qv1mi8wcBuR24rwLkPIrKKi9E9m9l8MwRLRB-h5jeCDNcwRFyWA-bKDHkWCl-OLNuVM8YzHEtmnHkZHTB6_g0XBawGA1Sf1yC3y0]--></g></svg>