<svg xmlns="http://www.w3.org/2000/svg" xmlns:xlink="http://www.w3.org/1999/xlink" contentStyleType="text/css" data-diagram-type="CLASS" height="265px" preserveAspectRatio="none" style="width:522px;height:265px;" version="1.1" viewBox="0 0 522 265" width="522px" zoomAndPan="magnify"><title>Uso entre Clases</title><defs/><g><text fill="#000000" font-family="Segoe UI" font-size="14" font-weight="bold" lengthAdjust="spacing" textLength="107.3447" x="200.4312" y="25.1074">Uso entre Clases</text><!--class Documento--><g id="elem_Documento"><rect codeLine="3" fill="#F1F1F1" height="80.7852" id="Documento" rx="2.5" ry="2.5" style="stroke:#181818;stroke-width:0.5;" width="149.1563" x="7" y="131.6211"/><ellipse cx="43.5464" cy="147.6211" fill="#ADD1B2" rx="11" ry="11" style="stroke:#181818;stroke-width:1;"/><path d="M46.312,143.4961 Q46.4683,143.2773 46.6558,143.168 Q46.8433,143.0586 47.062,143.0586 Q47.437,143.0586 47.6714,143.3242 Q47.9058,143.5742 47.9058,144.1836 L47.9058,145.6367 Q47.9058,146.2461 47.6714,146.5117 Q47.437,146.7773 47.062,146.7773 Q46.7183,146.7773 46.5151,146.5742 Q46.312,146.3867 46.2026,145.8711 Q46.1558,145.5117 45.9683,145.3242 Q45.6401,144.9492 45.0308,144.7305 Q44.4214,144.5117 43.7964,144.5117 Q43.0308,144.5117 42.3901,144.8398 Q41.7651,145.168 41.2651,145.918 Q40.7808,146.668 40.7808,147.6992 L40.7808,148.793 Q40.7808,150.0273 41.6714,150.8555 Q42.562,151.668 44.1558,151.668 Q45.0933,151.668 45.7495,151.418 Q46.1401,151.2617 46.562,150.8242 Q46.8276,150.5586 46.9683,150.4805 Q47.1245,150.4023 47.3276,150.4023 Q47.6558,150.4023 47.9058,150.668 Q48.1714,150.918 48.1714,151.2617 Q48.1714,151.6055 47.8276,152.0117 Q47.3276,152.5898 46.5308,152.918 Q45.4526,153.3711 44.1558,153.3711 Q42.6401,153.3711 41.437,152.7461 Q40.4526,152.2461 39.7651,151.1836 Q39.0776,150.1055 39.0776,148.8242 L39.0776,147.668 Q39.0776,146.3398 39.687,145.1992 Q40.312,144.043 41.4058,143.4336 Q42.4995,142.8086 43.7339,142.8086 Q44.4683,142.8086 45.1089,142.9805 Q45.7651,143.1367 46.312,143.4961 Z " fill="#000000"/><text fill="#000000" font-family="Consolas" font-size="14" font-weight="bold" lengthAdjust="spacing" textLength="69.2754" x="62.3345" y="152.2148">Documento</text><line style="stroke:#181818;stroke-width:0.5;" x1="8" x2="155.1563" y1="163.6211" y2="163.6211"/><ellipse cx="18" cy="177.3174" fill="transparent" rx="3" ry="3" style="stroke:#038048;stroke-width:1;"/><text fill="#000000" font-family="Consolas" font-size="14" lengthAdjust="spacing" textLength="100.0645" x="27" y="180.4111">String nombre</text><ellipse cx="18" cy="193.71" fill="transparent" rx="3" ry="3" style="stroke:#038048;stroke-width:1;"/><text fill="#000000" font-family="Consolas" font-size="14" lengthAdjust="spacing" textLength="123.1563" x="27" y="196.8037">String contenido</text><line style="stroke:#181818;stroke-width:0.5;" x1="8" x2="155.1563" y1="204.4063" y2="204.4063"/></g><!--class Impresora--><g id="elem_Impresora"><rect codeLine="8" fill="#F1F1F1" height="80.7852" id="Impresora" rx="2.5" ry="2.5" style="stroke:#181818;stroke-width:0.5;" width="287.707" x="227.5" y="131.6211"/><ellipse cx="332.4658" cy="147.6211" fill="#ADD1B2" rx="11" ry="11" style="stroke:#181818;stroke-width:1;"/><path d="M335.2314,143.4961 Q335.3877,143.2773 335.5752,143.168 Q335.7627,143.0586 335.9814,143.0586 Q336.3564,143.0586 336.5908,143.3242 Q336.8252,143.5742 336.8252,144.1836 L336.8252,145.6367 Q336.8252,146.2461 336.5908,146.5117 Q336.3564,146.7773 335.9814,146.7773 Q335.6377,146.7773 335.4346,146.5742 Q335.2314,146.3867 335.1221,145.8711 Q335.0752,145.5117 334.8877,145.3242 Q334.5596,144.9492 333.9502,144.7305 Q333.3408,144.5117 332.7158,144.5117 Q331.9502,144.5117 331.3096,144.8398 Q330.6846,145.168 330.1846,145.918 Q329.7002,146.668 329.7002,147.6992 L329.7002,148.793 Q329.7002,150.0273 330.5908,150.8555 Q331.4814,151.668 333.0752,151.668 Q334.0127,151.668 334.6689,151.418 Q335.0596,151.2617 335.4814,150.8242 Q335.7471,150.5586 335.8877,150.4805 Q336.0439,150.4023 336.2471,150.4023 Q336.5752,150.4023 336.8252,150.668 Q337.0908,150.918 337.0908,151.2617 Q337.0908,151.6055 336.7471,152.0117 Q336.2471,152.5898 335.4502,152.918 Q334.3721,153.3711 333.0752,153.3711 Q331.5596,153.3711 330.3564,152.7461 Q329.3721,152.2461 328.6846,151.1836 Q327.9971,150.1055 327.9971,148.8242 L327.9971,147.668 Q327.9971,146.3398 328.6064,145.1992 Q329.2314,144.043 330.3252,143.4336 Q331.4189,142.8086 332.6533,142.8086 Q333.3877,142.8086 334.0283,142.9805 Q334.6846,143.1367 335.2314,143.4961 Z " fill="#000000"/><text fill="#000000" font-family="Consolas" font-size="14" font-weight="bold" lengthAdjust="spacing" textLength="69.2754" x="352.9658" y="152.2148">Impresora</text><line style="stroke:#181818;stroke-width:0.5;" x1="228.5" x2="514.207" y1="163.6211" y2="163.6211"/><ellipse cx="238.5" cy="177.3174" fill="transparent" rx="3" ry="3" style="stroke:#038048;stroke-width:1;"/><text fill="#000000" font-family="Consolas" font-size="14" lengthAdjust="spacing" textLength="100.0645" x="247.5" y="180.4111">String nombre</text><line style="stroke:#181818;stroke-width:0.5;" x1="228.5" x2="514.207" y1="188.0137" y2="188.0137"/><ellipse cx="238.5" cy="201.71" fill="#84BE84" rx="3" ry="3" style="stroke:#038048;stroke-width:1;"/><text fill="#000000" font-family="Consolas" font-size="14" lengthAdjust="spacing" textLength="261.707" x="247.5" y="204.8037">void imprimir(Documento documento)</text></g><g id="elem_GMN5"><path d="M10,45.6211 L10,70.8428 A0,0 0 0 0 10,70.8428 L77.5,70.8428 L81.5,131.3811 L85.5,70.8428 L152.5068,70.8428 A0,0 0 0 0 152.5068,70.8428 L152.5068,55.6211 L142.5068,45.6211 L10,45.6211 A0,0 0 0 0 10,45.6211 " fill="#FEFFDD" style="stroke:#181818;stroke-width:0.5;"/><path d="M142.5068,45.6211 L142.5068,55.6211 L152.5068,55.6211 L142.5068,45.6211 " fill="#FEFFDD" style="stroke:#181818;stroke-width:0.5;"/><text fill="#000000" font-family="Consolas" font-size="13" lengthAdjust="spacing" textLength="121.5068" x="16" y="62.4976">Clase Dependiente</text></g><g id="elem_GMN8"><path d="M307.5,45.6211 L307.5,70.8428 A0,0 0 0 0 307.5,70.8428 L367.5,70.8428 L371.5,131.3811 L375.5,70.8428 L435.7119,70.8428 A0,0 0 0 0 435.7119,70.8428 L435.7119,55.6211 L425.7119,45.6211 L307.5,45.6211 A0,0 0 0 0 307.5,45.6211 " fill="#FEFFDD" style="stroke:#181818;stroke-width:0.5;"/><path d="M425.7119,45.6211 L425.7119,55.6211 L435.7119,55.6211 L425.7119,45.6211 " fill="#FEFFDD" style="stroke:#181818;stroke-width:0.5;"/><text fill="#000000" font-family="Consolas" font-size="13" lengthAdjust="spacing" textLength="107.2119" x="313.5" y="62.4976">Clase Principal</text></g><!--link Documento to Impresora--><g id="link_Documento_Impresora"><path codeLine="13" d="M156.18,172.1211 C178.08,172.1211 196.81,172.1211 221.49,172.1211 " fill="transparent" id="Documento-to-Impresora" style="stroke:#181818;stroke-width:1;stroke-dasharray:7.0,7.0;"/><polygon fill="#181818" points="227.49,172.1211,218.49,168.1211,222.49,172.1211,218.49,176.1211,227.49,172.1211" style="stroke:#181818;stroke-width:1;"/><text fill="#000000" font-family="Consolas" font-size="13" lengthAdjust="spacing" textLength="35.7373" x="174.25" y="164.9976">&#171;use&#187;</text></g><text fill="#000000" font-family="Segoe UI" font-size="14" lengthAdjust="spacing" textLength="17.541" x="81.7695" y="234.5137">Un</text><text fill="#000000" font-family="Segoe UI" font-size="14" font-weight="bold" lengthAdjust="spacing" textLength="76.9453" x="103.1455" y="234.5137">Documento</text><text fill="#000000" font-family="Segoe UI" font-size="14" lengthAdjust="spacing" textLength="47.79" x="183.9258" y="234.5137">usa una</text><text fill="#000000" font-family="Segoe UI" font-size="14" font-weight="bold" lengthAdjust="spacing" textLength="66.9102" x="235.5508" y="234.5137">Impresora</text><text fill="#000000" font-family="Segoe UI" font-size="14" lengthAdjust="spacing" textLength="120.1416" x="306.2959" y="234.5137">y sus m&#233;todos para</text><text fill="#000000" font-family="Segoe UI" font-size="14" lengthAdjust="spacing" textLength="397.749" x="55.229" y="253.1348">imprimir, ya que no tiene la capacidad de imprimir por s&#237; mismo.</text><!--SRC=[TL4xJWCn4ErzYaSg46ZfezKsf4c7XDBHJDQJQ2JRO_n1YX07ek0KkHWEqIPBGMUzURyPtqWONRMCw2YKwbqtQjZ9tfZHKSvOwLWzXwBuCC3zIqaIzWZgjubdG1CL3cBLV4xAjO-9ioRwH_ckOY6D95xIxJN7Jg-xazSLxuQPvH9zNpCFWp512wDeXEvcRPTuQYqOAuuSh3IC_p3dLcVcS-itIYHdJ97Y69kiQBh4Pq9kYr4ieW6BJK2_7Ivf_UDsGCs46kWqk9Z_3Wx8DSCVlufQpOYKw3LCYp_WG7Yht0w3qceo7A7bq2YMBDh7J4n4JSZ7RtZ9Nhk5-G40]--></g></svg>