<svg xmlns="http://www.w3.org/2000/svg" xmlns:xlink="http://www.w3.org/1999/xlink" contentStyleType="text/css" data-diagram-type="CLASS" height="298px" preserveAspectRatio="none" style="width:491px;height:298px;" version="1.1" viewBox="0 0 491 298" width="491px" zoomAndPan="magnify"><title>Asociaci&#243;n Dirigida entre Clases</title><defs/><g><text fill="#000000" font-family="Segoe UI" font-size="14" font-weight="bold" lengthAdjust="spacing" textLength="209.5762" x="133.7832" y="25.1074">Asociaci&#243;n Dirigida entre Clases</text><!--class Maestro--><g id="elem_Maestro"><rect codeLine="3" fill="#F1F1F1" height="113.5703" id="Maestro" rx="2.5" ry="2.5" style="stroke:#181818;stroke-width:0.5;" width="203.0371" x="7" y="131.6211"/><ellipse cx="77.3281" cy="147.6211" fill="#ADD1B2" rx="11" ry="11" style="stroke:#181818;stroke-width:1;"/><path d="M80.0938,143.4961 Q80.25,143.2773 80.4375,143.168 Q80.625,143.0586 80.8438,143.0586 Q81.2188,143.0586 81.4531,143.3242 Q81.6875,143.5742 81.6875,144.1836 L81.6875,145.6367 Q81.6875,146.2461 81.4531,146.5117 Q81.2188,146.7773 80.8438,146.7773 Q80.5,146.7773 80.2969,146.5742 Q80.0938,146.3867 79.9844,145.8711 Q79.9375,145.5117 79.75,145.3242 Q79.4219,144.9492 78.8125,144.7305 Q78.2031,144.5117 77.5781,144.5117 Q76.8125,144.5117 76.1719,144.8398 Q75.5469,145.168 75.0469,145.918 Q74.5625,146.668 74.5625,147.6992 L74.5625,148.793 Q74.5625,150.0273 75.4531,150.8555 Q76.3438,151.668 77.9375,151.668 Q78.875,151.668 79.5313,151.418 Q79.9219,151.2617 80.3438,150.8242 Q80.6094,150.5586 80.75,150.4805 Q80.9063,150.4023 81.1094,150.4023 Q81.4375,150.4023 81.6875,150.668 Q81.9531,150.918 81.9531,151.2617 Q81.9531,151.6055 81.6094,152.0117 Q81.1094,152.5898 80.3125,152.918 Q79.2344,153.3711 77.9375,153.3711 Q76.4219,153.3711 75.2188,152.7461 Q74.2344,152.2461 73.5469,151.1836 Q72.8594,150.1055 72.8594,148.8242 L72.8594,147.668 Q72.8594,146.3398 73.4688,145.1992 Q74.0938,144.043 75.1875,143.4336 Q76.2813,142.8086 77.5156,142.8086 Q78.25,142.8086 78.8906,142.9805 Q79.5469,143.1367 80.0938,143.4961 Z " fill="#000000"/><text fill="#000000" font-family="Consolas" font-size="14" font-weight="bold" lengthAdjust="spacing" textLength="53.8809" x="97.8281" y="152.2148">Maestro</text><line style="stroke:#181818;stroke-width:0.5;" x1="8" x2="209.0371" y1="163.6211" y2="163.6211"/><ellipse cx="18" cy="177.3174" fill="transparent" rx="3" ry="3" style="stroke:#038048;stroke-width:1;"/><text fill="#000000" font-family="Consolas" font-size="14" lengthAdjust="spacing" textLength="107.7617" x="27" y="180.4111">nombre: String</text><ellipse cx="18" cy="193.71" fill="transparent" rx="3" ry="3" style="stroke:#038048;stroke-width:1;"/><text fill="#000000" font-family="Consolas" font-size="14" lengthAdjust="spacing" textLength="130.8535" x="27" y="196.8037">direccion: String</text><ellipse cx="18" cy="210.1025" fill="transparent" rx="3" ry="3" style="stroke:#038048;stroke-width:1;"/><text fill="#000000" font-family="Consolas" font-size="14" lengthAdjust="spacing" textLength="123.1563" x="27" y="213.1963">telefono: String</text><ellipse cx="18" cy="226.4951" fill="transparent" rx="3" ry="3" style="stroke:#038048;stroke-width:1;"/><text fill="#000000" font-family="Consolas" font-size="14" lengthAdjust="spacing" textLength="177.0371" x="27" y="229.5889">materias: List&lt;Materia&gt;</text><line style="stroke:#181818;stroke-width:0.5;" x1="8" x2="209.0371" y1="237.1914" y2="237.1914"/></g><!--class Curso--><g id="elem_Curso"><rect codeLine="10" fill="#F1F1F1" height="97.1777" id="Curso" rx="2.5" ry="2.5" style="stroke:#181818;stroke-width:0.5;" width="187.6426" x="296.5" y="140.1211"/><ellipse cx="366.8281" cy="156.1211" fill="#ADD1B2" rx="11" ry="11" style="stroke:#181818;stroke-width:1;"/><path d="M369.5938,151.9961 Q369.75,151.7773 369.9375,151.668 Q370.125,151.5586 370.3438,151.5586 Q370.7188,151.5586 370.9531,151.8242 Q371.1875,152.0742 371.1875,152.6836 L371.1875,154.1367 Q371.1875,154.7461 370.9531,155.0117 Q370.7188,155.2773 370.3438,155.2773 Q370,155.2773 369.7969,155.0742 Q369.5938,154.8867 369.4844,154.3711 Q369.4375,154.0117 369.25,153.8242 Q368.9219,153.4492 368.3125,153.2305 Q367.7031,153.0117 367.0781,153.0117 Q366.3125,153.0117 365.6719,153.3398 Q365.0469,153.668 364.5469,154.418 Q364.0625,155.168 364.0625,156.1992 L364.0625,157.293 Q364.0625,158.5273 364.9531,159.3555 Q365.8438,160.168 367.4375,160.168 Q368.375,160.168 369.0313,159.918 Q369.4219,159.7617 369.8438,159.3242 Q370.1094,159.0586 370.25,158.9805 Q370.4063,158.9023 370.6094,158.9023 Q370.9375,158.9023 371.1875,159.168 Q371.4531,159.418 371.4531,159.7617 Q371.4531,160.1055 371.1094,160.5117 Q370.6094,161.0898 369.8125,161.418 Q368.7344,161.8711 367.4375,161.8711 Q365.9219,161.8711 364.7188,161.2461 Q363.7344,160.7461 363.0469,159.6836 Q362.3594,158.6055 362.3594,157.3242 L362.3594,156.168 Q362.3594,154.8398 362.9688,153.6992 Q363.5938,152.543 364.6875,151.9336 Q365.7813,151.3086 367.0156,151.3086 Q367.75,151.3086 368.3906,151.4805 Q369.0469,151.6367 369.5938,151.9961 Z " fill="#000000"/><text fill="#000000" font-family="Consolas" font-size="14" font-weight="bold" lengthAdjust="spacing" textLength="38.4863" x="387.3281" y="160.7148">Curso</text><line style="stroke:#181818;stroke-width:0.5;" x1="297.5" x2="483.1426" y1="172.1211" y2="172.1211"/><ellipse cx="307.5" cy="185.8174" fill="transparent" rx="3" ry="3" style="stroke:#038048;stroke-width:1;"/><text fill="#000000" font-family="Consolas" font-size="14" lengthAdjust="spacing" textLength="107.7617" x="316.5" y="188.9111">nombre: String</text><ellipse cx="307.5" cy="202.21" fill="transparent" rx="3" ry="3" style="stroke:#038048;stroke-width:1;"/><text fill="#000000" font-family="Consolas" font-size="14" lengthAdjust="spacing" textLength="123.1563" x="316.5" y="205.3037">maestro: Maestro</text><ellipse cx="307.5" cy="218.6025" fill="transparent" rx="3" ry="3" style="stroke:#038048;stroke-width:1;"/><text fill="#000000" font-family="Consolas" font-size="14" lengthAdjust="spacing" textLength="161.6426" x="316.5" y="221.6963">alumnos: List&lt;Alumno&gt;</text><line style="stroke:#181818;stroke-width:0.5;" x1="297.5" x2="483.1426" y1="229.2988" y2="229.2988"/></g><g id="elem_GMN5"><path d="M44.5,45.6211 L44.5,70.8428 A0,0 0 0 0 44.5,70.8428 L104.5,70.8428 L108.5,131.3311 L112.5,70.8428 L172.7119,70.8428 A0,0 0 0 0 172.7119,70.8428 L172.7119,55.6211 L162.7119,45.6211 L44.5,45.6211 A0,0 0 0 0 44.5,45.6211 " fill="#FEFFDD" style="stroke:#181818;stroke-width:0.5;"/><path d="M162.7119,45.6211 L162.7119,55.6211 L172.7119,55.6211 L162.7119,45.6211 " fill="#FEFFDD" style="stroke:#181818;stroke-width:0.5;"/><text fill="#000000" font-family="Consolas" font-size="13" lengthAdjust="spacing" textLength="107.2119" x="50.5" y="62.4976">Clase Principal</text></g><g id="elem_GMN8"><path d="M319,45.6211 L319,70.8428 A0,0 0 0 0 319,70.8428 L386.5,70.8428 L390.5,140.0511 L394.5,70.8428 L461.5068,70.8428 A0,0 0 0 0 461.5068,70.8428 L461.5068,55.6211 L451.5068,45.6211 L319,45.6211 A0,0 0 0 0 319,45.6211 " fill="#FEFFDD" style="stroke:#181818;stroke-width:0.5;"/><path d="M451.5068,45.6211 L451.5068,55.6211 L461.5068,55.6211 L451.5068,45.6211 " fill="#FEFFDD" style="stroke:#181818;stroke-width:0.5;"/><text fill="#000000" font-family="Consolas" font-size="13" lengthAdjust="spacing" textLength="121.5068" x="325" y="62.4976">Clase Dependiente</text></g><!--link Maestro to Curso--><g id="link_Maestro_Curso"><path codeLine="16" d="M210.31,188.6211 C238.39,188.6211 262.73,188.6211 290.35,188.6211 " fill="transparent" id="Maestro-to-Curso" style="stroke:#181818;stroke-width:1;"/><polygon fill="#181818" points="296.35,188.6211,287.35,184.6211,291.35,188.6211,287.35,192.6211,296.35,188.6211" style="stroke:#181818;stroke-width:1;"/><text fill="#000000" font-family="Consolas" font-size="13" lengthAdjust="spacing" textLength="50.0322" x="228.25" y="181.4976">imparte</text></g><text fill="#000000" font-family="Segoe UI" font-size="14" lengthAdjust="spacing" textLength="17.541" x="103.7563" y="267.2988">Un</text><text fill="#000000" font-family="Segoe UI" font-size="14" font-weight="bold" lengthAdjust="spacing" textLength="54.2432" x="125.1323" y="267.2988">Maestro</text><text fill="#000000" font-family="Segoe UI" font-size="14" lengthAdjust="spacing" textLength="129.7666" x="183.2104" y="267.2988">est&#225; asociado con un</text><text fill="#000000" font-family="Segoe UI" font-size="14" font-weight="bold" lengthAdjust="spacing" textLength="37.4951" x="316.812" y="267.2988">Curso</text><text fill="#000000" font-family="Segoe UI" font-size="14" lengthAdjust="spacing" textLength="15.2441" x="358.1421" y="267.2988">en</text><text fill="#000000" font-family="Segoe UI" font-size="14" lengthAdjust="spacing" textLength="292.5576" x="92.2925" y="285.9199">particular dentro del sistema de gesti&#243;n escolar</text><!--SRC=[TP11QWCn34NtFeMQRMcx7uQ1a2mR29Jkkj7OoY2mfS7sh4eFqpFq2BbOFPuOqaLNbiJt-rzwOB5-SGIpHybByCzMvSAJCTPZId12IZagV1g0Hz4mHkhWBKUMQPquZcGjgzmFCtcwgEZzB62co9WwUEMK-zFM3kQh6HsMcFwr2LkAhiLPP-YN8Dg0-zfLNelyDDoW7N2OCMOoHZGJP9r1ButLmQ4483WNCyip-Z-YIcYI8yqaZabMLERi2VP9BQFbwu_0aIDFx12A8DBs9vNzSCxbGh1x5-Z7uMRRlum3bEhw3LWPJg6S7fOgghQRH3va3SzsyHZ1hMmjZuTKzgQ0fOQfW6e4IbQBR6T-0G00]--></g></svg>