<svg xmlns="http://www.w3.org/2000/svg" xmlns:xlink="http://www.w3.org/1999/xlink" contentStyleType="text/css" data-diagram-type="CLASS" height="298px" preserveAspectRatio="none" style="width:414px;height:298px;" version="1.1" viewBox="0 0 414 298" width="414px" zoomAndPan="magnify"><title>Asociaci&#243;n entre Clases</title><defs/><g><text fill="#000000" font-family="Segoe UI" font-size="14" font-weight="bold" lengthAdjust="spacing" textLength="153.0156" x="123.6689" y="25.1074">Asociaci&#243;n entre Clases</text><!--class Biblioteca--><g id="elem_Biblioteca"><rect codeLine="3" fill="#F1F1F1" height="113.5703" id="Biblioteca" rx="2.5" ry="2.5" style="stroke:#181818;stroke-width:0.5;" width="172.248" x="7" y="131.6211"/><ellipse cx="50.4739" cy="147.6211" fill="#ADD1B2" rx="11" ry="11" style="stroke:#181818;stroke-width:1;"/><path d="M53.2396,143.4961 Q53.3958,143.2773 53.5833,143.168 Q53.7708,143.0586 53.9896,143.0586 Q54.3646,143.0586 54.5989,143.3242 Q54.8333,143.5742 54.8333,144.1836 L54.8333,145.6367 Q54.8333,146.2461 54.5989,146.5117 Q54.3646,146.7773 53.9896,146.7773 Q53.6458,146.7773 53.4427,146.5742 Q53.2396,146.3867 53.1302,145.8711 Q53.0833,145.5117 52.8958,145.3242 Q52.5677,144.9492 51.9583,144.7305 Q51.3489,144.5117 50.7239,144.5117 Q49.9583,144.5117 49.3177,144.8398 Q48.6927,145.168 48.1927,145.918 Q47.7083,146.668 47.7083,147.6992 L47.7083,148.793 Q47.7083,150.0273 48.5989,150.8555 Q49.4896,151.668 51.0833,151.668 Q52.0208,151.668 52.6771,151.418 Q53.0677,151.2617 53.4896,150.8242 Q53.7552,150.5586 53.8958,150.4805 Q54.0521,150.4023 54.2552,150.4023 Q54.5833,150.4023 54.8333,150.668 Q55.0989,150.918 55.0989,151.2617 Q55.0989,151.6055 54.7552,152.0117 Q54.2552,152.5898 53.4583,152.918 Q52.3802,153.3711 51.0833,153.3711 Q49.5677,153.3711 48.3646,152.7461 Q47.3802,152.2461 46.6927,151.1836 Q46.0052,150.1055 46.0052,148.8242 L46.0052,147.668 Q46.0052,146.3398 46.6146,145.1992 Q47.2396,144.043 48.3333,143.4336 Q49.4271,142.8086 50.6614,142.8086 Q51.3958,142.8086 52.0364,142.9805 Q52.6927,143.1367 53.2396,143.4961 Z " fill="#000000"/><text fill="#000000" font-family="Consolas" font-size="14" font-weight="bold" lengthAdjust="spacing" textLength="76.9727" x="70.8015" y="152.2148">Biblioteca</text><line style="stroke:#181818;stroke-width:0.5;" x1="8" x2="178.248" y1="163.6211" y2="163.6211"/><ellipse cx="18" cy="177.3174" fill="transparent" rx="3" ry="3" style="stroke:#038048;stroke-width:1;"/><text fill="#000000" font-family="Consolas" font-size="14" lengthAdjust="spacing" textLength="107.7617" x="27" y="180.4111">nombre: String</text><ellipse cx="18" cy="193.71" fill="transparent" rx="3" ry="3" style="stroke:#038048;stroke-width:1;"/><text fill="#000000" font-family="Consolas" font-size="14" lengthAdjust="spacing" textLength="130.8535" x="27" y="196.8037">direccion: String</text><ellipse cx="18" cy="210.1025" fill="transparent" rx="3" ry="3" style="stroke:#038048;stroke-width:1;"/><text fill="#000000" font-family="Consolas" font-size="14" lengthAdjust="spacing" textLength="123.1563" x="27" y="213.1963">telefono: String</text><ellipse cx="18" cy="226.4951" fill="transparent" rx="3" ry="3" style="stroke:#038048;stroke-width:1;"/><text fill="#000000" font-family="Consolas" font-size="14" lengthAdjust="spacing" textLength="146.248" x="27" y="229.5889">libros: List&lt;Libro&gt;</text><line style="stroke:#181818;stroke-width:0.5;" x1="8" x2="178.248" y1="237.1914" y2="237.1914"/></g><!--class Libro--><g id="elem_Libro"><rect codeLine="10" fill="#F1F1F1" height="113.5703" id="Libro" rx="2.5" ry="2.5" style="stroke:#181818;stroke-width:0.5;" width="156.8535" x="250.5" y="131.6211"/><ellipse cx="305.4336" cy="147.6211" fill="#ADD1B2" rx="11" ry="11" style="stroke:#181818;stroke-width:1;"/><path d="M308.1992,143.4961 Q308.3555,143.2773 308.543,143.168 Q308.7305,143.0586 308.9492,143.0586 Q309.3242,143.0586 309.5586,143.3242 Q309.793,143.5742 309.793,144.1836 L309.793,145.6367 Q309.793,146.2461 309.5586,146.5117 Q309.3242,146.7773 308.9492,146.7773 Q308.6055,146.7773 308.4023,146.5742 Q308.1992,146.3867 308.0898,145.8711 Q308.043,145.5117 307.8555,145.3242 Q307.5273,144.9492 306.918,144.7305 Q306.3086,144.5117 305.6836,144.5117 Q304.918,144.5117 304.2773,144.8398 Q303.6523,145.168 303.1523,145.918 Q302.668,146.668 302.668,147.6992 L302.668,148.793 Q302.668,150.0273 303.5586,150.8555 Q304.4492,151.668 306.043,151.668 Q306.9805,151.668 307.6367,151.418 Q308.0273,151.2617 308.4492,150.8242 Q308.7148,150.5586 308.8555,150.4805 Q309.0117,150.4023 309.2148,150.4023 Q309.543,150.4023 309.793,150.668 Q310.0586,150.918 310.0586,151.2617 Q310.0586,151.6055 309.7148,152.0117 Q309.2148,152.5898 308.418,152.918 Q307.3398,153.3711 306.043,153.3711 Q304.5273,153.3711 303.3242,152.7461 Q302.3398,152.2461 301.6523,151.1836 Q300.9648,150.1055 300.9648,148.8242 L300.9648,147.668 Q300.9648,146.3398 301.5742,145.1992 Q302.1992,144.043 303.293,143.4336 Q304.3867,142.8086 305.6211,142.8086 Q306.3555,142.8086 306.9961,142.9805 Q307.6523,143.1367 308.1992,143.4961 Z " fill="#000000"/><text fill="#000000" font-family="Consolas" font-size="14" font-weight="bold" lengthAdjust="spacing" textLength="38.4863" x="325.9336" y="152.2148">Libro</text><line style="stroke:#181818;stroke-width:0.5;" x1="251.5" x2="406.3535" y1="163.6211" y2="163.6211"/><ellipse cx="261.5" cy="177.3174" fill="transparent" rx="3" ry="3" style="stroke:#038048;stroke-width:1;"/><text fill="#000000" font-family="Consolas" font-size="14" lengthAdjust="spacing" textLength="107.7617" x="270.5" y="180.4111">titulo: String</text><ellipse cx="261.5" cy="193.71" fill="transparent" rx="3" ry="3" style="stroke:#038048;stroke-width:1;"/><text fill="#000000" font-family="Consolas" font-size="14" lengthAdjust="spacing" textLength="100.0645" x="270.5" y="196.8037">autor: String</text><ellipse cx="261.5" cy="210.1025" fill="transparent" rx="3" ry="3" style="stroke:#038048;stroke-width:1;"/><text fill="#000000" font-family="Consolas" font-size="14" lengthAdjust="spacing" textLength="130.8535" x="270.5" y="213.1963">editorial: String</text><ellipse cx="261.5" cy="226.4951" fill="transparent" rx="3" ry="3" style="stroke:#038048;stroke-width:1;"/><text fill="#000000" font-family="Consolas" font-size="14" lengthAdjust="spacing" textLength="92.3672" x="270.5" y="229.5889">isbn: String</text><line style="stroke:#181818;stroke-width:0.5;" x1="251.5" x2="406.3535" y1="237.1914" y2="237.1914"/></g><g id="elem_GMN5"><path d="M39.5,45.6211 L39.5,70.8428 A0,0 0 0 0 39.5,70.8428 L89,70.8428 L93,131.3311 L97,70.8428 L146.2695,70.8428 A0,0 0 0 0 146.2695,70.8428 L146.2695,55.6211 L136.2695,45.6211 L39.5,45.6211 A0,0 0 0 0 39.5,45.6211 " fill="#FEFFDD" style="stroke:#181818;stroke-width:0.5;"/><path d="M136.2695,45.6211 L136.2695,55.6211 L146.2695,55.6211 L136.2695,45.6211 " fill="#FEFFDD" style="stroke:#181818;stroke-width:0.5;"/><text fill="#000000" font-family="Consolas" font-size="13" lengthAdjust="spacing" textLength="85.7695" x="45.5" y="62.4976">Clase Fuente</text></g><g id="elem_GMN8"><path d="M272,45.6211 L272,70.8428 A0,0 0 0 0 272,70.8428 L325,70.8428 L329,131.3311 L333,70.8428 L385.917,70.8428 A0,0 0 0 0 385.917,70.8428 L385.917,55.6211 L375.917,45.6211 L272,45.6211 A0,0 0 0 0 272,45.6211 " fill="#FEFFDD" style="stroke:#181818;stroke-width:0.5;"/><path d="M375.917,45.6211 L375.917,55.6211 L385.917,55.6211 L375.917,45.6211 " fill="#FEFFDD" style="stroke:#181818;stroke-width:0.5;"/><text fill="#000000" font-family="Consolas" font-size="13" lengthAdjust="spacing" textLength="92.917" x="278" y="62.4976">Clase Destino</text></g><!--link Biblioteca to Libro--><g id="link_Biblioteca_Libro"><path codeLine="17" d="M179.2,188.6211 C202.51,188.6211 227.6,188.6211 250.46,188.6211 " fill="transparent" id="Biblioteca-Libro" style="stroke:#181818;stroke-width:1;"/><text fill="#000000" font-family="Consolas" font-size="13" lengthAdjust="spacing" textLength="35.7373" x="197.25" y="181.4976">tiene</text></g><text fill="#000000" font-family="Segoe UI" font-size="14" lengthAdjust="spacing" textLength="31.1582" x="63.9399" y="267.2988">Cada</text><text fill="#000000" font-family="Segoe UI" font-size="14" font-weight="bold" lengthAdjust="spacing" textLength="65.4268" x="98.9331" y="267.2988">Biblioteca</text><text fill="#000000" font-family="Segoe UI" font-size="14" lengthAdjust="spacing" textLength="168.2188" x="168.1948" y="267.2988">contiene m&#250;ltiples Libros, y</text><text fill="#000000" font-family="Segoe UI" font-size="14" lengthAdjust="spacing" textLength="28.957" x="53.1733" y="285.9199">cada</text><text fill="#000000" font-family="Segoe UI" font-size="14" font-weight="bold" lengthAdjust="spacing" textLength="33.9473" x="85.9653" y="285.9199">Libro</text><text fill="#000000" font-family="Segoe UI" font-size="14" lengthAdjust="spacing" textLength="227.2676" x="123.7476" y="285.9199">pertenece a una Biblioteca espec&#237;fica</text><!--SRC=[LP0xRiCm38PtdOBDsjTk60RQ19soTUqYoNH0G245YHgAeaVgrAshBrR5SH1br2V-3_AEs8So8iHWMSinF7dXYGx6-61pXbToWKJHM_Wo0FSiHvUmWtTDn8SJ6IcXzoJSGiM0ax2qB91BaZlOKzP-VteCvlkIixpF4KfQmetI5fNK0Xof4hAXXPJTjKCrRge_hluTA26ZCJKZ8BnayMGzpRyCo9eGjhKCvbhAHgqhmMPhHmkz6wvc_RCRe1vfSOBZ_1UKOi1rXVm0dnyCVfKjR554J5e57i52OTiU5dD4F_zCvEt66AuGL2B8r0nrvshmLcfHl1bQCYx_EynABEOV]--></g></svg>