<svg xmlns="http://www.w3.org/2000/svg" xmlns:xlink="http://www.w3.org/1999/xlink" contentStyleType="text/css" data-diagram-type="CLASS" height="354px" preserveAspectRatio="none" style="width:382px;height:354px;" version="1.1" viewBox="0 0 382 354" width="382px" zoomAndPan="magnify"><title>Realizaci&#243;n de la clase Propietario</title><defs/><g><text fill="#000000" font-family="Segoe UI" font-size="14" font-weight="bold" lengthAdjust="spacing" textLength="223.3848" x="75.5083" y="25.1074">Realizaci&#243;n de la clase Propietario</text><!--class Propietario--><g id="elem_Propietario"><rect codeLine="4" fill="#F1F1F1" height="97.1777" id="Propietario" rx="2.5" ry="2.5" style="stroke:#181818;stroke-width:0.5;" width="287.707" x="44.3267" y="46.6211"/><ellipse cx="141.5952" cy="62.6211" fill="#B4A7E5" rx="11" ry="11" style="stroke:#181818;stroke-width:1;"/><path d="M142.5483,59.2617 L142.5483,65.918 L144.2671,65.918 Q144.8765,65.918 145.1421,66.1523 Q145.4077,66.3867 145.4077,66.7773 Q145.4077,67.1523 145.1421,67.3867 Q144.8765,67.6211 144.2671,67.6211 L139.1265,67.6211 Q138.5171,67.6211 138.2515,67.3867 Q137.9858,67.1523 137.9858,66.7617 Q137.9858,66.3867 138.2515,66.1523 Q138.5171,65.918 139.1265,65.918 L140.8452,65.918 L140.8452,59.2617 L139.1265,59.2617 Q138.5171,59.2617 138.2515,59.0273 Q137.9858,58.793 137.9858,58.4023 Q137.9858,58.0273 138.2515,57.793 Q138.5171,57.5586 139.1265,57.5586 L144.2671,57.5586 Q144.8765,57.5586 145.1421,57.793 Q145.4077,58.0273 145.4077,58.4023 Q145.4077,58.793 145.1421,59.0273 Q144.8765,59.2617 144.2671,59.2617 L142.5483,59.2617 Z " fill="#000000"/><text fill="#000000" font-family="Consolas" font-size="14" font-style="italic" font-weight="bold" lengthAdjust="spacing" textLength="84.6699" x="162.0952" y="67.2148">Propietario</text><line style="stroke:#181818;stroke-width:0.5;" x1="45.3267" x2="331.0337" y1="78.6211" y2="78.6211"/><ellipse cx="55.3267" cy="92.3174" fill="transparent" rx="3" ry="3" style="stroke:#038048;stroke-width:1;"/><text fill="#000000" font-family="Consolas" font-size="14" lengthAdjust="spacing" textLength="107.7617" x="64.3267" y="95.4111">nombre: string</text><line style="stroke:#181818;stroke-width:0.5;" x1="45.3267" x2="331.0337" y1="103.0137" y2="103.0137"/><ellipse cx="55.3267" cy="116.71" fill="#84BE84" rx="3" ry="3" style="stroke:#038048;stroke-width:1;"/><text fill="#000000" font-family="Consolas" font-size="14" lengthAdjust="spacing" textLength="261.707" x="64.3267" y="119.8037">comprar(Propiedad propiedad): void</text><ellipse cx="55.3267" cy="133.1025" fill="#84BE84" rx="3" ry="3" style="stroke:#038048;stroke-width:1;"/><text fill="#000000" font-family="Consolas" font-size="14" lengthAdjust="spacing" textLength="254.0098" x="64.3267" y="136.1963">vender(Propiedad propiedad): void</text></g><!--class PersonaFisica--><g id="elem_PersonaFisica"><rect codeLine="10" fill="#F1F1F1" height="97.1777" id="PersonaFisica" rx="2.5" ry="2.5" style="stroke:#181818;stroke-width:0.5;" width="149.1563" x="15.8267" y="203.6211"/><ellipse cx="38.518" cy="219.6211" fill="#ADD1B2" rx="11" ry="11" style="stroke:#181818;stroke-width:1;"/><path d="M41.2836,215.4961 Q41.4398,215.2773 41.6273,215.168 Q41.8148,215.0586 42.0336,215.0586 Q42.4086,215.0586 42.643,215.3242 Q42.8773,215.5742 42.8773,216.1836 L42.8773,217.6367 Q42.8773,218.2461 42.643,218.5117 Q42.4086,218.7773 42.0336,218.7773 Q41.6898,218.7773 41.4867,218.5742 Q41.2836,218.3867 41.1742,217.8711 Q41.1273,217.5117 40.9398,217.3242 Q40.6117,216.9492 40.0023,216.7305 Q39.393,216.5117 38.768,216.5117 Q38.0023,216.5117 37.3617,216.8398 Q36.7367,217.168 36.2367,217.918 Q35.7523,218.668 35.7523,219.6992 L35.7523,220.793 Q35.7523,222.0273 36.643,222.8555 Q37.5336,223.668 39.1273,223.668 Q40.0648,223.668 40.7211,223.418 Q41.1117,223.2617 41.5336,222.8242 Q41.7992,222.5586 41.9398,222.4805 Q42.0961,222.4023 42.2992,222.4023 Q42.6273,222.4023 42.8773,222.668 Q43.143,222.918 43.143,223.2617 Q43.143,223.6055 42.7992,224.0117 Q42.2992,224.5898 41.5023,224.918 Q40.4242,225.3711 39.1273,225.3711 Q37.6117,225.3711 36.4086,224.7461 Q35.4242,224.2461 34.7367,223.1836 Q34.0492,222.1055 34.0492,220.8242 L34.0492,219.668 Q34.0492,218.3398 34.6586,217.1992 Q35.2836,216.043 36.3773,215.4336 Q37.4711,214.8086 38.7055,214.8086 Q39.4398,214.8086 40.0805,214.9805 Q40.7367,215.1367 41.2836,215.4961 Z " fill="#000000"/><text fill="#000000" font-family="Consolas" font-size="14" font-weight="bold" lengthAdjust="spacing" textLength="100.0645" x="54.2271" y="224.2148">PersonaFisica</text><line style="stroke:#181818;stroke-width:0.5;" x1="16.8267" x2="163.9829" y1="235.6211" y2="235.6211"/><ellipse cx="26.8267" cy="249.3174" fill="transparent" rx="3" ry="3" style="stroke:#038048;stroke-width:1;"/><text fill="#000000" font-family="Consolas" font-size="14" lengthAdjust="spacing" textLength="107.7617" x="35.8267" y="252.4111">nombre: string</text><ellipse cx="26.8267" cy="265.71" fill="transparent" rx="3" ry="3" style="stroke:#038048;stroke-width:1;"/><text fill="#000000" font-family="Consolas" font-size="14" lengthAdjust="spacing" textLength="123.1563" x="35.8267" y="268.8037">apellido: string</text><ellipse cx="26.8267" cy="282.1025" fill="transparent" rx="3" ry="3" style="stroke:#038048;stroke-width:1;"/><text fill="#000000" font-family="Consolas" font-size="14" lengthAdjust="spacing" textLength="84.6699" x="35.8267" y="285.1963">dni: string</text><line style="stroke:#181818;stroke-width:0.5;" x1="16.8267" x2="163.9829" y1="292.7988" y2="292.7988"/></g><!--class PersonaMoral--><g id="elem_PersonaMoral"><rect codeLine="16" fill="#F1F1F1" height="80.7852" id="PersonaMoral" rx="2.5" ry="2.5" style="stroke:#181818;stroke-width:0.5;" width="172.248" x="200.3267" y="211.6211"/><ellipse cx="236.873" cy="227.6211" fill="#ADD1B2" rx="11" ry="11" style="stroke:#181818;stroke-width:1;"/><path d="M239.6387,223.4961 Q239.7949,223.2773 239.9824,223.168 Q240.1699,223.0586 240.3887,223.0586 Q240.7637,223.0586 240.998,223.3242 Q241.2324,223.5742 241.2324,224.1836 L241.2324,225.6367 Q241.2324,226.2461 240.998,226.5117 Q240.7637,226.7773 240.3887,226.7773 Q240.0449,226.7773 239.8418,226.5742 Q239.6387,226.3867 239.5293,225.8711 Q239.4824,225.5117 239.2949,225.3242 Q238.9668,224.9492 238.3574,224.7305 Q237.748,224.5117 237.123,224.5117 Q236.3574,224.5117 235.7168,224.8398 Q235.0918,225.168 234.5918,225.918 Q234.1074,226.668 234.1074,227.6992 L234.1074,228.793 Q234.1074,230.0273 234.998,230.8555 Q235.8887,231.668 237.4824,231.668 Q238.4199,231.668 239.0762,231.418 Q239.4668,231.2617 239.8887,230.8242 Q240.1543,230.5586 240.2949,230.4805 Q240.4512,230.4023 240.6543,230.4023 Q240.9824,230.4023 241.2324,230.668 Q241.498,230.918 241.498,231.2617 Q241.498,231.6055 241.1543,232.0117 Q240.6543,232.5898 239.8574,232.918 Q238.7793,233.3711 237.4824,233.3711 Q235.9668,233.3711 234.7637,232.7461 Q233.7793,232.2461 233.0918,231.1836 Q232.4043,230.1055 232.4043,228.8242 L232.4043,227.668 Q232.4043,226.3398 233.0137,225.1992 Q233.6387,224.043 234.7324,223.4336 Q235.8262,222.8086 237.0605,222.8086 Q237.7949,222.8086 238.4355,222.9805 Q239.0918,223.1367 239.6387,223.4961 Z " fill="#000000"/><text fill="#000000" font-family="Consolas" font-size="14" font-weight="bold" lengthAdjust="spacing" textLength="92.3672" x="255.6611" y="232.2148">PersonaMoral</text><line style="stroke:#181818;stroke-width:0.5;" x1="201.3267" x2="371.5747" y1="243.6211" y2="243.6211"/><ellipse cx="211.3267" cy="257.3174" fill="transparent" rx="3" ry="3" style="stroke:#038048;stroke-width:1;"/><text fill="#000000" font-family="Consolas" font-size="14" lengthAdjust="spacing" textLength="146.248" x="220.3267" y="260.4111">razonSocial: string</text><ellipse cx="211.3267" cy="273.71" fill="transparent" rx="3" ry="3" style="stroke:#038048;stroke-width:1;"/><text fill="#000000" font-family="Consolas" font-size="14" lengthAdjust="spacing" textLength="84.6699" x="220.3267" y="276.8037">rfc: string</text><line style="stroke:#181818;stroke-width:0.5;" x1="201.3267" x2="371.5747" y1="284.4063" y2="284.4063"/></g><!--reverse link Propietario to PersonaFisica--><g id="link_Propietario_PersonaFisica"><path codeLine="21" d="M148.5081,159.1057 C136.5281,178.0557 132.3967,184.5811 120.4267,203.5111 " fill="transparent" id="Propietario-backto-PersonaFisica" style="stroke:#181818;stroke-width:1;stroke-dasharray:7.0,7.0;"/><polygon fill="transparent" points="158.1267,143.8911,143.4366,155.8995,153.5797,162.3119,158.1267,143.8911" style="stroke:#181818;stroke-width:1;"/></g><!--reverse link Propietario to PersonaMoral--><g id="link_Propietario_PersonaMoral"><path codeLine="22" d="M228.1509,159.1021 C241.8809,180.8021 248.2967,190.9611 261.3267,211.5811 " fill="transparent" id="Propietario-backto-PersonaMoral" style="stroke:#181818;stroke-width:1;stroke-dasharray:7.0,7.0;"/><polygon fill="transparent" points="218.5267,143.8911,223.0806,162.3101,233.2212,155.894,218.5267,143.8911" style="stroke:#181818;stroke-width:1;"/></g><text fill="#000000" font-family="Segoe UI" font-size="14" lengthAdjust="spacing" textLength="83.7539" x="1" y="322.9063">Tanto la clase</text><text fill="#000000" font-family="Segoe UI" font-size="14" font-weight="bold" lengthAdjust="spacing" textLength="91.9775" x="88.5889" y="322.9063">Persona F&#237;sica</text><text fill="#000000" font-family="Segoe UI" font-size="14" lengthAdjust="spacing" textLength="34.9316" x="184.4014" y="322.9063">como</text><text fill="#000000" font-family="Segoe UI" font-size="14" font-weight="bold" lengthAdjust="spacing" textLength="95.3682" x="223.168" y="322.9063">Persona Moral</text><text fill="#000000" font-family="Segoe UI" font-size="14" lengthAdjust="spacing" textLength="51.0303" x="322.3711" y="322.9063">deber&#225;n</text><text fill="#000000" font-family="Segoe UI" font-size="14" lengthAdjust="spacing" textLength="242.0127" x="27.25" y="341.5273">implementar los m&#233;todos de la interfaz</text><text fill="#000000" font-family="Segoe UI" font-size="14" font-weight="bold" lengthAdjust="spacing" textLength="74.0537" x="273.0977" y="341.5273">Propietario</text><!--SRC=[VL4nJWD13Ept5IOL22c8DefIHg90Ye2InhVh18izU-NTf0Zm64eAAfvm7-Fk4aWEANIsPpmpiizOV5m7WXHHohgEOw-ov9NBpom93MjOcQxJZJoHSK7n1DVEiHIo9RRDmZGn5JHMU740bo1QLqOJoCLOLlt8QvqCxNn73XWW_LGN4zWeXvws8GdqB-lDEHynPrYGPHMSSsQFfuqnKOmST30Cmh_zNy5RDOnxFSEjohrwnZZOjwK_tZ- -mFHrF1vcEmdtJiuLBf7WZZ3o5ZqtNmBjDo925sjmtZOffi8gC7feVwK7qhIQxKLXtdnshjEhQjPTNO-nth570bLapRiy2jSfKatIEa3K37NpKJIqnIx4_i_RNkOGfHCPkMy0]--></g></svg>