<?xml version="1.0" encoding="us-ascii" standalone="no"?><svg xmlns="http://www.w3.org/2000/svg" xmlns:xlink="http://www.w3.org/1999/xlink" contentStyleType="text/css" height="110px" preserveAspectRatio="none" style="width:407px;height:110px;" version="1.1" viewBox="0 0 407 110" width="407px" zoomAndPan="magnify"><defs/><g><!--class Cliente--><g id="elem_Cliente"><rect codeLine="3" fill="#F1F1F1" height="96.8906" id="Cliente" rx="2.5" ry="2.5" style="stroke:#181818;stroke-width:0.5;" width="162" x="7" y="7"/><ellipse cx="55.75" cy="23" fill="#ADD1B2" rx="11" ry="11" style="stroke:#181818;stroke-width:1.0;"/><path d="M58.7188,28.6406 Q58.1406,28.9375 57.5,29.0781 Q56.8594,29.2344 56.1563,29.2344 Q53.6563,29.2344 52.3281,27.5938 Q51.0156,25.9375 51.0156,22.8125 Q51.0156,19.6875 52.3281,18.0313 Q53.6563,16.375 56.1563,16.375 Q56.8594,16.375 57.5,16.5313 Q58.1563,16.6875 58.7188,16.9844 L58.7188,19.7031 Q58.0938,19.125 57.5,18.8594 Q56.9063,18.5781 56.2813,18.5781 Q54.9375,18.5781 54.25,19.6563 Q53.5625,20.7188 53.5625,22.8125 Q53.5625,24.9063 54.25,25.9844 Q54.9375,27.0469 56.2813,27.0469 Q56.9063,27.0469 57.5,26.7813 Q58.0938,26.5 58.7188,25.9219 L58.7188,28.6406 Z " fill="#000000"/><text fill="#000000" font-family="DejaVu Sans Mono" font-size="14" font-weight="bold" lengthAdjust="spacing" textLength="56" x="76.25" y="27.8467">Cliente</text><line style="stroke:#181818;stroke-width:0.5;" x1="8" x2="168" y1="39" y2="39"/><ellipse cx="18" cy="52.6484" fill="none" rx="3" ry="3" style="stroke:#038048;stroke-width:1.0;"/><text fill="#000000" font-family="DejaVu Sans Mono" font-size="14" lengthAdjust="spacing" textLength="112" x="27" y="55.9951">nombre: String</text><ellipse cx="18" cy="68.9453" fill="none" rx="3" ry="3" style="stroke:#038048;stroke-width:1.0;"/><text fill="#000000" font-family="DejaVu Sans Mono" font-size="14" lengthAdjust="spacing" textLength="136" x="27" y="72.292">direccion: String</text><ellipse cx="18" cy="85.2422" fill="none" rx="3" ry="3" style="stroke:#038048;stroke-width:1.0;"/><text fill="#000000" font-family="DejaVu Sans Mono" font-size="14" lengthAdjust="spacing" textLength="128" x="27" y="88.5889">telefono: String</text><line style="stroke:#181818;stroke-width:0.5;" x1="8" x2="168" y1="95.8906" y2="95.8906"/></g><!--class Pedido--><g id="elem_Pedido"><rect codeLine="9" fill="#F1F1F1" height="96.8906" id="Pedido" rx="2.5" ry="2.5" style="stroke:#181818;stroke-width:0.5;" width="154" x="246" y="7"/><ellipse cx="294.75" cy="23" fill="#ADD1B2" rx="11" ry="11" style="stroke:#181818;stroke-width:1.0;"/><path d="M297.7188,28.6406 Q297.1406,28.9375 296.5,29.0781 Q295.8594,29.2344 295.1563,29.2344 Q292.6563,29.2344 291.3281,27.5938 Q290.0156,25.9375 290.0156,22.8125 Q290.0156,19.6875 291.3281,18.0313 Q292.6563,16.375 295.1563,16.375 Q295.8594,16.375 296.5,16.5313 Q297.1563,16.6875 297.7188,16.9844 L297.7188,19.7031 Q297.0938,19.125 296.5,18.8594 Q295.9063,18.5781 295.2813,18.5781 Q293.9375,18.5781 293.25,19.6563 Q292.5625,20.7188 292.5625,22.8125 Q292.5625,24.9063 293.25,25.9844 Q293.9375,27.0469 295.2813,27.0469 Q295.9063,27.0469 296.5,26.7813 Q297.0938,26.5 297.7188,25.9219 L297.7188,28.6406 Z " fill="#000000"/><text fill="#000000" font-family="DejaVu Sans Mono" font-size="14" font-weight="bold" lengthAdjust="spacing" textLength="48" x="315.25" y="27.8467">Pedido</text><line style="stroke:#181818;stroke-width:0.5;" x1="247" x2="399" y1="39" y2="39"/><ellipse cx="257" cy="52.6484" fill="none" rx="3" ry="3" style="stroke:#038048;stroke-width:1.0;"/><text fill="#000000" font-family="DejaVu Sans Mono" font-size="14" lengthAdjust="spacing" textLength="88" x="266" y="55.9951">fecha: Date</text><ellipse cx="257" cy="68.9453" fill="none" rx="3" ry="3" style="stroke:#038048;stroke-width:1.0;"/><text fill="#000000" font-family="DejaVu Sans Mono" font-size="14" lengthAdjust="spacing" textLength="104" x="266" y="72.292">total: Double</text><ellipse cx="257" cy="85.2422" fill="none" rx="3" ry="3" style="stroke:#038048;stroke-width:1.0;"/><text fill="#000000" font-family="DejaVu Sans Mono" font-size="14" lengthAdjust="spacing" textLength="128" x="266" y="88.5889">cliente: Cliente</text><line style="stroke:#181818;stroke-width:0.5;" x1="247" x2="399" y1="95.8906" y2="95.8906"/></g><!--link Cliente to Pedido--><g id="link_Cliente_Pedido"><path codeLine="15" d="M169.2,55.5 C194.01,55.5 215.21,55.5 239.75,55.5 " fill="none" id="Cliente-to-Pedido" style="stroke:#181818;stroke-width:1.0;"/><polygon fill="#181818" points="245.75,55.5,236.75,51.5,240.75,55.5,236.75,59.5,245.75,55.5" style="stroke:#181818;stroke-width:1.0;"/><text fill="#000000" font-family="DejaVu Sans Mono" font-size="13" lengthAdjust="spacing" textLength="40" x="187.5" y="48.5669">tiene</text></g><!--SRC=[JOvB3i8m34JtEOLP8pX05cpW04YS87MSOicrKUgkKEzEFmInd2VDcpcmeaoPu2L9VHhaZAQ5-n1GqZZ2LPZK2Tu1uAWsT9KYFBoozYl9N0cHJV-Xar0njH-Rc-rEcRFjiaBuJ15koMahcITPeasTR03tvTWkh9RsvdJvgYBuGkW3]--></g></svg>