<?xml version="1.0" encoding="us-ascii" standalone="no"?><svg xmlns="http://www.w3.org/2000/svg" xmlns:xlink="http://www.w3.org/1999/xlink" contentStyleType="text/css" height="134px" preserveAspectRatio="none" style="width:215px;height:134px;" version="1.1" viewBox="0 0 215 134" width="215px" zoomAndPan="magnify"><defs/><g><!--class Coche--><g id="elem_Coche"><rect codeLine="3" fill="#F1F1F1" height="113.1875" id="Coche" rx="2.5" ry="2.5" style="stroke:#181818;stroke-width:0.5;" width="194" x="7" y="7"/><ellipse cx="79.75" cy="23" fill="#ADD1B2" rx="11" ry="11" style="stroke:#181818;stroke-width:1.0;"/><path d="M82.7188,28.6406 Q82.1406,28.9375 81.5,29.0781 Q80.8594,29.2344 80.1563,29.2344 Q77.6563,29.2344 76.3281,27.5938 Q75.0156,25.9375 75.0156,22.8125 Q75.0156,19.6875 76.3281,18.0313 Q77.6563,16.375 80.1563,16.375 Q80.8594,16.375 81.5,16.5313 Q82.1563,16.6875 82.7188,16.9844 L82.7188,19.7031 Q82.0938,19.125 81.5,18.8594 Q80.9063,18.5781 80.2813,18.5781 Q78.9375,18.5781 78.25,19.6563 Q77.5625,20.7188 77.5625,22.8125 Q77.5625,24.9063 78.25,25.9844 Q78.9375,27.0469 80.2813,27.0469 Q80.9063,27.0469 81.5,26.7813 Q82.0938,26.5 82.7188,25.9219 L82.7188,28.6406 Z " fill="#000000"/><text fill="#000000" font-family="DejaVu Sans Mono" font-size="14" font-weight="bold" lengthAdjust="spacing" textLength="40" x="100.25" y="27.8467">Coche</text><line style="stroke:#181818;stroke-width:0.5;" x1="8" x2="200" y1="39" y2="39"/><line style="stroke:#181818;stroke-width:0.5;" x1="8" x2="200" y1="47" y2="47"/><ellipse cx="18" cy="60.6484" fill="#84BE84" rx="3" ry="3" style="stroke:#038048;stroke-width:1.0;"/><text fill="#000000" font-family="DejaVu Sans Mono" font-size="14" lengthAdjust="spacing" textLength="128" x="27" y="63.9951">acelerar(): void</text><ellipse cx="18" cy="76.9453" fill="#84BE84" rx="3" ry="3" style="stroke:#038048;stroke-width:1.0;"/><text fill="#000000" font-family="DejaVu Sans Mono" font-size="14" lengthAdjust="spacing" textLength="112" x="27" y="80.292">frenar(): void</text><ellipse cx="18" cy="93.2422" fill="#84BE84" rx="3" ry="3" style="stroke:#038048;stroke-width:1.0;"/><text fill="#000000" font-family="DejaVu Sans Mono" font-size="14" lengthAdjust="spacing" textLength="168" x="27" y="96.5889">cambiarMarcha(): void</text><ellipse cx="18" cy="109.5391" fill="#84BE84" rx="3" ry="3" style="stroke:#038048;stroke-width:1.0;"/><text fill="#000000" font-family="DejaVu Sans Mono" font-size="14" lengthAdjust="spacing" textLength="168" x="27" y="112.8857">encenderLuces(): void</text></g><!--SRC=[LSan3i8m30NGFQSm6mY90tHbXKEOdryQoNMGqx0WxbvrgM1zxr0SrZFbPUfBd-s2wcDvfWJJrkHQCL4-IUIie34qZgT1thNapSQW_mjqVXIDkmOc_Gqww9bnws3RuvjM]--></g></svg>