<?xml version="1.0" encoding="us-ascii" standalone="no"?><svg xmlns="http://www.w3.org/2000/svg" xmlns:xlink="http://www.w3.org/1999/xlink" contentStyleType="text/css" height="150px" preserveAspectRatio="none" style="width:175px;height:150px;" version="1.1" viewBox="0 0 175 150" width="175px" zoomAndPan="magnify"><defs/><g><!--class Coche--><g id="elem_Coche"><rect codeLine="3" fill="#F1F1F1" height="129.4844" id="Coche" rx="2.5" ry="2.5" style="stroke:#181818;stroke-width:0.5;" width="154" x="7" y="7"/><ellipse cx="59.75" cy="23" fill="#ADD1B2" rx="11" ry="11" style="stroke:#181818;stroke-width:1.0;"/><path d="M62.7188,28.6406 Q62.1406,28.9375 61.5,29.0781 Q60.8594,29.2344 60.1563,29.2344 Q57.6563,29.2344 56.3281,27.5938 Q55.0156,25.9375 55.0156,22.8125 Q55.0156,19.6875 56.3281,18.0313 Q57.6563,16.375 60.1563,16.375 Q60.8594,16.375 61.5,16.5313 Q62.1563,16.6875 62.7188,16.9844 L62.7188,19.7031 Q62.0938,19.125 61.5,18.8594 Q60.9063,18.5781 60.2813,18.5781 Q58.9375,18.5781 58.25,19.6563 Q57.5625,20.7188 57.5625,22.8125 Q57.5625,24.9063 58.25,25.9844 Q58.9375,27.0469 60.2813,27.0469 Q60.9063,27.0469 61.5,26.7813 Q62.0938,26.5 62.7188,25.9219 L62.7188,28.6406 Z " fill="#000000"/><text fill="#000000" font-family="DejaVu Sans Mono" font-size="14" font-weight="bold" lengthAdjust="spacing" textLength="40" x="80.25" y="27.8467">Coche</text><line style="stroke:#181818;stroke-width:0.5;" x1="8" x2="160" y1="39" y2="39"/><ellipse cx="18" cy="52.6484" fill="none" rx="3" ry="3" style="stroke:#038048;stroke-width:1.0;"/><text fill="#000000" font-family="DejaVu Sans Mono" font-size="14" lengthAdjust="spacing" textLength="104" x="27" y="55.9951">marca: String</text><ellipse cx="18" cy="68.9453" fill="none" rx="3" ry="3" style="stroke:#038048;stroke-width:1.0;"/><text fill="#000000" font-family="DejaVu Sans Mono" font-size="14" lengthAdjust="spacing" textLength="112" x="27" y="72.292">modelo: String</text><ellipse cx="18" cy="85.2422" fill="none" rx="3" ry="3" style="stroke:#038048;stroke-width:1.0;"/><text fill="#000000" font-family="DejaVu Sans Mono" font-size="14" lengthAdjust="spacing" textLength="88" x="27" y="88.5889">a&#241;o: String</text><ellipse cx="18" cy="101.5391" fill="none" rx="3" ry="3" style="stroke:#038048;stroke-width:1.0;"/><text fill="#000000" font-family="DejaVu Sans Mono" font-size="14" lengthAdjust="spacing" textLength="104" x="27" y="104.8857">color: String</text><ellipse cx="18" cy="117.8359" fill="none" rx="3" ry="3" style="stroke:#038048;stroke-width:1.0;"/><text fill="#000000" font-family="DejaVu Sans Mono" font-size="14" lengthAdjust="spacing" textLength="128" x="27" y="121.1826">kilometraje: int</text><line style="stroke:#181818;stroke-width:0.5;" x1="8" x2="160" y1="128.4844" y2="128.4844"/></g><!--SRC=[LSYn3OL0203GdYcmDd40MqTm0eAeA0VcF2lpXt865_k9bPRlLUfino2u6NavaZKSFke4m4RxZbtmB7W2OfqeCxNObwm-FH63MBo7xkjZ3elyZbKjafHCYxIeNk07Vm00]--></g></svg>