<svg xmlns="http://www.w3.org/2000/svg" xmlns:xlink="http://www.w3.org/1999/xlink" contentStyleType="text/css" data-diagram-type="CLASS" height="170px" preserveAspectRatio="none" style="width:84px;height:170px;" version="1.1" viewBox="0 0 84 170" width="84px" zoomAndPan="magnify"><defs/><g><!--class Libro--><g id="elem_Libro"><rect fill="#F1F1F1" height="48" id="Libro" rx="2.5" ry="2.5" style="stroke:#181818;stroke-width:0.5;" width="70.4863" x="7" y="7"/><ellipse cx="22" cy="23" fill="#ADD1B2" rx="11" ry="11" style="stroke:#181818;stroke-width:1;"/><path d="M24.7656,18.875 Q24.9219,18.6563 25.1094,18.5469 Q25.2969,18.4375 25.5156,18.4375 Q25.8906,18.4375 26.125,18.7031 Q26.3594,18.9531 26.3594,19.5625 L26.3594,21.0156 Q26.3594,21.625 26.125,21.8906 Q25.8906,22.1563 25.5156,22.1563 Q25.1719,22.1563 24.9688,21.9531 Q24.7656,21.7656 24.6563,21.25 Q24.6094,20.8906 24.4219,20.7031 Q24.0938,20.3281 23.4844,20.1094 Q22.875,19.8906 22.25,19.8906 Q21.4844,19.8906 20.8438,20.2188 Q20.2188,20.5469 19.7188,21.2969 Q19.2344,22.0469 19.2344,23.0781 L19.2344,24.1719 Q19.2344,25.4063 20.125,26.2344 Q21.0156,27.0469 22.6094,27.0469 Q23.5469,27.0469 24.2031,26.7969 Q24.5938,26.6406 25.0156,26.2031 Q25.2813,25.9375 25.4219,25.8594 Q25.5781,25.7813 25.7813,25.7813 Q26.1094,25.7813 26.3594,26.0469 Q26.625,26.2969 26.625,26.6406 Q26.625,26.9844 26.2813,27.3906 Q25.7813,27.9688 24.9844,28.2969 Q23.9063,28.75 22.6094,28.75 Q21.0938,28.75 19.8906,28.125 Q18.9063,27.625 18.2188,26.5625 Q17.5313,25.4844 17.5313,24.2031 L17.5313,23.0469 Q17.5313,21.7188 18.1406,20.5781 Q18.7656,19.4219 19.8594,18.8125 Q20.9531,18.1875 22.1875,18.1875 Q22.9219,18.1875 23.5625,18.3594 Q24.2188,18.5156 24.7656,18.875 Z " fill="#000000"/><text fill="#000000" font-family="Consolas" font-size="14" font-weight="bold" lengthAdjust="spacing" textLength="38.4863" x="36" y="27.5938">Libro</text><line style="stroke:#181818;stroke-width:0.5;" x1="8" x2="76.4863" y1="39" y2="39"/><line style="stroke:#181818;stroke-width:0.5;" x1="8" x2="76.4863" y1="47" y2="47"/></g><!--class Autor--><g id="elem_Autor"><rect fill="#F1F1F1" height="48" id="Autor" rx="2.5" ry="2.5" style="stroke:#181818;stroke-width:0.5;" width="70.4863" x="7" y="115"/><ellipse cx="22" cy="131" fill="#ADD1B2" rx="11" ry="11" style="stroke:#181818;stroke-width:1;"/><path d="M24.7656,126.875 Q24.9219,126.6563 25.1094,126.5469 Q25.2969,126.4375 25.5156,126.4375 Q25.8906,126.4375 26.125,126.7031 Q26.3594,126.9531 26.3594,127.5625 L26.3594,129.0156 Q26.3594,129.625 26.125,129.8906 Q25.8906,130.1563 25.5156,130.1563 Q25.1719,130.1563 24.9688,129.9531 Q24.7656,129.7656 24.6563,129.25 Q24.6094,128.8906 24.4219,128.7031 Q24.0938,128.3281 23.4844,128.1094 Q22.875,127.8906 22.25,127.8906 Q21.4844,127.8906 20.8438,128.2188 Q20.2188,128.5469 19.7188,129.2969 Q19.2344,130.0469 19.2344,131.0781 L19.2344,132.1719 Q19.2344,133.4063 20.125,134.2344 Q21.0156,135.0469 22.6094,135.0469 Q23.5469,135.0469 24.2031,134.7969 Q24.5938,134.6406 25.0156,134.2031 Q25.2813,133.9375 25.4219,133.8594 Q25.5781,133.7813 25.7813,133.7813 Q26.1094,133.7813 26.3594,134.0469 Q26.625,134.2969 26.625,134.6406 Q26.625,134.9844 26.2813,135.3906 Q25.7813,135.9688 24.9844,136.2969 Q23.9063,136.75 22.6094,136.75 Q21.0938,136.75 19.8906,136.125 Q18.9063,135.625 18.2188,134.5625 Q17.5313,133.4844 17.5313,132.2031 L17.5313,131.0469 Q17.5313,129.7188 18.1406,128.5781 Q18.7656,127.4219 19.8594,126.8125 Q20.9531,126.1875 22.1875,126.1875 Q22.9219,126.1875 23.5625,126.3594 Q24.2188,126.5156 24.7656,126.875 Z " fill="#000000"/><text fill="#000000" font-family="Consolas" font-size="14" font-weight="bold" lengthAdjust="spacing" textLength="38.4863" x="36" y="135.5938">Autor</text><line style="stroke:#181818;stroke-width:0.5;" x1="8" x2="76.4863" y1="147" y2="147"/><line style="stroke:#181818;stroke-width:0.5;" x1="8" x2="76.4863" y1="155" y2="155"/></g><!--link Libro to Autor--><g id="link_Libro_Autor"><path codeLine="3" d="M42,55 C42,72.66 42,96.94 42,114.68 " fill="transparent" id="Libro-Autor" style="stroke:#181818;stroke-width:1;"/><text fill="#000000" font-family="Consolas" font-size="13" lengthAdjust="spacing" textLength="7.1475" x="34.0597" y="74.9767">*</text><text fill="#000000" font-family="Consolas" font-size="13" lengthAdjust="spacing" textLength="7.1475" x="34.1056" y="103.8274">*</text></g><!--SRC=[KypCIyufJKbLACX9p2ifpStHIyxFIyjCv-BooKmgobTGqb9IqDK5Kuwb9Vb5N000]--></g></svg>