<svg xmlns="http://www.w3.org/2000/svg" xmlns:xlink="http://www.w3.org/1999/xlink" contentStyleType="text/css" data-diagram-type="CLASS" height="263px" preserveAspectRatio="none" style="width:474px;height:263px;" version="1.1" viewBox="0 0 474 263" width="474px" zoomAndPan="magnify"><title>Relaciones entre objetos</title><defs/><g><text fill="#000000" font-family="Segoe UI" font-size="14" font-weight="bold" lengthAdjust="spacing" textLength="161.0068" x="149.8076" y="25.1074">Relaciones entre objetos</text><g id="elem_Objeto1"><rect fill="#F1F1F1" height="36.3926" rx="2.5" ry="2.5" style="stroke:#181818;stroke-width:0.5;" width="67.8809" x="7" y="46.6211"/><text fill="#000000" font-family="Consolas" font-size="14" lengthAdjust="spacing" textLength="53.8809" x="14" y="61.4111">Objeto1</text><line style="stroke:#181818;stroke-width:0.5;" x1="8" x2="73.8809" y1="67.0137" y2="67.0137"/></g><g id="elem_Objeto2"><rect fill="#F1F1F1" height="36.3926" rx="2.5" ry="2.5" style="stroke:#181818;stroke-width:0.5;" width="67.8809" x="7" y="174.6211"/><text fill="#000000" font-family="Consolas" font-size="14" lengthAdjust="spacing" textLength="53.8809" x="14" y="189.4111">Objeto2</text><line style="stroke:#181818;stroke-width:0.5;" x1="8" x2="73.8809" y1="195.0137" y2="195.0137"/></g><g id="elem_Objeto3"><rect fill="#F1F1F1" height="36.3926" rx="2.5" ry="2.5" style="stroke:#181818;stroke-width:0.5;" width="67.8809" x="120" y="46.6211"/><text fill="#000000" font-family="Consolas" font-size="14" lengthAdjust="spacing" textLength="53.8809" x="127" y="61.4111">Objeto3</text><line style="stroke:#181818;stroke-width:0.5;" x1="121" x2="186.8809" y1="67.0137" y2="67.0137"/></g><g id="elem_Objeto4"><rect fill="#F1F1F1" height="36.3926" rx="2.5" ry="2.5" style="stroke:#181818;stroke-width:0.5;" width="67.8809" x="120" y="174.6211"/><text fill="#000000" font-family="Consolas" font-size="14" lengthAdjust="spacing" textLength="53.8809" x="127" y="189.4111">Objeto4</text><line style="stroke:#181818;stroke-width:0.5;" x1="121" x2="186.8809" y1="195.0137" y2="195.0137"/></g><g id="elem_Objeto5"><rect fill="#F1F1F1" height="36.3926" rx="2.5" ry="2.5" style="stroke:#181818;stroke-width:0.5;" width="67.8809" x="240" y="46.6211"/><text fill="#000000" font-family="Consolas" font-size="14" lengthAdjust="spacing" textLength="53.8809" x="247" y="61.4111">Objeto5</text><line style="stroke:#181818;stroke-width:0.5;" x1="241" x2="306.8809" y1="67.0137" y2="67.0137"/></g><g id="elem_Objeto6"><rect fill="#F1F1F1" height="36.3926" rx="2.5" ry="2.5" style="stroke:#181818;stroke-width:0.5;" width="67.8809" x="240" y="174.6211"/><text fill="#000000" font-family="Consolas" font-size="14" lengthAdjust="spacing" textLength="53.8809" x="247" y="189.4111">Objeto6</text><line style="stroke:#181818;stroke-width:0.5;" x1="241" x2="306.8809" y1="195.0137" y2="195.0137"/></g><g id="elem_Objeto7"><rect fill="#F1F1F1" height="36.3926" rx="2.5" ry="2.5" style="stroke:#181818;stroke-width:0.5;" width="67.8809" x="353" y="46.6211"/><text fill="#000000" font-family="Consolas" font-size="14" lengthAdjust="spacing" textLength="53.8809" x="360" y="61.4111">Objeto7</text><line style="stroke:#181818;stroke-width:0.5;" x1="354" x2="419.8809" y1="67.0137" y2="67.0137"/></g><g id="elem_Objeto8"><rect fill="#F1F1F1" height="36.3926" rx="2.5" ry="2.5" style="stroke:#181818;stroke-width:0.5;" width="67.8809" x="353" y="174.6211"/><text fill="#000000" font-family="Consolas" font-size="14" lengthAdjust="spacing" textLength="53.8809" x="360" y="189.4111">Objeto8</text><line style="stroke:#181818;stroke-width:0.5;" x1="354" x2="419.8809" y1="195.0137" y2="195.0137"/></g><!--reverse link Objeto1 to Objeto2--><g id="link_Objeto1_Objeto2"><path codeLine="12" d="M39.194,89.0059 C38.564,97.8559 38.31,102.8111 38,112.6211 C37.55,126.8311 37.55,130.4111 38,144.6211 C38.31,154.4311 38.99,165.3711 39.62,174.2211 " fill="transparent" id="Objeto1-backto-Objeto2" style="stroke:#181818;stroke-width:1;"/><polygon fill="#181818" points="39.62,83.0211,34.991,91.7143,39.265,88.0085,42.9708,92.2824,39.62,83.0211" style="stroke:#181818;stroke-width:1;"/><text fill="#000000" font-family="Consolas" font-size="13" lengthAdjust="spacing" textLength="71.4746" x="39" y="125.4976">Asociaci&#243;n</text><text fill="#000000" font-family="Consolas" font-size="13" lengthAdjust="spacing" textLength="57.1797" x="46.1475" y="140.7192">dirigida</text></g><!--reverse link Objeto3 to Objeto4--><g id="link_Objeto3_Objeto4"><path codeLine="13" d="M152.194,89.0059 C151.564,97.8559 151.31,102.8111 151,112.6211 C150.55,126.8311 150.55,130.4111 151,144.6211 C151.31,154.4311 151.99,165.3711 152.62,174.2211 " fill="transparent" id="Objeto3-backto-Objeto4" style="stroke:#181818;stroke-width:1;stroke-dasharray:7.0,7.0;"/><polygon fill="#181818" points="152.62,83.0211,147.991,91.7143,152.265,88.0085,155.9708,92.2824,152.62,83.0211" style="stroke:#181818;stroke-width:1;"/><text fill="#000000" font-family="Consolas" font-size="13" lengthAdjust="spacing" textLength="78.6221" x="152" y="132.9976">Dependencia</text></g><!--reverse link Objeto5 to Objeto6--><g id="link_Objeto5_Objeto6"><path codeLine="14" d="M271.7679,94.9908 C271.1379,103.8408 271.31,102.8111 271,112.6211 C270.55,126.8311 270.55,130.4111 271,144.6211 C271.31,154.4311 271.99,165.3711 272.62,174.2211 " fill="transparent" id="Objeto5-backto-Objeto6" style="stroke:#181818;stroke-width:1;"/><polygon fill="transparent" points="272.62,83.0211,268.2041,88.7219,271.7679,94.9908,276.1839,89.29,272.62,83.0211" style="stroke:#181818;stroke-width:1;"/><text fill="#000000" font-family="Consolas" font-size="13" lengthAdjust="spacing" textLength="71.4746" x="272" y="132.9976">Agregaci&#243;n</text></g><!--reverse link Objeto7 to Objeto8--><g id="link_Objeto7_Objeto8"><path codeLine="15" d="M387,94.8811 C387,119.0011 387,150.5611 387,174.5711 " fill="transparent" id="Objeto7-backto-Objeto8" style="stroke:#181818;stroke-width:1;"/><polygon fill="#181818" points="387,82.8811,383,88.8811,387,94.8811,391,88.8811,387,82.8811" style="stroke:#181818;stroke-width:1;"/><text fill="#000000" font-family="Consolas" font-size="13" lengthAdjust="spacing" textLength="78.6221" x="388" y="132.9976">Composici&#243;n</text></g><text fill="#000000" font-family="Segoe UI" font-size="14" lengthAdjust="spacing" textLength="371.8135" x="44.4043" y="232.1211">Se puede especificar el tipo de relaci&#243;n entre los objetos, as&#237;</text><text fill="#000000" font-family="Segoe UI" font-size="14" lengthAdjust="spacing" textLength="198.6934" x="130.9644" y="250.7422">como la direcci&#243;n de la relaci&#243;n.</text><!--SRC=[LP3BJWCn34Nt-GhJ9Q8ZGUb3g1i4UoJOTXCyxiXLnewIp6UnuXFwOvZEGyegEicvruhlM30CBK4CNihGXmPLpjmvfzyNmW8VTXHzhF6fnasDppLkQzpLkA_nuDmq4OxhzJmENk0rAx97llxAILfEt77h9tS3nwQPXvlxJf6a9R70P6n1bxRTVrkNg1lR9cCFzujnCEDD-wYPHyKLBe7Wau9bL2W3IKa4UjEpS-XZiGTOVTac1x9zKew4V6Rq2IX0uQXWr-bMOPrJGz0yjpo0pzUVaw3s2i63VP9mT2re5qksMVq1]--></g></svg>