<svg xmlns="http://www.w3.org/2000/svg" xmlns:xlink="http://www.w3.org/1999/xlink" contentStyleType="text/css" data-diagram-type="CLASS" height="170px" preserveAspectRatio="none" style="width:122px;height:170px;" version="1.1" viewBox="0 0 122 170" width="122px" zoomAndPan="magnify"><defs/><g><!--class Estudiante--><g id="elem_Estudiante"><rect fill="#F1F1F1" height="48" id="Estudiante" rx="2.5" ry="2.5" style="stroke:#181818;stroke-width:0.5;" width="108.9727" x="7" y="7"/><ellipse cx="22" cy="23" fill="#ADD1B2" rx="11" ry="11" style="stroke:#181818;stroke-width:1;"/><path d="M24.7656,18.875 Q24.9219,18.6563 25.1094,18.5469 Q25.2969,18.4375 25.5156,18.4375 Q25.8906,18.4375 26.125,18.7031 Q26.3594,18.9531 26.3594,19.5625 L26.3594,21.0156 Q26.3594,21.625 26.125,21.8906 Q25.8906,22.1563 25.5156,22.1563 Q25.1719,22.1563 24.9688,21.9531 Q24.7656,21.7656 24.6563,21.25 Q24.6094,20.8906 24.4219,20.7031 Q24.0938,20.3281 23.4844,20.1094 Q22.875,19.8906 22.25,19.8906 Q21.4844,19.8906 20.8438,20.2188 Q20.2188,20.5469 19.7188,21.2969 Q19.2344,22.0469 19.2344,23.0781 L19.2344,24.1719 Q19.2344,25.4063 20.125,26.2344 Q21.0156,27.0469 22.6094,27.0469 Q23.5469,27.0469 24.2031,26.7969 Q24.5938,26.6406 25.0156,26.2031 Q25.2813,25.9375 25.4219,25.8594 Q25.5781,25.7813 25.7813,25.7813 Q26.1094,25.7813 26.3594,26.0469 Q26.625,26.2969 26.625,26.6406 Q26.625,26.9844 26.2813,27.3906 Q25.7813,27.9688 24.9844,28.2969 Q23.9063,28.75 22.6094,28.75 Q21.0938,28.75 19.8906,28.125 Q18.9063,27.625 18.2188,26.5625 Q17.5313,25.4844 17.5313,24.2031 L17.5313,23.0469 Q17.5313,21.7188 18.1406,20.5781 Q18.7656,19.4219 19.8594,18.8125 Q20.9531,18.1875 22.1875,18.1875 Q22.9219,18.1875 23.5625,18.3594 Q24.2188,18.5156 24.7656,18.875 Z " fill="#000000"/><text fill="#000000" font-family="Consolas" font-size="14" font-weight="bold" lengthAdjust="spacing" textLength="76.9727" x="36" y="27.5938">Estudiante</text><line style="stroke:#181818;stroke-width:0.5;" x1="8" x2="114.9727" y1="39" y2="39"/><line style="stroke:#181818;stroke-width:0.5;" x1="8" x2="114.9727" y1="47" y2="47"/></g><!--class Clase--><g id="elem_Clase"><rect fill="#F1F1F1" height="48" id="Clase" rx="2.5" ry="2.5" style="stroke:#181818;stroke-width:0.5;" width="70.4863" x="26.5" y="115"/><ellipse cx="41.5" cy="131" fill="#ADD1B2" rx="11" ry="11" style="stroke:#181818;stroke-width:1;"/><path d="M44.2656,126.875 Q44.4219,126.6563 44.6094,126.5469 Q44.7969,126.4375 45.0156,126.4375 Q45.3906,126.4375 45.625,126.7031 Q45.8594,126.9531 45.8594,127.5625 L45.8594,129.0156 Q45.8594,129.625 45.625,129.8906 Q45.3906,130.1563 45.0156,130.1563 Q44.6719,130.1563 44.4688,129.9531 Q44.2656,129.7656 44.1563,129.25 Q44.1094,128.8906 43.9219,128.7031 Q43.5938,128.3281 42.9844,128.1094 Q42.375,127.8906 41.75,127.8906 Q40.9844,127.8906 40.3438,128.2188 Q39.7188,128.5469 39.2188,129.2969 Q38.7344,130.0469 38.7344,131.0781 L38.7344,132.1719 Q38.7344,133.4063 39.625,134.2344 Q40.5156,135.0469 42.1094,135.0469 Q43.0469,135.0469 43.7031,134.7969 Q44.0938,134.6406 44.5156,134.2031 Q44.7813,133.9375 44.9219,133.8594 Q45.0781,133.7813 45.2813,133.7813 Q45.6094,133.7813 45.8594,134.0469 Q46.125,134.2969 46.125,134.6406 Q46.125,134.9844 45.7813,135.3906 Q45.2813,135.9688 44.4844,136.2969 Q43.4063,136.75 42.1094,136.75 Q40.5938,136.75 39.3906,136.125 Q38.4063,135.625 37.7188,134.5625 Q37.0313,133.4844 37.0313,132.2031 L37.0313,131.0469 Q37.0313,129.7188 37.6406,128.5781 Q38.2656,127.4219 39.3594,126.8125 Q40.4531,126.1875 41.6875,126.1875 Q42.4219,126.1875 43.0625,126.3594 Q43.7188,126.5156 44.2656,126.875 Z " fill="#000000"/><text fill="#000000" font-family="Consolas" font-size="14" font-weight="bold" lengthAdjust="spacing" textLength="38.4863" x="55.5" y="135.5938">Clase</text><line style="stroke:#181818;stroke-width:0.5;" x1="27.5" x2="95.9863" y1="147" y2="147"/><line style="stroke:#181818;stroke-width:0.5;" x1="27.5" x2="95.9863" y1="155" y2="155"/></g><!--link Estudiante to Clase--><g id="link_Estudiante_Clase"><path codeLine="3" d="M61.5,55 C61.5,72.66 61.5,96.94 61.5,114.68 " fill="transparent" id="Estudiante-Clase" style="stroke:#181818;stroke-width:1;"/><text fill="#000000" font-family="Consolas" font-size="13" lengthAdjust="spacing" textLength="28.5898" x="29.9916" y="74.9767">1..*</text><text fill="#000000" font-family="Consolas" font-size="13" lengthAdjust="spacing" textLength="28.5898" x="30.1001" y="103.8274">1..*</text></g><!--SRC=[KypCIyufJKbLACX9p2ifpStHIyxFIyjCv-9oBIufJSa42gOgA1dgwMafAUZgmbZEEOd5gLm0]--></g></svg>