<svg xmlns="http://www.w3.org/2000/svg" xmlns:xlink="http://www.w3.org/1999/xlink" contentStyleType="text/css" data-diagram-type="SEQUENCE" height="154px" preserveAspectRatio="none" style="width:138px;height:154px;background:#FFFFFF;" version="1.1" viewBox="0 0 138 154" width="138px" zoomAndPan="magnify"><defs/><g><g><title>Alice</title><rect fill="transparent" height="80.7031" width="8" x="23.1724" y="37.6094"/><line style="stroke:#181818;stroke-width:0.5;stroke-dasharray:5.0,5.0;" x1="27" x2="27" y1="37.6094" y2="118.3125"/></g><g><title>Bob</title><rect fill="transparent" height="80.7031" width="8" x="109.3223" y="37.6094"/><line style="stroke:#181818;stroke-width:0.5;stroke-dasharray:5.0,5.0;" x1="112.8672" x2="112.8672" y1="37.6094" y2="118.3125"/></g><rect fill="#E2E2F0" height="31.6094" rx="2.5" ry="2.5" style="stroke:#181818;stroke-width:0.5;" width="44.3447" x="5" y="5"/><text fill="#000000" font-family="sans-serif" font-size="14" lengthAdjust="spacing" textLength="30.3447" x="12" y="26.5332">Alice</text><rect fill="#E2E2F0" height="31.6094" rx="2.5" ry="2.5" style="stroke:#181818;stroke-width:0.5;" width="44.3447" x="5" y="117.3125"/><text fill="#000000" font-family="sans-serif" font-size="14" lengthAdjust="spacing" textLength="30.3447" x="12" y="138.8457">Alice</text><rect fill="#E2E2F0" height="31.6094" rx="2.5" ry="2.5" style="stroke:#181818;stroke-width:0.5;" width="38.9102" x="93.8672" y="5"/><text fill="#000000" font-family="sans-serif" font-size="14" lengthAdjust="spacing" textLength="24.9102" x="100.8672" y="26.5332">Bob</text><rect fill="#E2E2F0" height="31.6094" rx="2.5" ry="2.5" style="stroke:#181818;stroke-width:0.5;" width="38.9102" x="93.8672" y="117.3125"/><text fill="#000000" font-family="sans-serif" font-size="14" lengthAdjust="spacing" textLength="24.9102" x="100.8672" y="138.8457">Bob</text><polygon fill="#181818" points="101.3223,65.9609,111.3223,69.9609,101.3223,73.9609,105.3223,69.9609" style="stroke:#181818;stroke-width:1;"/><line style="stroke:#181818;stroke-width:1;" x1="27.1724" x2="107.3223" y1="69.9609" y2="69.9609"/><text fill="#000000" font-family="sans-serif" font-size="13" lengthAdjust="spacing" textLength="49.1372" x="34.1724" y="65.1045">Mensaje</text><polygon fill="#181818" points="38.1724,96.3125,28.1724,100.3125,38.1724,104.3125,34.1724,100.3125" style="stroke:#181818;stroke-width:1;"/><line style="stroke:#181818;stroke-width:1;stroke-dasharray:2.0,2.0;" x1="32.1724" x2="112.3223" y1="100.3125" y2="100.3125"/><text fill="#000000" font-family="sans-serif" font-size="13" lengthAdjust="spacing" textLength="62.1499" x="44.1724" y="95.4561">Respuesta</text><!--SRC=[Syp9J4vLqBLJSCfFibBmJSqhJinAvG9o57I1WeuWMIk5eDJYWjBKuf94BW00]--></g></svg>