<svg xmlns="http://www.w3.org/2000/svg" xmlns:xlink="http://www.w3.org/1999/xlink" contentStyleType="text/css" data-diagram-type="CLASS" height="251px" preserveAspectRatio="none" style="width:347px;height:251px;" version="1.1" viewBox="0 0 347 251" width="347px" zoomAndPan="magnify"><defs/><g><!--class Persona--><g id="elem_Persona"><rect codeLine="2" fill="#F1F1F1" height="97.1777" id="Persona" rx="2.5" ry="2.5" style="stroke:#181818;stroke-width:0.5;" width="141.459" x="107" y="7"/><ellipse cx="147.0102" cy="23" fill="#ADD1B2" rx="11" ry="11" style="stroke:#181818;stroke-width:1;"/><path d="M149.7758,18.875 Q149.932,18.6563 150.1195,18.5469 Q150.307,18.4375 150.5258,18.4375 Q150.9008,18.4375 151.1352,18.7031 Q151.3695,18.9531 151.3695,19.5625 L151.3695,21.0156 Q151.3695,21.625 151.1352,21.8906 Q150.9008,22.1563 150.5258,22.1563 Q150.182,22.1563 149.9789,21.9531 Q149.7758,21.7656 149.6664,21.25 Q149.6195,20.8906 149.432,20.7031 Q149.1039,20.3281 148.4945,20.1094 Q147.8852,19.8906 147.2602,19.8906 Q146.4945,19.8906 145.8539,20.2188 Q145.2289,20.5469 144.7289,21.2969 Q144.2445,22.0469 144.2445,23.0781 L144.2445,24.1719 Q144.2445,25.4063 145.1352,26.2344 Q146.0258,27.0469 147.6195,27.0469 Q148.557,27.0469 149.2133,26.7969 Q149.6039,26.6406 150.0258,26.2031 Q150.2914,25.9375 150.432,25.8594 Q150.5883,25.7813 150.7914,25.7813 Q151.1195,25.7813 151.3695,26.0469 Q151.6352,26.2969 151.6352,26.6406 Q151.6352,26.9844 151.2914,27.3906 Q150.7914,27.9688 149.9945,28.2969 Q148.9164,28.75 147.6195,28.75 Q146.1039,28.75 144.9008,28.125 Q143.9164,27.625 143.2289,26.5625 Q142.5414,25.4844 142.5414,24.2031 L142.5414,23.0469 Q142.5414,21.7188 143.1508,20.5781 Q143.7758,19.4219 144.8695,18.8125 Q145.9633,18.1875 147.1977,18.1875 Q147.932,18.1875 148.5727,18.3594 Q149.2289,18.5156 149.7758,18.875 Z " fill="#000000"/><text fill="#000000" font-family="Consolas" font-size="14" font-weight="bold" lengthAdjust="spacing" textLength="53.8809" x="166.568" y="27.5938">Persona</text><line style="stroke:#181818;stroke-width:0.5;" x1="108" x2="247.459" y1="39" y2="39"/><rect fill="transparent" height="6" style="stroke:#C82930;stroke-width:1;" width="6" x="115" y="49.6963"/><text fill="#000000" font-family="Consolas" font-size="14" lengthAdjust="spacing" textLength="107.7617" x="127" y="55.79">nombre: String</text><rect fill="transparent" height="6" style="stroke:#C82930;stroke-width:1;" width="6" x="115" y="66.0889"/><text fill="#000000" font-family="Consolas" font-size="14" lengthAdjust="spacing" textLength="69.2754" x="127" y="72.1826">edad: int</text><line style="stroke:#181818;stroke-width:0.5;" x1="108" x2="247.459" y1="79.7852" y2="79.7852"/><ellipse cx="118" cy="93.4814" fill="#84BE84" rx="3" ry="3" style="stroke:#038048;stroke-width:1;"/><text fill="#000000" font-family="Consolas" font-size="14" lengthAdjust="spacing" textLength="115.459" x="127" y="96.5752">caminar(): void</text></g><!--class Estudiante--><g id="elem_Estudiante"><rect codeLine="8" fill="#F1F1F1" height="80.7852" id="Estudiante" rx="2.5" ry="2.5" style="stroke:#181818;stroke-width:0.5;" width="156.8535" x="7" y="164"/><ellipse cx="43.5464" cy="180" fill="#ADD1B2" rx="11" ry="11" style="stroke:#181818;stroke-width:1;"/><path d="M46.312,175.875 Q46.4683,175.6563 46.6558,175.5469 Q46.8433,175.4375 47.062,175.4375 Q47.437,175.4375 47.6714,175.7031 Q47.9058,175.9531 47.9058,176.5625 L47.9058,178.0156 Q47.9058,178.625 47.6714,178.8906 Q47.437,179.1563 47.062,179.1563 Q46.7183,179.1563 46.5151,178.9531 Q46.312,178.7656 46.2026,178.25 Q46.1558,177.8906 45.9683,177.7031 Q45.6401,177.3281 45.0308,177.1094 Q44.4214,176.8906 43.7964,176.8906 Q43.0308,176.8906 42.3901,177.2188 Q41.7651,177.5469 41.2651,178.2969 Q40.7808,179.0469 40.7808,180.0781 L40.7808,181.1719 Q40.7808,182.4063 41.6714,183.2344 Q42.562,184.0469 44.1558,184.0469 Q45.0933,184.0469 45.7495,183.7969 Q46.1401,183.6406 46.562,183.2031 Q46.8276,182.9375 46.9683,182.8594 Q47.1245,182.7813 47.3276,182.7813 Q47.6558,182.7813 47.9058,183.0469 Q48.1714,183.2969 48.1714,183.6406 Q48.1714,183.9844 47.8276,184.3906 Q47.3276,184.9688 46.5308,185.2969 Q45.4526,185.75 44.1558,185.75 Q42.6401,185.75 41.437,185.125 Q40.4526,184.625 39.7651,183.5625 Q39.0776,182.4844 39.0776,181.2031 L39.0776,180.0469 Q39.0776,178.7188 39.687,177.5781 Q40.312,176.4219 41.4058,175.8125 Q42.4995,175.1875 43.7339,175.1875 Q44.4683,175.1875 45.1089,175.3594 Q45.7651,175.5156 46.312,175.875 Z " fill="#000000"/><text fill="#000000" font-family="Consolas" font-size="14" font-weight="bold" lengthAdjust="spacing" textLength="76.9727" x="62.3345" y="184.5938">Estudiante</text><line style="stroke:#181818;stroke-width:0.5;" x1="8" x2="162.8535" y1="196" y2="196"/><rect fill="transparent" height="6" style="stroke:#C82930;stroke-width:1;" width="6" x="15" y="206.6963"/><text fill="#000000" font-family="Consolas" font-size="14" lengthAdjust="spacing" textLength="130.8535" x="27" y="212.79">matricula: String</text><line style="stroke:#181818;stroke-width:0.5;" x1="8" x2="162.8535" y1="220.3926" y2="220.3926"/><ellipse cx="18" cy="234.0889" fill="#84BE84" rx="3" ry="3" style="stroke:#038048;stroke-width:1;"/><text fill="#000000" font-family="Consolas" font-size="14" lengthAdjust="spacing" textLength="123.1563" x="27" y="237.1826">estudiar(): void</text></g><!--class Profesor--><g id="elem_Profesor"><rect codeLine="13" fill="#F1F1F1" height="80.7852" id="Profesor" rx="2.5" ry="2.5" style="stroke:#181818;stroke-width:0.5;" width="141.459" x="199" y="164"/><ellipse cx="235.5464" cy="180" fill="#ADD1B2" rx="11" ry="11" style="stroke:#181818;stroke-width:1;"/><path d="M238.312,175.875 Q238.4683,175.6563 238.6558,175.5469 Q238.8433,175.4375 239.062,175.4375 Q239.437,175.4375 239.6714,175.7031 Q239.9058,175.9531 239.9058,176.5625 L239.9058,178.0156 Q239.9058,178.625 239.6714,178.8906 Q239.437,179.1563 239.062,179.1563 Q238.7183,179.1563 238.5151,178.9531 Q238.312,178.7656 238.2026,178.25 Q238.1558,177.8906 237.9683,177.7031 Q237.6401,177.3281 237.0308,177.1094 Q236.4214,176.8906 235.7964,176.8906 Q235.0308,176.8906 234.3901,177.2188 Q233.7651,177.5469 233.2651,178.2969 Q232.7808,179.0469 232.7808,180.0781 L232.7808,181.1719 Q232.7808,182.4063 233.6714,183.2344 Q234.562,184.0469 236.1558,184.0469 Q237.0933,184.0469 237.7495,183.7969 Q238.1401,183.6406 238.562,183.2031 Q238.8276,182.9375 238.9683,182.8594 Q239.1245,182.7813 239.3276,182.7813 Q239.6558,182.7813 239.9058,183.0469 Q240.1714,183.2969 240.1714,183.6406 Q240.1714,183.9844 239.8276,184.3906 Q239.3276,184.9688 238.5308,185.2969 Q237.4526,185.75 236.1558,185.75 Q234.6401,185.75 233.437,185.125 Q232.4526,184.625 231.7651,183.5625 Q231.0776,182.4844 231.0776,181.2031 L231.0776,180.0469 Q231.0776,178.7188 231.687,177.5781 Q232.312,176.4219 233.4058,175.8125 Q234.4995,175.1875 235.7339,175.1875 Q236.4683,175.1875 237.1089,175.3594 Q237.7651,175.5156 238.312,175.875 Z " fill="#000000"/><text fill="#000000" font-family="Consolas" font-size="14" font-weight="bold" lengthAdjust="spacing" textLength="61.5781" x="254.3345" y="184.5938">Profesor</text><line style="stroke:#181818;stroke-width:0.5;" x1="200" x2="339.459" y1="196" y2="196"/><rect fill="transparent" height="6" style="stroke:#C82930;stroke-width:1;" width="6" x="207" y="206.6963"/><text fill="#000000" font-family="Consolas" font-size="14" lengthAdjust="spacing" textLength="53.8809" x="219" y="212.79">id: int</text><line style="stroke:#181818;stroke-width:0.5;" x1="200" x2="339.459" y1="220.3926" y2="220.3926"/><ellipse cx="210" cy="234.0889" fill="#84BE84" rx="3" ry="3" style="stroke:#038048;stroke-width:1;"/><text fill="#000000" font-family="Consolas" font-size="14" lengthAdjust="spacing" textLength="115.459" x="219" y="237.1826">ense&#241;ar(): void</text></g><!--reverse link Persona to Estudiante--><g id="link_Persona_Estudiante"><path codeLine="18" d="M138.0786,119.4869 C126.0086,138.7669 121.8,145.5 110.3,163.88 " fill="transparent" id="Persona-backto-Estudiante" style="stroke:#181818;stroke-width:1;"/><polygon fill="transparent" points="147.63,104.23,132.993,116.3031,143.1643,122.6706,147.63,104.23" style="stroke:#181818;stroke-width:1;"/></g><!--reverse link Persona to Profesor--><g id="link_Persona_Profesor"><path codeLine="19" d="M216.9214,119.4869 C228.9914,138.7669 233.2,145.5 244.7,163.88 " fill="transparent" id="Persona-backto-Profesor" style="stroke:#181818;stroke-width:1;"/><polygon fill="transparent" points="207.37,104.23,211.8357,122.6706,222.007,116.3031,207.37,104.23" style="stroke:#181818;stroke-width:1;"/></g><!--SRC=[ROvD2i8m48NtESMuKqeyG73hlk09ncHQ1fA9vCTDzL2UmOjPD8KMNCxZlU-R7OlrrH7SF4gfmHzjb857PJtc33sb70LXKW0Q98Ph8WENabZ6RqGEdG6MCbyTM0micFO70_V8JZrLuvnpgOvd0pLKm9bXgySLhGFwrVu0-XG7oZ6rEQ-a99dUh-re-Vlqq7ebt-OBKtq0]--></g></svg>