<svg xmlns="http://www.w3.org/2000/svg" xmlns:xlink="http://www.w3.org/1999/xlink" contentStyleType="text/css" data-diagram-type="SEQUENCE" height="235px" preserveAspectRatio="none" style="width:285px;height:235px;background:#FFFFFF;" version="1.1" viewBox="0 0 285 235" width="285px" zoomAndPan="magnify"><title>Ejemplo de diagrama de secuencia</title><defs/><g><text fill="#000000" font-family="sans-serif" font-size="14" font-weight="bold" lengthAdjust="spacing" textLength="232.6475" x="24.7744" y="29.5332">Ejemplo de diagrama de secuencia</text><g><title>Alice</title><rect fill="transparent" height="123.0547" width="8" x="151.1724" y="76.2188"/><line style="stroke:#181818;stroke-width:0.5;stroke-dasharray:5.0,5.0;" x1="155" x2="155" y1="76.2188" y2="199.2734"/></g><g><title>Bob</title><rect fill="transparent" height="123.0547" width="8" x="237.3223" y="76.2188"/><line style="stroke:#181818;stroke-width:0.5;stroke-dasharray:5.0,5.0;" x1="240.8672" x2="240.8672" y1="76.2188" y2="199.2734"/></g><rect fill="#E2E2F0" height="31.6094" rx="2.5" ry="2.5" style="stroke:#181818;stroke-width:0.5;" width="44.3447" x="133" y="43.6094"/><text fill="#000000" font-family="sans-serif" font-size="14" lengthAdjust="spacing" textLength="30.3447" x="140" y="65.1426">Alice</text><rect fill="#E2E2F0" height="31.6094" rx="2.5" ry="2.5" style="stroke:#181818;stroke-width:0.5;" width="44.3447" x="133" y="198.2734"/><text fill="#000000" font-family="sans-serif" font-size="14" lengthAdjust="spacing" textLength="30.3447" x="140" y="219.8066">Alice</text><rect fill="#E2E2F0" height="31.6094" rx="2.5" ry="2.5" style="stroke:#181818;stroke-width:0.5;" width="38.9102" x="221.8672" y="43.6094"/><text fill="#000000" font-family="sans-serif" font-size="14" lengthAdjust="spacing" textLength="24.9102" x="228.8672" y="65.1426">Bob</text><rect fill="#E2E2F0" height="31.6094" rx="2.5" ry="2.5" style="stroke:#181818;stroke-width:0.5;" width="38.9102" x="221.8672" y="198.2734"/><text fill="#000000" font-family="sans-serif" font-size="14" lengthAdjust="spacing" textLength="24.9102" x="228.8672" y="219.8066">Bob</text><polygon fill="#181818" points="229.3223,104.5703,239.3223,108.5703,229.3223,112.5703,233.3223,108.5703" style="stroke:#181818;stroke-width:1;"/><line style="stroke:#181818;stroke-width:1;" x1="155.1724" x2="235.3223" y1="108.5703" y2="108.5703"/><text fill="#000000" font-family="sans-serif" font-size="13" lengthAdjust="spacing" textLength="49.1372" x="162.1724" y="103.7139">Mensaje</text><polygon fill="#181818" points="166.1724,137.9219,156.1724,141.9219,166.1724,145.9219,162.1724,141.9219" style="stroke:#181818;stroke-width:1;"/><line style="stroke:#181818;stroke-width:1;" x1="160.1724" x2="240.3223" y1="141.9219" y2="141.9219"/><text fill="#000000" font-family="sans-serif" font-size="13" lengthAdjust="spacing" textLength="62.1499" x="172.1724" y="137.0654">Respuesta</text><path d="M5,121.5703 L5,147.5703 L150,147.5703 L150,131.5703 L140,121.5703 L5,121.5703 " fill="#FEFFDD" style="stroke:#181818;stroke-width:0.5;"/><path d="M140,121.5703 L140,131.5703 L150,131.5703 L140,121.5703 " fill="#FEFFDD" style="stroke:#181818;stroke-width:0.5;"/><text fill="#000000" font-family="sans-serif" font-size="13" lengthAdjust="spacing" textLength="124.2808" x="11" y="140.0654">Aprender Plantuml &#127793;</text><path d="M203,157.9219 L203,183.9219 L278,183.9219 L278,167.9219 L268,157.9219 L203,157.9219 " fill="#FEFFDD" style="stroke:#181818;stroke-width:0.5;"/><path d="M268,157.9219 L268,167.9219 L278,167.9219 L268,157.9219 " fill="#FEFFDD" style="stroke:#181818;stroke-width:0.5;"/><text fill="#000000" font-family="sans-serif" font-size="13" lengthAdjust="spacing" textLength="54.1963" x="209" y="176.417">Otra nota</text><!--SRC=[9OtB3G8n44FlgM8Qe84Sa8B44O7eODWObDNaesH25Ti3DT0P9P30pNxFafs41RJRqo7VB9sG6gymeqpcfhHqHIiTJTaO3IgWuufO99C7-S2Fof5dRbWwqXBOfAmWmLqjkLAHF2fTX9FsAFHvRU__8Zy7_nsVjJ8Dnby0]--></g></svg>