<svg xmlns="http://www.w3.org/2000/svg" xmlns:xlink="http://www.w3.org/1999/xlink" contentStyleType="text/css" data-diagram-type="CLASS" height="392px" preserveAspectRatio="none" style="width:489px;height:392px;background:#FFFFFF;" version="1.1" viewBox="0 0 489 392" width="489px" zoomAndPan="magnify"><title>Relaciones entre Clases</title><defs/><g><text fill="#000000" font-family="sans-serif" font-size="14" font-weight="bold" lengthAdjust="spacing" textLength="161.082" x="157.2671" y="24.5332">Relaciones entre Clases</text><!--class A--><g id="elem_A"><rect codeLine="4" fill="#F1F1F1" height="48" id="A" rx="2.5" ry="2.5" style="stroke:#181818;stroke-width:0.5;" width="41.3379" x="44.5" y="191.6094"/><ellipse cx="59.5" cy="207.6094" fill="#ADD1B2" rx="11" ry="11" style="stroke:#181818;stroke-width:1;"/><path d="M62.2656,203.4844 Q62.4219,203.2656 62.6094,203.1563 Q62.7969,203.0469 63.0156,203.0469 Q63.3906,203.0469 63.625,203.3125 Q63.8594,203.5625 63.8594,204.1719 L63.8594,205.625 Q63.8594,206.2344 63.625,206.5 Q63.3906,206.7656 63.0156,206.7656 Q62.6719,206.7656 62.4688,206.5625 Q62.2656,206.375 62.1563,205.8594 Q62.1094,205.5 61.9219,205.3125 Q61.5938,204.9375 60.9844,204.7188 Q60.375,204.5 59.75,204.5 Q58.9844,204.5 58.3438,204.8281 Q57.7188,205.1563 57.2188,205.9063 Q56.7344,206.6563 56.7344,207.6875 L56.7344,208.7813 Q56.7344,210.0156 57.625,210.8438 Q58.5156,211.6563 60.1094,211.6563 Q61.0469,211.6563 61.7031,211.4063 Q62.0938,211.25 62.5156,210.8125 Q62.7813,210.5469 62.9219,210.4688 Q63.0781,210.3906 63.2813,210.3906 Q63.6094,210.3906 63.8594,210.6563 Q64.125,210.9063 64.125,211.25 Q64.125,211.5938 63.7813,212 Q63.2813,212.5781 62.4844,212.9063 Q61.4063,213.3594 60.1094,213.3594 Q58.5938,213.3594 57.3906,212.7344 Q56.4063,212.2344 55.7188,211.1719 Q55.0313,210.0938 55.0313,208.8125 L55.0313,207.6563 Q55.0313,206.3281 55.6406,205.1875 Q56.2656,204.0313 57.3594,203.4219 Q58.4531,202.7969 59.6875,202.7969 Q60.4219,202.7969 61.0625,202.9688 Q61.7188,203.125 62.2656,203.4844 Z " fill="#000000"/><text fill="#000000" font-family="sans-serif" font-size="14" lengthAdjust="spacing" textLength="9.3379" x="73.5" y="213.3379">A</text><line style="stroke:#181818;stroke-width:0.5;" x1="45.5" x2="84.8379" y1="223.6094" y2="223.6094"/><line style="stroke:#181818;stroke-width:0.5;" x1="45.5" x2="84.8379" y1="231.6094" y2="231.6094"/></g><polygon fill="transparent" points="65.0788,239.6094,72.0037,259.6355,58.0038,259.583" style="stroke:#181818;stroke-width:1;"/><line style="stroke:#181818;stroke-width:1;" x1="65.0038" x2="65" y1="259.6092" y2="260.6094"/><line style="stroke:#181818;stroke-width:1;" x1="65.077" x2="65" y1="191.6094" y2="171.4894"/><!--class H--><g id="elem_H"><rect codeLine="5" fill="#F1F1F1" height="48" id="H" rx="2.5" ry="2.5" style="stroke:#181818;stroke-width:0.5;" width="42.1104" x="7" y="337.6094"/><ellipse cx="22" cy="353.6094" fill="#ADD1B2" rx="11" ry="11" style="stroke:#181818;stroke-width:1;"/><path d="M24.7656,349.4844 Q24.9219,349.2656 25.1094,349.1563 Q25.2969,349.0469 25.5156,349.0469 Q25.8906,349.0469 26.125,349.3125 Q26.3594,349.5625 26.3594,350.1719 L26.3594,351.625 Q26.3594,352.2344 26.125,352.5 Q25.8906,352.7656 25.5156,352.7656 Q25.1719,352.7656 24.9688,352.5625 Q24.7656,352.375 24.6563,351.8594 Q24.6094,351.5 24.4219,351.3125 Q24.0938,350.9375 23.4844,350.7188 Q22.875,350.5 22.25,350.5 Q21.4844,350.5 20.8438,350.8281 Q20.2188,351.1563 19.7188,351.9063 Q19.2344,352.6563 19.2344,353.6875 L19.2344,354.7813 Q19.2344,356.0156 20.125,356.8438 Q21.0156,357.6563 22.6094,357.6563 Q23.5469,357.6563 24.2031,357.4063 Q24.5938,357.25 25.0156,356.8125 Q25.2813,356.5469 25.4219,356.4688 Q25.5781,356.3906 25.7813,356.3906 Q26.1094,356.3906 26.3594,356.6563 Q26.625,356.9063 26.625,357.25 Q26.625,357.5938 26.2813,358 Q25.7813,358.5781 24.9844,358.9063 Q23.9063,359.3594 22.6094,359.3594 Q21.0938,359.3594 19.8906,358.7344 Q18.9063,358.2344 18.2188,357.1719 Q17.5313,356.0938 17.5313,354.8125 L17.5313,353.6563 Q17.5313,352.3281 18.1406,351.1875 Q18.7656,350.0313 19.8594,349.4219 Q20.9531,348.7969 22.1875,348.7969 Q22.9219,348.7969 23.5625,348.9688 Q24.2188,349.125 24.7656,349.4844 Z " fill="#000000"/><text fill="#000000" font-family="sans-serif" font-size="14" lengthAdjust="spacing" textLength="10.1104" x="36" y="359.3379">H</text><line style="stroke:#181818;stroke-width:0.5;" x1="8" x2="48.1104" y1="369.6094" y2="369.6094"/><line style="stroke:#181818;stroke-width:0.5;" x1="8" x2="48.1104" y1="377.6094" y2="377.6094"/></g><!--class I--><g id="elem_I"><rect codeLine="6" fill="#F1F1F1" height="48" id="I" rx="2.5" ry="2.5" style="stroke:#181818;stroke-width:0.5;" width="35.8896" x="84" y="337.6094"/><ellipse cx="99" cy="353.6094" fill="#ADD1B2" rx="11" ry="11" style="stroke:#181818;stroke-width:1;"/><path d="M101.7656,349.4844 Q101.9219,349.2656 102.1094,349.1563 Q102.2969,349.0469 102.5156,349.0469 Q102.8906,349.0469 103.125,349.3125 Q103.3594,349.5625 103.3594,350.1719 L103.3594,351.625 Q103.3594,352.2344 103.125,352.5 Q102.8906,352.7656 102.5156,352.7656 Q102.1719,352.7656 101.9688,352.5625 Q101.7656,352.375 101.6563,351.8594 Q101.6094,351.5 101.4219,351.3125 Q101.0938,350.9375 100.4844,350.7188 Q99.875,350.5 99.25,350.5 Q98.4844,350.5 97.8438,350.8281 Q97.2188,351.1563 96.7188,351.9063 Q96.2344,352.6563 96.2344,353.6875 L96.2344,354.7813 Q96.2344,356.0156 97.125,356.8438 Q98.0156,357.6563 99.6094,357.6563 Q100.5469,357.6563 101.2031,357.4063 Q101.5938,357.25 102.0156,356.8125 Q102.2813,356.5469 102.4219,356.4688 Q102.5781,356.3906 102.7813,356.3906 Q103.1094,356.3906 103.3594,356.6563 Q103.625,356.9063 103.625,357.25 Q103.625,357.5938 103.2813,358 Q102.7813,358.5781 101.9844,358.9063 Q100.9063,359.3594 99.6094,359.3594 Q98.0938,359.3594 96.8906,358.7344 Q95.9063,358.2344 95.2188,357.1719 Q94.5313,356.0938 94.5313,354.8125 L94.5313,353.6563 Q94.5313,352.3281 95.1406,351.1875 Q95.7656,350.0313 96.8594,349.4219 Q97.9531,348.7969 99.1875,348.7969 Q99.9219,348.7969 100.5625,348.9688 Q101.2188,349.125 101.7656,349.4844 Z " fill="#000000"/><text fill="#000000" font-family="sans-serif" font-size="14" lengthAdjust="spacing" textLength="3.8896" x="113" y="359.3379">I</text><line style="stroke:#181818;stroke-width:0.5;" x1="85" x2="118.8896" y1="369.6094" y2="369.6094"/><line style="stroke:#181818;stroke-width:0.5;" x1="85" x2="118.8896" y1="377.6094" y2="377.6094"/></g><!--class J--><g id="elem_J"><rect codeLine="7" fill="#F1F1F1" height="48" id="J" rx="2.5" ry="2.5" style="stroke:#181818;stroke-width:0.5;" width="39" x="384.5" y="45.6094"/><ellipse cx="399.5" cy="61.6094" fill="#ADD1B2" rx="11" ry="11" style="stroke:#181818;stroke-width:1;"/><path d="M402.2656,57.4844 Q402.4219,57.2656 402.6094,57.1563 Q402.7969,57.0469 403.0156,57.0469 Q403.3906,57.0469 403.625,57.3125 Q403.8594,57.5625 403.8594,58.1719 L403.8594,59.625 Q403.8594,60.2344 403.625,60.5 Q403.3906,60.7656 403.0156,60.7656 Q402.6719,60.7656 402.4688,60.5625 Q402.2656,60.375 402.1563,59.8594 Q402.1094,59.5 401.9219,59.3125 Q401.5938,58.9375 400.9844,58.7188 Q400.375,58.5 399.75,58.5 Q398.9844,58.5 398.3438,58.8281 Q397.7188,59.1563 397.2188,59.9063 Q396.7344,60.6563 396.7344,61.6875 L396.7344,62.7813 Q396.7344,64.0156 397.625,64.8438 Q398.5156,65.6563 400.1094,65.6563 Q401.0469,65.6563 401.7031,65.4063 Q402.0938,65.25 402.5156,64.8125 Q402.7813,64.5469 402.9219,64.4688 Q403.0781,64.3906 403.2813,64.3906 Q403.6094,64.3906 403.8594,64.6563 Q404.125,64.9063 404.125,65.25 Q404.125,65.5938 403.7813,66 Q403.2813,66.5781 402.4844,66.9063 Q401.4063,67.3594 400.1094,67.3594 Q398.5938,67.3594 397.3906,66.7344 Q396.4063,66.2344 395.7188,65.1719 Q395.0313,64.0938 395.0313,62.8125 L395.0313,61.6563 Q395.0313,60.3281 395.6406,59.1875 Q396.2656,58.0313 397.3594,57.4219 Q398.4531,56.7969 399.6875,56.7969 Q400.4219,56.7969 401.0625,56.9688 Q401.7188,57.125 402.2656,57.4844 Z " fill="#000000"/><text fill="#000000" font-family="sans-serif" font-size="14" lengthAdjust="spacing" textLength="7" x="413.5" y="67.3379">J</text><line style="stroke:#181818;stroke-width:0.5;" x1="385.5" x2="422.5" y1="77.6094" y2="77.6094"/><line style="stroke:#181818;stroke-width:0.5;" x1="385.5" x2="422.5" y1="85.6094" y2="85.6094"/></g><!--class B--><g id="elem_B"><rect codeLine="8" fill="#F1F1F1" height="48" id="B" rx="2.5" ry="2.5" style="stroke:#181818;stroke-width:0.5;" width="41.3379" x="44.5" y="45.6094"/><ellipse cx="59.5" cy="61.6094" fill="#ADD1B2" rx="11" ry="11" style="stroke:#181818;stroke-width:1;"/><path d="M62.2656,57.4844 Q62.4219,57.2656 62.6094,57.1563 Q62.7969,57.0469 63.0156,57.0469 Q63.3906,57.0469 63.625,57.3125 Q63.8594,57.5625 63.8594,58.1719 L63.8594,59.625 Q63.8594,60.2344 63.625,60.5 Q63.3906,60.7656 63.0156,60.7656 Q62.6719,60.7656 62.4688,60.5625 Q62.2656,60.375 62.1563,59.8594 Q62.1094,59.5 61.9219,59.3125 Q61.5938,58.9375 60.9844,58.7188 Q60.375,58.5 59.75,58.5 Q58.9844,58.5 58.3438,58.8281 Q57.7188,59.1563 57.2188,59.9063 Q56.7344,60.6563 56.7344,61.6875 L56.7344,62.7813 Q56.7344,64.0156 57.625,64.8438 Q58.5156,65.6563 60.1094,65.6563 Q61.0469,65.6563 61.7031,65.4063 Q62.0938,65.25 62.5156,64.8125 Q62.7813,64.5469 62.9219,64.4688 Q63.0781,64.3906 63.2813,64.3906 Q63.6094,64.3906 63.8594,64.6563 Q64.125,64.9063 64.125,65.25 Q64.125,65.5938 63.7813,66 Q63.2813,66.5781 62.4844,66.9063 Q61.4063,67.3594 60.1094,67.3594 Q58.5938,67.3594 57.3906,66.7344 Q56.4063,66.2344 55.7188,65.1719 Q55.0313,64.0938 55.0313,62.8125 L55.0313,61.6563 Q55.0313,60.3281 55.6406,59.1875 Q56.2656,58.0313 57.3594,57.4219 Q58.4531,56.7969 59.6875,56.7969 Q60.4219,56.7969 61.0625,56.9688 Q61.7188,57.125 62.2656,57.4844 Z " fill="#000000"/><text fill="#000000" font-family="sans-serif" font-size="14" lengthAdjust="spacing" textLength="9.3379" x="73.5" y="67.3379">B</text><line style="stroke:#181818;stroke-width:0.5;" x1="45.5" x2="84.8379" y1="77.6094" y2="77.6094"/><line style="stroke:#181818;stroke-width:0.5;" x1="45.5" x2="84.8379" y1="85.6094" y2="85.6094"/></g><!--class C--><g id="elem_C"><rect codeLine="9" fill="#F1F1F1" height="48" id="C" rx="2.5" ry="2.5" style="stroke:#181818;stroke-width:0.5;" width="42.1104" x="230" y="45.6094"/><ellipse cx="245" cy="61.6094" fill="#ADD1B2" rx="11" ry="11" style="stroke:#181818;stroke-width:1;"/><path d="M247.7656,57.4844 Q247.9219,57.2656 248.1094,57.1563 Q248.2969,57.0469 248.5156,57.0469 Q248.8906,57.0469 249.125,57.3125 Q249.3594,57.5625 249.3594,58.1719 L249.3594,59.625 Q249.3594,60.2344 249.125,60.5 Q248.8906,60.7656 248.5156,60.7656 Q248.1719,60.7656 247.9688,60.5625 Q247.7656,60.375 247.6563,59.8594 Q247.6094,59.5 247.4219,59.3125 Q247.0938,58.9375 246.4844,58.7188 Q245.875,58.5 245.25,58.5 Q244.4844,58.5 243.8438,58.8281 Q243.2188,59.1563 242.7188,59.9063 Q242.2344,60.6563 242.2344,61.6875 L242.2344,62.7813 Q242.2344,64.0156 243.125,64.8438 Q244.0156,65.6563 245.6094,65.6563 Q246.5469,65.6563 247.2031,65.4063 Q247.5938,65.25 248.0156,64.8125 Q248.2813,64.5469 248.4219,64.4688 Q248.5781,64.3906 248.7813,64.3906 Q249.1094,64.3906 249.3594,64.6563 Q249.625,64.9063 249.625,65.25 Q249.625,65.5938 249.2813,66 Q248.7813,66.5781 247.9844,66.9063 Q246.9063,67.3594 245.6094,67.3594 Q244.0938,67.3594 242.8906,66.7344 Q241.9063,66.2344 241.2188,65.1719 Q240.5313,64.0938 240.5313,62.8125 L240.5313,61.6563 Q240.5313,60.3281 241.1406,59.1875 Q241.7656,58.0313 242.8594,57.4219 Q243.9531,56.7969 245.1875,56.7969 Q245.9219,56.7969 246.5625,56.9688 Q247.2188,57.125 247.7656,57.4844 Z " fill="#000000"/><text fill="#000000" font-family="sans-serif" font-size="14" lengthAdjust="spacing" textLength="10.1104" x="259" y="67.3379">C</text><line style="stroke:#181818;stroke-width:0.5;" x1="231" x2="271.1104" y1="77.6094" y2="77.6094"/><line style="stroke:#181818;stroke-width:0.5;" x1="231" x2="271.1104" y1="85.6094" y2="85.6094"/></g><!--class D--><g id="elem_D"><rect codeLine="10" fill="#F1F1F1" height="48" id="D" rx="2.5" ry="2.5" style="stroke:#181818;stroke-width:0.5;" width="42.1104" x="230" y="191.6094"/><ellipse cx="245" cy="207.6094" fill="#ADD1B2" rx="11" ry="11" style="stroke:#181818;stroke-width:1;"/><path d="M247.7656,203.4844 Q247.9219,203.2656 248.1094,203.1563 Q248.2969,203.0469 248.5156,203.0469 Q248.8906,203.0469 249.125,203.3125 Q249.3594,203.5625 249.3594,204.1719 L249.3594,205.625 Q249.3594,206.2344 249.125,206.5 Q248.8906,206.7656 248.5156,206.7656 Q248.1719,206.7656 247.9688,206.5625 Q247.7656,206.375 247.6563,205.8594 Q247.6094,205.5 247.4219,205.3125 Q247.0938,204.9375 246.4844,204.7188 Q245.875,204.5 245.25,204.5 Q244.4844,204.5 243.8438,204.8281 Q243.2188,205.1563 242.7188,205.9063 Q242.2344,206.6563 242.2344,207.6875 L242.2344,208.7813 Q242.2344,210.0156 243.125,210.8438 Q244.0156,211.6563 245.6094,211.6563 Q246.5469,211.6563 247.2031,211.4063 Q247.5938,211.25 248.0156,210.8125 Q248.2813,210.5469 248.4219,210.4688 Q248.5781,210.3906 248.7813,210.3906 Q249.1094,210.3906 249.3594,210.6563 Q249.625,210.9063 249.625,211.25 Q249.625,211.5938 249.2813,212 Q248.7813,212.5781 247.9844,212.9063 Q246.9063,213.3594 245.6094,213.3594 Q244.0938,213.3594 242.8906,212.7344 Q241.9063,212.2344 241.2188,211.1719 Q240.5313,210.0938 240.5313,208.8125 L240.5313,207.6563 Q240.5313,206.3281 241.1406,205.1875 Q241.7656,204.0313 242.8594,203.4219 Q243.9531,202.7969 245.1875,202.7969 Q245.9219,202.7969 246.5625,202.9688 Q247.2188,203.125 247.7656,203.4844 Z " fill="#000000"/><text fill="#000000" font-family="sans-serif" font-size="14" lengthAdjust="spacing" textLength="10.1104" x="259" y="213.3379">D</text><line style="stroke:#181818;stroke-width:0.5;" x1="231" x2="271.1104" y1="223.6094" y2="223.6094"/><line style="stroke:#181818;stroke-width:0.5;" x1="231" x2="271.1104" y1="231.6094" y2="231.6094"/></g><!--class E--><g id="elem_E"><rect codeLine="11" fill="#F1F1F1" height="48" id="E" rx="2.5" ry="2.5" style="stroke:#181818;stroke-width:0.5;" width="41.3379" x="383.5" y="191.6094"/><ellipse cx="398.5" cy="207.6094" fill="#ADD1B2" rx="11" ry="11" style="stroke:#181818;stroke-width:1;"/><path d="M401.2656,203.4844 Q401.4219,203.2656 401.6094,203.1563 Q401.7969,203.0469 402.0156,203.0469 Q402.3906,203.0469 402.625,203.3125 Q402.8594,203.5625 402.8594,204.1719 L402.8594,205.625 Q402.8594,206.2344 402.625,206.5 Q402.3906,206.7656 402.0156,206.7656 Q401.6719,206.7656 401.4688,206.5625 Q401.2656,206.375 401.1563,205.8594 Q401.1094,205.5 400.9219,205.3125 Q400.5938,204.9375 399.9844,204.7188 Q399.375,204.5 398.75,204.5 Q397.9844,204.5 397.3438,204.8281 Q396.7188,205.1563 396.2188,205.9063 Q395.7344,206.6563 395.7344,207.6875 L395.7344,208.7813 Q395.7344,210.0156 396.625,210.8438 Q397.5156,211.6563 399.1094,211.6563 Q400.0469,211.6563 400.7031,211.4063 Q401.0938,211.25 401.5156,210.8125 Q401.7813,210.5469 401.9219,210.4688 Q402.0781,210.3906 402.2813,210.3906 Q402.6094,210.3906 402.8594,210.6563 Q403.125,210.9063 403.125,211.25 Q403.125,211.5938 402.7813,212 Q402.2813,212.5781 401.4844,212.9063 Q400.4063,213.3594 399.1094,213.3594 Q397.5938,213.3594 396.3906,212.7344 Q395.4063,212.2344 394.7188,211.1719 Q394.0313,210.0938 394.0313,208.8125 L394.0313,207.6563 Q394.0313,206.3281 394.6406,205.1875 Q395.2656,204.0313 396.3594,203.4219 Q397.4531,202.7969 398.6875,202.7969 Q399.4219,202.7969 400.0625,202.9688 Q400.7188,203.125 401.2656,203.4844 Z " fill="#000000"/><text fill="#000000" font-family="sans-serif" font-size="14" lengthAdjust="spacing" textLength="9.3379" x="412.5" y="213.3379">E</text><line style="stroke:#181818;stroke-width:0.5;" x1="384.5" x2="423.8379" y1="223.6094" y2="223.6094"/><line style="stroke:#181818;stroke-width:0.5;" x1="384.5" x2="423.8379" y1="231.6094" y2="231.6094"/></g><!--class F--><g id="elem_F"><rect codeLine="12" fill="#F1F1F1" height="48" id="F" rx="2.5" ry="2.5" style="stroke:#181818;stroke-width:0.5;" width="40.5518" x="383.5" y="337.6094"/><ellipse cx="398.5" cy="353.6094" fill="#ADD1B2" rx="11" ry="11" style="stroke:#181818;stroke-width:1;"/><path d="M401.2656,349.4844 Q401.4219,349.2656 401.6094,349.1563 Q401.7969,349.0469 402.0156,349.0469 Q402.3906,349.0469 402.625,349.3125 Q402.8594,349.5625 402.8594,350.1719 L402.8594,351.625 Q402.8594,352.2344 402.625,352.5 Q402.3906,352.7656 402.0156,352.7656 Q401.6719,352.7656 401.4688,352.5625 Q401.2656,352.375 401.1563,351.8594 Q401.1094,351.5 400.9219,351.3125 Q400.5938,350.9375 399.9844,350.7188 Q399.375,350.5 398.75,350.5 Q397.9844,350.5 397.3438,350.8281 Q396.7188,351.1563 396.2188,351.9063 Q395.7344,352.6563 395.7344,353.6875 L395.7344,354.7813 Q395.7344,356.0156 396.625,356.8438 Q397.5156,357.6563 399.1094,357.6563 Q400.0469,357.6563 400.7031,357.4063 Q401.0938,357.25 401.5156,356.8125 Q401.7813,356.5469 401.9219,356.4688 Q402.0781,356.3906 402.2813,356.3906 Q402.6094,356.3906 402.8594,356.6563 Q403.125,356.9063 403.125,357.25 Q403.125,357.5938 402.7813,358 Q402.2813,358.5781 401.4844,358.9063 Q400.4063,359.3594 399.1094,359.3594 Q397.5938,359.3594 396.3906,358.7344 Q395.4063,358.2344 394.7188,357.1719 Q394.0313,356.0938 394.0313,354.8125 L394.0313,353.6563 Q394.0313,352.3281 394.6406,351.1875 Q395.2656,350.0313 396.3594,349.4219 Q397.4531,348.7969 398.6875,348.7969 Q399.4219,348.7969 400.0625,348.9688 Q400.7188,349.125 401.2656,349.4844 Z " fill="#000000"/><text fill="#000000" font-family="sans-serif" font-size="14" lengthAdjust="spacing" textLength="8.5518" x="412.5" y="359.3379">F</text><line style="stroke:#181818;stroke-width:0.5;" x1="384.5" x2="423.0518" y1="369.6094" y2="369.6094"/><line style="stroke:#181818;stroke-width:0.5;" x1="384.5" x2="423.0518" y1="377.6094" y2="377.6094"/></g><!--class G--><g id="elem_G"><rect codeLine="13" fill="#F1F1F1" height="48" id="G" rx="2.5" ry="2.5" style="stroke:#181818;stroke-width:0.5;" width="42.8896" x="268.5" y="337.6094"/><ellipse cx="283.5" cy="353.6094" fill="#ADD1B2" rx="11" ry="11" style="stroke:#181818;stroke-width:1;"/><path d="M286.2656,349.4844 Q286.4219,349.2656 286.6094,349.1563 Q286.7969,349.0469 287.0156,349.0469 Q287.3906,349.0469 287.625,349.3125 Q287.8594,349.5625 287.8594,350.1719 L287.8594,351.625 Q287.8594,352.2344 287.625,352.5 Q287.3906,352.7656 287.0156,352.7656 Q286.6719,352.7656 286.4688,352.5625 Q286.2656,352.375 286.1563,351.8594 Q286.1094,351.5 285.9219,351.3125 Q285.5938,350.9375 284.9844,350.7188 Q284.375,350.5 283.75,350.5 Q282.9844,350.5 282.3438,350.8281 Q281.7188,351.1563 281.2188,351.9063 Q280.7344,352.6563 280.7344,353.6875 L280.7344,354.7813 Q280.7344,356.0156 281.625,356.8438 Q282.5156,357.6563 284.1094,357.6563 Q285.0469,357.6563 285.7031,357.4063 Q286.0938,357.25 286.5156,356.8125 Q286.7813,356.5469 286.9219,356.4688 Q287.0781,356.3906 287.2813,356.3906 Q287.6094,356.3906 287.8594,356.6563 Q288.125,356.9063 288.125,357.25 Q288.125,357.5938 287.7813,358 Q287.2813,358.5781 286.4844,358.9063 Q285.4063,359.3594 284.1094,359.3594 Q282.5938,359.3594 281.3906,358.7344 Q280.4063,358.2344 279.7188,357.1719 Q279.0313,356.0938 279.0313,354.8125 L279.0313,353.6563 Q279.0313,352.3281 279.6406,351.1875 Q280.2656,350.0313 281.3594,349.4219 Q282.4531,348.7969 283.6875,348.7969 Q284.4219,348.7969 285.0625,348.9688 Q285.7188,349.125 286.2656,349.4844 Z " fill="#000000"/><text fill="#000000" font-family="sans-serif" font-size="14" lengthAdjust="spacing" textLength="10.8896" x="297.5" y="359.3379">G</text><line style="stroke:#181818;stroke-width:0.5;" x1="269.5" x2="310.3896" y1="369.6094" y2="369.6094"/><line style="stroke:#181818;stroke-width:0.5;" x1="269.5" x2="310.3896" y1="377.6094" y2="377.6094"/></g><!--link B to A--><g id="link_B_A"><path codeLine="15" d="M65,93.7494 C65,114.6594 65,145.9694 65,171.4894 " fill="transparent" id="B-A" style="stroke:#181818;stroke-width:1;"/><text fill="#000000" font-family="sans-serif" font-size="13" lengthAdjust="spacing" textLength="62.8672" x="66" y="138.1045">Asociaci&#243;n</text></g><!--link B to C--><g id="link_B_C"><path codeLine="16" d="M85.62,69.6094 C121.18,69.6094 187.7,69.6094 223.72,69.6094 " fill="transparent" id="B-to-C" style="stroke:#181818;stroke-width:1;"/><polygon fill="#181818" points="229.72,69.6094,220.72,65.6094,224.72,69.6094,220.72,73.6094,229.72,69.6094" style="stroke:#181818;stroke-width:1;"/><text fill="#000000" font-family="sans-serif" font-size="13" lengthAdjust="spacing" textLength="108.3926" x="103.75" y="63.1045">Asociaci&#243;n dirigida</text></g><!--reverse link C to D--><g id="link_C_D"><path codeLine="17" d="M251,105.7494 C251,132.6194 251,164.6794 251,191.5294 " fill="transparent" id="C-backto-D" style="stroke:#181818;stroke-width:1;"/><polygon fill="transparent" points="251,93.7494,247,99.7494,251,105.7494,255,99.7494,251,93.7494" style="stroke:#181818;stroke-width:1;"/><text fill="#000000" font-family="sans-serif" font-size="13" lengthAdjust="spacing" textLength="65.7681" x="252" y="138.1045">Agregaci&#243;n</text></g><!--reverse link D to E--><g id="link_D_E"><path codeLine="18" d="M284.27,215.6094 C313.67,215.6094 354.36,215.6094 383.4,215.6094 " fill="transparent" id="D-backto-E" style="stroke:#181818;stroke-width:1;"/><polygon fill="#181818" points="272.27,215.6094,278.27,219.6094,284.27,215.6094,278.27,211.6094,272.27,215.6094" style="stroke:#181818;stroke-width:1;"/><text fill="#000000" font-family="sans-serif" font-size="13" lengthAdjust="spacing" textLength="75.1436" x="290.25" y="209.1045">Composici&#243;n</text></g><!--link E to F--><g id="link_E_F"><path codeLine="19" d="M404,239.7494 C404,266.6194 404,304.6794 404,331.5294 " fill="transparent" id="E-to-F" style="stroke:#181818;stroke-width:1;stroke-dasharray:7.0,7.0;"/><polygon fill="#181818" points="404,337.5294,408,328.5294,404,332.5294,400,328.5294,404,337.5294" style="stroke:#181818;stroke-width:1;"/><text fill="#000000" font-family="sans-serif" font-size="13" lengthAdjust="spacing" textLength="76.6162" x="405" y="304.1045">Dependencia</text></g><!--link G to F--><g id="link_G_F"><path codeLine="20" d="M311.71,361.6094 C332.25,361.6094 356.88,361.6094 377.14,361.6094 " fill="transparent" id="G-to-F" style="stroke:#181818;stroke-width:1;stroke-dasharray:7.0,7.0;"/><polygon fill="#181818" points="383.14,361.6094,374.14,357.6094,378.14,361.6094,374.14,365.6094,383.14,361.6094" style="stroke:#181818;stroke-width:1;"/><text fill="#000000" font-family="sans-serif" font-size="13" lengthAdjust="spacing" textLength="35.4199" x="330" y="355.1045">&#171;use&#187;</text></g><!--reverse link A to H--><g id="link_A_H"><path codeLine="21" d="M65,260.6094 C65,260.6094 47.51,307.8794 36.58,337.4194 " fill="transparent" id="A-backto-H" style="stroke:#181818;stroke-width:1;"/></g><!--reverse link A to I--><g id="link_A_I"><path codeLine="22" d="M65,260.6094 C65,260.6094 82.49,307.8794 93.42,337.4194 " fill="transparent" id="A-backto-I" style="stroke:#181818;stroke-width:1;"/><text fill="#000000" font-family="sans-serif" font-size="13" lengthAdjust="spacing" textLength="86.7153" x="84" y="304.1045">Generalizaci&#243;n</text></g><!--link J to E--><g id="link_J_E"><path codeLine="23" d="M404,93.7494 C404,120.6194 404,146.6794 404,173.5294 " fill="transparent" id="J-to-E" style="stroke:#181818;stroke-width:1;stroke-dasharray:7.0,7.0;"/><polygon fill="transparent" points="404,191.5294,410,173.5294,398,173.5294,404,191.5294" style="stroke:#181818;stroke-width:1;"/><text fill="#000000" font-family="sans-serif" font-size="13" lengthAdjust="spacing" textLength="67.2026" x="405" y="138.1045">Realizaci&#243;n</text></g><!--SRC=[LOr1QiD034NtSug_BZYBBeiPSCQEuonpWy4MhgYZCJFEfkHMFK8k5gLLALqzyJxwltomh3772-QShkiWxvHvYp8INjt6sq8uqn97Ja8595icX2KMAiwDoeB6U3GEnfDnRmp6rjWP3yRUkJsg2WtUq9GqiexUl-GfFS9_YOapppn55v3qftt6SwRPVbgyLEXKXdHPK-4Vss6typYeRcabcKYqp_KmMTVNGjwx1lLDEu-_nw1PJq8vBlnf0oUjkldlYJFz-GS0]--></g></svg>